M48
;Layer_Color=9474304
;FILE_FORMAT=2:5
INCH,TZ
;TYPE=PLATED
T1F00S00C0.01200
T2F00S00C0.01600
T3F00S00C0.02800
T4F00S00C0.03543
T5F00S00C0.03937
T6F00S00C0.04300
T7F00S00C0.04724
T8F00S00C0.15748
%
T01
X408995Y444583
X412995
X416995
Y448583
Y452583
Y456583
Y460583
Y464583
X420995
Y460583
Y456583
Y452583
Y448583
X424995
Y444583
X420995
X412995Y448583
X408995
Y452583
Y456583
Y460583
Y464583
Y468583
X412995
X416995
X420995
X424995
Y464583
Y460583
Y456583
Y452583
X412995
Y456583
Y460583
Y464583
X542580Y432320
X548090
X553600
Y426810
X548090
X542580
Y421300
X548090
X553600
T02
X428500Y213500
Y243500
X427000Y265000
X391000Y266000
X386000Y307500
X381000
X396000
X484000Y357000
X520000Y328000
X536500Y379500
X511000Y417000
X598000Y412000
Y407000
Y402000
Y397000
X615197Y365697
T03
X516000Y232000
Y263000
X443000Y324500
X473000
X483000Y331000
X551000Y334000
X631000Y393500
X468000Y474000
T04
X631150Y213000
X621150
X611150
X593150
X583150
X573150
X555150
X545150
X535150
X628500Y412000
Y422000
Y432000
Y442000
X680500
Y432000
Y422000
Y412000
T05
X671433Y212236
Y222079
Y231921
Y241764
Y270236
Y280079
Y289921
Y299764
X675567Y328472
Y338315
Y348158
Y358000
Y367843
Y377685
Y387528
T06
X545898Y241500
Y271500
Y301500
Y311500
X583898
Y301500
Y271500
Y241500
X621898
Y271500
Y301500
Y311500
T07
X628650Y178996
X613650
X590650
X575650
X552650
X537650
X498236
X483236
X468236
X453236
X348996Y221264
Y236264
Y251264
Y266264
X348496Y298264
Y313264
Y328264
Y343264
T08
X679000Y164000
X333000
X679000Y469000
X333000
M30
