G04 Layer_Color=32768*
%FSLAX25Y25*%
%MOIN*%
G70*
G01*
G75*
%ADD55C,0.00600*%
%ADD91C,0.00394*%
%ADD94C,0.00197*%
D55*
X517550Y385300D02*
Y389460D01*
X515600D02*
X517550D01*
X515600D02*
Y459960D01*
X517550D01*
Y487700D01*
X590450D01*
Y459960D02*
Y487700D01*
Y459960D02*
X592400D01*
Y389460D02*
Y459960D01*
X590450Y389460D02*
X592400D01*
X590450Y385300D02*
Y389460D01*
X579250Y385300D02*
X590450D01*
X579250Y383335D02*
Y385300D01*
X528750Y383335D02*
X579250D01*
X528750D02*
Y385300D01*
X517550D02*
X528750D01*
X552908Y352700D02*
Y369300D01*
Y352700D02*
X595092D01*
Y369300D01*
X552908D02*
X595092D01*
X548092Y352700D02*
Y369300D01*
X505908D02*
X548092D01*
X505908Y352700D02*
Y369300D01*
Y352700D02*
X548092D01*
X441895Y405200D02*
X449095D01*
X441895D02*
Y409400D01*
Y424600D02*
Y428800D01*
X449095D01*
Y424600D02*
Y428800D01*
Y405200D02*
Y409400D01*
X451045D01*
X439945D02*
X441895D01*
X439945D02*
Y424600D01*
X441895D01*
X449095D02*
X451045D01*
Y409400D02*
Y424600D01*
X321705Y386100D02*
Y401900D01*
X327100D01*
X345900D02*
X351295D01*
Y386100D02*
Y401900D01*
X345900Y386100D02*
X351295D01*
X321705D02*
X327100D01*
Y401900D02*
Y402900D01*
X345900D01*
Y401900D02*
Y402900D01*
X327100Y386100D02*
X345900D01*
X606056Y235303D02*
X627938D01*
Y315925D01*
X606056D02*
X627938D01*
X606056Y235303D02*
Y315925D01*
X402595Y359700D02*
X444395D01*
Y359900D01*
Y402100D02*
Y402300D01*
X402595D02*
X444395D01*
X402595Y402100D02*
Y402300D01*
Y359700D02*
Y359900D01*
X444395D02*
Y402100D01*
X402595Y359900D02*
Y402100D01*
X530056Y235303D02*
X551938D01*
Y315925D01*
X530056D02*
X551938D01*
X530056Y235303D02*
Y315925D01*
X568056Y235303D02*
X589938D01*
Y315925D01*
X568056D02*
X589938D01*
X568056Y235303D02*
Y315925D01*
D91*
X622890Y341760D02*
Y349240D01*
X609110Y341760D02*
Y349240D01*
Y341760D02*
X622890D01*
X609110Y349240D02*
X622890D01*
X614032Y345500D02*
X617969D01*
X616000Y343531D02*
Y347468D01*
X446890Y221453D02*
Y228933D01*
X433110Y221453D02*
Y228933D01*
Y221453D02*
X446890D01*
X433110Y228933D02*
X446890D01*
X438031Y225193D02*
X441968D01*
X440000Y223224D02*
Y227161D01*
X446890Y252234D02*
Y259714D01*
X433110Y252234D02*
Y259714D01*
Y252234D02*
X446890D01*
X433110Y259714D02*
X446890D01*
X438031Y255974D02*
X441968D01*
X440000Y254006D02*
Y257943D01*
X535933Y329760D02*
Y337240D01*
X522154Y329760D02*
Y337240D01*
Y329760D02*
X535933D01*
X522154Y337240D02*
X535933D01*
X527075Y333500D02*
X531012D01*
X529043Y331532D02*
Y335469D01*
X508032Y330500D02*
X511969D01*
X510000Y328532D02*
Y332469D01*
X516890Y322823D02*
Y338177D01*
X503110Y322823D02*
Y338177D01*
X516890D01*
X503110Y322823D02*
X516890D01*
X404860Y269760D02*
Y277240D01*
X418640Y269760D02*
Y277240D01*
X404860D02*
X418640D01*
X404860Y269760D02*
X418640D01*
X409782Y273500D02*
X413719D01*
X411750Y271532D02*
Y275468D01*
X395342Y412094D02*
X438649D01*
X395342Y473906D02*
X438649D01*
X395342Y412094D02*
Y473906D01*
X438649Y412094D02*
Y473906D01*
X416995Y441032D02*
Y444969D01*
X415027Y443000D02*
X418964D01*
X472385Y361260D02*
Y368740D01*
X458605Y361260D02*
Y368740D01*
Y361260D02*
X472385D01*
X458605Y368740D02*
X472385D01*
X463527Y365000D02*
X467464D01*
X465495Y363032D02*
Y366968D01*
X498110Y272260D02*
Y279740D01*
X511890Y272260D02*
Y279740D01*
X498110D02*
X511890D01*
X498110Y272260D02*
X511890D01*
X503031Y276000D02*
X506968D01*
X505000Y274031D02*
Y277969D01*
X519031Y280756D02*
X522968D01*
X521000Y278787D02*
Y282724D01*
X527890Y273079D02*
Y288433D01*
X514110Y273079D02*
Y288433D01*
X527890D01*
X514110Y273079D02*
X527890D01*
X487527Y417000D02*
X491464D01*
X489495Y415031D02*
Y418968D01*
X483196Y407748D02*
Y426252D01*
X495794Y407748D02*
Y426252D01*
X483196Y407748D02*
X495794D01*
X483196Y426252D02*
X495794D01*
X446890Y280953D02*
Y288433D01*
X433110Y280953D02*
Y288433D01*
Y280953D02*
X446890D01*
X433110Y288433D02*
X446890D01*
X438031Y284693D02*
X441968D01*
X440000Y282724D02*
Y286661D01*
X498110Y242760D02*
Y250240D01*
X511890Y242760D02*
Y250240D01*
X498110D02*
X511890D01*
X498110Y242760D02*
X511890D01*
X503031Y246500D02*
X506968D01*
X505000Y244531D02*
Y248468D01*
X519031Y251256D02*
X522968D01*
X521000Y249287D02*
Y253224D01*
X527890Y243579D02*
Y258933D01*
X514110Y243579D02*
Y258933D01*
X527890D01*
X514110Y243579D02*
X527890D01*
X519031Y221256D02*
X522968D01*
X521000Y219287D02*
Y223224D01*
X527890Y213579D02*
Y228933D01*
X514110Y213579D02*
Y228933D01*
X527890D01*
X514110Y213579D02*
X527890D01*
X498110Y212760D02*
Y220240D01*
X511890Y212760D02*
Y220240D01*
X498110D02*
X511890D01*
X498110Y212760D02*
X511890D01*
X503031Y216500D02*
X506968D01*
X505000Y214531D02*
Y218468D01*
X639110Y415260D02*
Y422740D01*
X652890Y415260D02*
Y422740D01*
X639110D02*
X652890D01*
X639110Y415260D02*
X652890D01*
X644031Y419000D02*
X647968D01*
X646000Y417031D02*
Y420968D01*
X639110Y431760D02*
Y439240D01*
X652890Y431760D02*
Y439240D01*
X639110D02*
X652890D01*
X639110Y431760D02*
X652890D01*
X644031Y435500D02*
X647968D01*
X646000Y433532D02*
Y437468D01*
X412000Y311032D02*
Y314968D01*
X410032Y313000D02*
X413969D01*
X402748Y319299D02*
X421252D01*
X402748Y306701D02*
X421252D01*
X402748D02*
Y319299D01*
X421252Y306701D02*
Y319299D01*
X404860Y287760D02*
Y295240D01*
X418640Y287760D02*
Y295240D01*
X404860D02*
X418640D01*
X404860Y287760D02*
X418640D01*
X409782Y291500D02*
X413719D01*
X411750Y289531D02*
Y293468D01*
X404860Y278760D02*
Y286240D01*
X418640Y278760D02*
Y286240D01*
X404860D02*
X418640D01*
X404860Y278760D02*
X418640D01*
X409782Y282500D02*
X413719D01*
X411750Y280532D02*
Y284469D01*
X404860Y296760D02*
Y304240D01*
X418640Y296760D02*
Y304240D01*
X404860D02*
X418640D01*
X404860Y296760D02*
X418640D01*
X409782Y300500D02*
X413719D01*
X411750Y298532D02*
Y302468D01*
X377923Y302264D02*
X399577D01*
X377923Y272736D02*
X399577D01*
Y302264D01*
X377923Y272736D02*
Y302264D01*
X388750Y285531D02*
Y289469D01*
X386782Y287500D02*
X390719D01*
X373010Y249610D02*
X380490D01*
X373010Y263390D02*
X380490D01*
X373010Y249610D02*
Y263390D01*
X380490Y249610D02*
Y263390D01*
X376750Y254532D02*
Y258469D01*
X374781Y256500D02*
X378718D01*
X611654Y381532D02*
Y385469D01*
X609685Y383500D02*
X613622D01*
X604764Y379563D02*
X618543D01*
X604764Y387437D02*
X618543D01*
Y379563D02*
Y387437D01*
X604764Y379563D02*
Y387437D01*
Y368260D02*
Y375740D01*
X618543Y368260D02*
Y375740D01*
X604764D02*
X618543D01*
X604764Y368260D02*
X618543D01*
X609685Y372000D02*
X613622D01*
X611654Y370031D02*
Y373969D01*
X500000Y340032D02*
Y343969D01*
X498032Y342000D02*
X501968D01*
X493110Y345937D02*
X506890D01*
X493110Y338063D02*
X506890D01*
X493110D02*
Y345937D01*
X506890Y338063D02*
Y345937D01*
Y346760D02*
Y354240D01*
X493110Y346760D02*
Y354240D01*
Y346760D02*
X506890D01*
X493110Y354240D02*
X506890D01*
X498032Y350500D02*
X501968D01*
X500000Y348532D02*
Y352468D01*
X482500Y472031D02*
Y475969D01*
X480532Y474000D02*
X484469D01*
X475610Y477937D02*
X489390D01*
X475610Y470063D02*
X489390D01*
X475610D02*
Y477937D01*
X489390Y470063D02*
Y477937D01*
X482500Y462032D02*
Y465969D01*
X480532Y464000D02*
X484469D01*
X475610Y467937D02*
X489390D01*
X475610Y460063D02*
X489390D01*
X475610D02*
Y467937D01*
X489390Y460063D02*
Y467937D01*
X482500Y452032D02*
Y455969D01*
X480532Y454000D02*
X484469D01*
X475610Y457937D02*
X489390D01*
X475610Y450063D02*
X489390D01*
X475610D02*
Y457937D01*
X489390Y450063D02*
Y457937D01*
X453322Y413874D02*
X481669D01*
X453322Y448126D02*
X481669D01*
X453322Y413874D02*
Y448126D01*
X481669Y413874D02*
Y448126D01*
X467495Y429032D02*
Y432969D01*
X465527Y431000D02*
X469464D01*
D94*
X602429Y146516D02*
X639870D01*
Y184705D01*
X602429D02*
X639870D01*
X602429Y146516D02*
Y184705D01*
X564429Y146516D02*
X601870D01*
Y184705D01*
X564429D02*
X601870D01*
X564429Y146516D02*
Y184705D01*
X526429Y146516D02*
X563870D01*
Y184705D01*
X526429D02*
X563870D01*
X526429Y146516D02*
Y184705D01*
X448378Y288342D02*
X495622D01*
Y268657D02*
Y288342D01*
X448378Y268657D02*
X495622D01*
X448378D02*
Y288342D01*
X316016Y287043D02*
Y354484D01*
Y287043D02*
X354205D01*
Y354484D01*
X316016D02*
X354205D01*
X316516Y210043D02*
Y277484D01*
Y210043D02*
X354705D01*
Y277484D01*
X316516D02*
X354705D01*
X661197Y317843D02*
X685803D01*
Y398158D01*
X661197D02*
X685803D01*
X661197Y317843D02*
Y398158D01*
Y252394D02*
X685803D01*
X661197Y201606D02*
Y252394D01*
Y201606D02*
X685803D01*
Y252394D01*
X661197Y310394D02*
X685803D01*
X661197Y259606D02*
Y310394D01*
Y259606D02*
X685803D01*
Y310394D01*
X448378Y258343D02*
X495622D01*
Y238657D02*
Y258343D01*
X448378Y238657D02*
X495622D01*
X448378D02*
Y258343D01*
Y228343D02*
X495622D01*
Y208658D02*
Y228343D01*
X448378Y208658D02*
X495622D01*
X448378D02*
Y228343D01*
X442016Y146516D02*
X509457D01*
Y184705D01*
X442016D02*
X509457D01*
X442016Y146516D02*
Y184705D01*
M02*
