G04 Layer_Color=8388736*
%FSLAX25Y25*%
%MOIN*%
G70*
G01*
G75*
%ADD10R,0.03500X0.03500*%
%ADD11R,0.05900X0.03500*%
%ADD12R,0.03500X0.05900*%
%ADD17R,0.07900X0.05900*%
%ADD18R,0.03200X0.06000*%
%ADD23R,0.07000X0.13800*%
%ADD26R,0.13800X0.40200*%
%ADD31R,0.09843X0.03937*%
%ADD41C,0.06300*%
%ADD59R,0.05524X0.06312*%
%ADD60R,0.05131X0.04737*%
%ADD61R,0.03162X0.05328*%
%ADD62R,0.02965X0.06509*%
%ADD63R,0.17335X0.07099*%
%ADD64R,0.04934X0.13398*%
%ADD65R,0.41942X0.33477*%
%ADD66R,0.09855X0.09855*%
%ADD67R,0.06509X0.02965*%
%ADD68R,0.11430X0.05918*%
%ADD69R,0.09028X0.06469*%
%ADD70R,0.05918X0.11430*%
%ADD71O,0.03162X0.09461*%
%ADD72R,0.06312X0.05524*%
%ADD73R,0.07099X0.17335*%
%ADD74R,0.05918X0.06706*%
%ADD75R,0.13792X0.10249*%
%ADD76R,0.04737X0.10249*%
%ADD77R,0.13792X0.10249*%
%ADD78C,0.07000*%
%ADD79C,0.03600*%
%ADD80C,0.07887*%
%ADD81R,0.07887X0.07887*%
%ADD82C,0.06706*%
%ADD83R,0.06706X0.06706*%
%ADD84R,0.07887X0.07887*%
%ADD85C,0.22453*%
%ADD86C,0.06737*%
%ADD87R,0.06737X0.06737*%
%ADD88R,0.06706X0.06706*%
%ADD89C,0.04000*%
%ADD90C,0.05800*%
D10*
X548090Y426810D02*
D03*
Y432320D02*
D03*
X553600D02*
D03*
Y426810D02*
D03*
Y421300D02*
D03*
X548090D02*
D03*
X542580D02*
D03*
Y426810D02*
D03*
Y432320D02*
D03*
D11*
X588450Y457210D02*
D03*
Y452210D02*
D03*
Y447210D02*
D03*
Y442210D02*
D03*
Y437210D02*
D03*
Y432210D02*
D03*
Y427210D02*
D03*
Y422210D02*
D03*
Y417210D02*
D03*
Y412210D02*
D03*
Y407210D02*
D03*
Y402210D02*
D03*
Y397210D02*
D03*
Y392210D02*
D03*
X519550D02*
D03*
Y397210D02*
D03*
Y402210D02*
D03*
Y407210D02*
D03*
Y412210D02*
D03*
Y417210D02*
D03*
Y422210D02*
D03*
Y427210D02*
D03*
Y432210D02*
D03*
Y437210D02*
D03*
Y442210D02*
D03*
Y447210D02*
D03*
Y452210D02*
D03*
Y457210D02*
D03*
D12*
X576500Y387285D02*
D03*
X571500D02*
D03*
X566500D02*
D03*
X561500D02*
D03*
X556500D02*
D03*
X551500D02*
D03*
X546500D02*
D03*
X541500D02*
D03*
X536500D02*
D03*
X531500D02*
D03*
D17*
X557858Y361000D02*
D03*
X590142D02*
D03*
X543142D02*
D03*
X510858D02*
D03*
D18*
X445495Y410200D02*
D03*
Y423800D02*
D03*
D23*
X326205Y394000D02*
D03*
X346795D02*
D03*
D26*
X436495Y381000D02*
D03*
X410495D02*
D03*
D31*
X402000Y221094D02*
D03*
Y232906D02*
D03*
X382000Y221094D02*
D03*
Y232906D02*
D03*
D41*
X621898Y311500D02*
D03*
Y301500D02*
D03*
Y271500D02*
D03*
Y241500D02*
D03*
X545898Y311500D02*
D03*
Y301500D02*
D03*
Y271500D02*
D03*
Y241500D02*
D03*
X583898Y311500D02*
D03*
Y301500D02*
D03*
Y271500D02*
D03*
Y241500D02*
D03*
D59*
X619543Y345500D02*
D03*
X612457D02*
D03*
X443543Y225193D02*
D03*
X436457D02*
D03*
X443543Y255974D02*
D03*
X436457D02*
D03*
X532587Y333500D02*
D03*
X525500D02*
D03*
X408207Y273500D02*
D03*
X415293D02*
D03*
X469039Y365000D02*
D03*
X461952D02*
D03*
X501457Y276000D02*
D03*
X508543D02*
D03*
X443543Y284693D02*
D03*
X436457D02*
D03*
X501457Y246500D02*
D03*
X508543D02*
D03*
X501457Y216500D02*
D03*
X508543D02*
D03*
X642457Y419000D02*
D03*
X649543D02*
D03*
X642457Y435500D02*
D03*
X649543D02*
D03*
X408207Y291500D02*
D03*
X415293D02*
D03*
X408207Y282500D02*
D03*
X415293D02*
D03*
X408207Y300500D02*
D03*
X415293D02*
D03*
X608110Y372000D02*
D03*
X615197D02*
D03*
X503543Y350500D02*
D03*
X496457D02*
D03*
D60*
X612972Y336032D02*
D03*
X619665D02*
D03*
X484842Y365000D02*
D03*
X478149D02*
D03*
X436654Y273500D02*
D03*
X443347D02*
D03*
X436654Y243500D02*
D03*
X443347D02*
D03*
X436654Y213500D02*
D03*
X443347D02*
D03*
D61*
X510000Y334929D02*
D03*
X513740Y326071D02*
D03*
X506260D02*
D03*
X521000Y285185D02*
D03*
X524740Y276327D02*
D03*
X517260D02*
D03*
X521000Y255685D02*
D03*
X524740Y246827D02*
D03*
X517260D02*
D03*
X521000Y225685D02*
D03*
X524740Y216827D02*
D03*
X517260D02*
D03*
D62*
X401750Y261126D02*
D03*
Y251874D02*
D03*
X417750Y261126D02*
D03*
Y251874D02*
D03*
X385750Y261126D02*
D03*
Y251874D02*
D03*
D63*
X456008Y389000D02*
D03*
X481992D02*
D03*
D64*
X403609Y419378D02*
D03*
X410302D02*
D03*
X416995D02*
D03*
X423688D02*
D03*
X430381D02*
D03*
D65*
X416995Y456583D02*
D03*
D66*
X346354Y418378D02*
D03*
X328637D02*
D03*
X345358Y370500D02*
D03*
X327642D02*
D03*
D67*
X509626Y285283D02*
D03*
X500374D02*
D03*
X509626Y255784D02*
D03*
X500374D02*
D03*
X509626Y225783D02*
D03*
X500374D02*
D03*
D68*
X489495Y411291D02*
D03*
Y422709D02*
D03*
D69*
X454126Y283500D02*
D03*
Y273500D02*
D03*
X489874D02*
D03*
Y283500D02*
D03*
X454126Y253500D02*
D03*
Y243500D02*
D03*
X489874D02*
D03*
Y253500D02*
D03*
X454126Y223500D02*
D03*
Y213500D02*
D03*
X489874D02*
D03*
Y223500D02*
D03*
D70*
X406291Y313000D02*
D03*
X417709D02*
D03*
D71*
X396250Y296949D02*
D03*
X391250D02*
D03*
X386250D02*
D03*
X381250D02*
D03*
X396250Y278051D02*
D03*
X391250D02*
D03*
X386250D02*
D03*
X381250D02*
D03*
D72*
X376750Y252957D02*
D03*
Y260043D02*
D03*
D73*
X375495Y370433D02*
D03*
Y399567D02*
D03*
D74*
X615000Y383500D02*
D03*
X608307D02*
D03*
X496654Y342000D02*
D03*
X503346D02*
D03*
X479153Y474000D02*
D03*
X485847D02*
D03*
X479153Y464000D02*
D03*
X485847D02*
D03*
X479153Y454000D02*
D03*
X485847D02*
D03*
D75*
X381495Y435319D02*
D03*
Y462681D02*
D03*
D76*
X458440Y419583D02*
D03*
X467495D02*
D03*
X476550D02*
D03*
D77*
X467495Y442417D02*
D03*
D78*
X473000Y324500D02*
D03*
X443000D02*
D03*
D79*
X416995Y456583D02*
D03*
X424995Y448583D02*
D03*
Y444583D02*
D03*
X408995Y468583D02*
D03*
X420995Y464583D02*
D03*
X408995D02*
D03*
X416995D02*
D03*
X420995Y460583D02*
D03*
X408995Y444583D02*
D03*
Y456583D02*
D03*
X416995Y468583D02*
D03*
X412995Y444583D02*
D03*
X424995Y468583D02*
D03*
X416995Y460583D02*
D03*
Y448583D02*
D03*
X420995Y444583D02*
D03*
X416995D02*
D03*
X420995Y456583D02*
D03*
Y452583D02*
D03*
X416995D02*
D03*
X408995D02*
D03*
Y448583D02*
D03*
X420995D02*
D03*
X412995Y464583D02*
D03*
Y448583D02*
D03*
X408995Y460583D02*
D03*
X420995Y468583D02*
D03*
X424995Y452583D02*
D03*
Y456583D02*
D03*
Y460583D02*
D03*
X412995Y468583D02*
D03*
Y452583D02*
D03*
Y456583D02*
D03*
Y460583D02*
D03*
X424995Y464583D02*
D03*
X542580Y432320D02*
D03*
X548090D02*
D03*
X553600D02*
D03*
X542580Y426810D02*
D03*
X548090D02*
D03*
X553600D02*
D03*
Y421300D02*
D03*
X548090D02*
D03*
X542580D02*
D03*
D80*
X628650Y178996D02*
D03*
X590650D02*
D03*
X552650D02*
D03*
X348496Y298264D02*
D03*
Y313264D02*
D03*
Y328264D02*
D03*
X348996Y221264D02*
D03*
Y236264D02*
D03*
Y251264D02*
D03*
X498236Y178996D02*
D03*
X483236D02*
D03*
X468236D02*
D03*
D81*
X613650D02*
D03*
X575650D02*
D03*
X537650D02*
D03*
X453236D02*
D03*
D82*
X631150Y213000D02*
D03*
X621150D02*
D03*
X555150D02*
D03*
X545150D02*
D03*
X593150D02*
D03*
X583150D02*
D03*
X680500Y442000D02*
D03*
Y432000D02*
D03*
Y422000D02*
D03*
X628500Y412000D02*
D03*
Y422000D02*
D03*
Y432000D02*
D03*
D83*
X611150Y213000D02*
D03*
X535150D02*
D03*
X573150D02*
D03*
D84*
X348496Y343264D02*
D03*
X348996Y266264D02*
D03*
D85*
X679000Y164000D02*
D03*
Y469000D02*
D03*
X333000D02*
D03*
Y164000D02*
D03*
D86*
X675567Y328472D02*
D03*
Y338315D02*
D03*
Y348158D02*
D03*
Y377685D02*
D03*
Y358000D02*
D03*
Y367843D02*
D03*
X671433Y222079D02*
D03*
Y241764D02*
D03*
Y231921D02*
D03*
Y280079D02*
D03*
Y299764D02*
D03*
Y289921D02*
D03*
D87*
X675567Y387528D02*
D03*
X671433Y212236D02*
D03*
Y270236D02*
D03*
D88*
X680500Y412000D02*
D03*
X628500Y442000D02*
D03*
D89*
X381000Y307500D02*
D03*
X386000D02*
D03*
X428500Y213500D02*
D03*
X598000Y412000D02*
D03*
X536500Y379500D02*
D03*
X511000Y417000D02*
D03*
X396000Y307500D02*
D03*
X428500Y243500D02*
D03*
X598000Y407000D02*
D03*
Y402000D02*
D03*
Y397000D02*
D03*
X484000Y357000D02*
D03*
X615197Y365697D02*
D03*
X391000Y266000D02*
D03*
X520000Y328000D02*
D03*
X427000Y265000D02*
D03*
D90*
X631000Y393500D02*
D03*
X516000Y263000D02*
D03*
Y232000D02*
D03*
X551000Y334000D02*
D03*
X468000Y474000D02*
D03*
X483000Y331000D02*
D03*
M02*
