G04 Layer_Physical_Order=1*
G04 Layer_Color=255*
%FSLAX25Y25*%
%MOIN*%
G70*
G01*
G75*
%ADD10R,0.03500X0.03500*%
%ADD11R,0.05900X0.03500*%
%ADD12R,0.03500X0.05900*%
%ADD13R,0.04724X0.05512*%
%ADD14R,0.04331X0.03937*%
%ADD15R,0.02362X0.04528*%
%ADD16R,0.02165X0.05709*%
%ADD17R,0.07900X0.05900*%
%ADD18R,0.03200X0.06000*%
%ADD19R,0.16535X0.06299*%
%ADD20R,0.04134X0.12598*%
%ADD21R,0.41142X0.32677*%
%ADD22R,0.09055X0.09055*%
%ADD23R,0.07000X0.13800*%
%ADD24R,0.05709X0.02165*%
%ADD25R,0.10630X0.05118*%
%ADD26R,0.13800X0.40200*%
%ADD27R,0.08228X0.05669*%
%ADD28R,0.05118X0.10630*%
%ADD29O,0.02362X0.08661*%
%ADD30R,0.05512X0.04724*%
%ADD31R,0.09843X0.03937*%
%ADD32R,0.06299X0.16535*%
%ADD33R,0.05118X0.05906*%
%ADD34R,0.12992X0.09449*%
%ADD35R,0.03937X0.09449*%
%ADD36R,0.12992X0.09449*%
%ADD37C,0.01000*%
%ADD38C,0.02500*%
%ADD39C,0.06200*%
%ADD40C,0.02800*%
%ADD41C,0.06300*%
%ADD42C,0.07087*%
%ADD43R,0.07087X0.07087*%
%ADD44C,0.05906*%
%ADD45R,0.05906X0.05906*%
%ADD46R,0.07087X0.07087*%
%ADD47C,0.21654*%
%ADD48C,0.05937*%
%ADD49R,0.05937X0.05937*%
%ADD50R,0.05906X0.05906*%
%ADD51C,0.03200*%
%ADD52C,0.05000*%
G36*
X695675Y147326D02*
X316325D01*
Y192084D01*
X316826Y192291D01*
X322558Y186558D01*
X323220Y186116D01*
X324000Y185961D01*
X355155Y185961D01*
X359961Y181155D01*
X359961Y160000D01*
X360116Y159220D01*
X360558Y158558D01*
X360558Y158558D01*
X366558Y152558D01*
X366558Y152558D01*
X367220Y152116D01*
X368000Y151961D01*
X638000Y151961D01*
X638780Y152116D01*
X639442Y152558D01*
X641442Y154558D01*
X641442Y154558D01*
X641884Y155220D01*
X642039Y156000D01*
X642039Y166000D01*
X641884Y166780D01*
X641442Y167442D01*
X641442Y167442D01*
X639442Y169442D01*
X638780Y169884D01*
X638294Y169981D01*
Y208150D01*
X638119Y209028D01*
X637622Y209772D01*
X635050Y212344D01*
X635137Y213000D01*
X635001Y214032D01*
X634602Y214993D01*
X633969Y215819D01*
X633143Y216453D01*
X632182Y216851D01*
X631150Y216987D01*
X630118Y216851D01*
X629156Y216453D01*
X628331Y215819D01*
X627697Y214993D01*
X627299Y214032D01*
X627163Y213000D01*
X627299Y211968D01*
X627697Y211007D01*
X628331Y210181D01*
X629156Y209547D01*
X630118Y209149D01*
X631150Y209013D01*
X631806Y209100D01*
X633706Y207199D01*
Y179228D01*
X633206Y179195D01*
X633195Y179281D01*
X633076Y180182D01*
X632618Y181287D01*
X631890Y182236D01*
X630944Y182962D01*
Y205500D01*
X630769Y206378D01*
X630272Y207122D01*
X625050Y212344D01*
X625137Y213000D01*
X625050Y213656D01*
X630622Y219228D01*
X631119Y219972D01*
X631294Y220850D01*
Y264398D01*
X631119Y265276D01*
X630622Y266021D01*
X625975Y270668D01*
X626084Y271500D01*
X625942Y272583D01*
X625523Y273593D01*
X624858Y274460D01*
X623991Y275125D01*
X622982Y275543D01*
X621898Y275686D01*
X620815Y275543D01*
X619805Y275125D01*
X618939Y274460D01*
X618273Y273593D01*
X617855Y272583D01*
X617713Y271500D01*
X617855Y270417D01*
X618273Y269407D01*
X618939Y268540D01*
X619805Y267875D01*
X620815Y267457D01*
X621898Y267314D01*
X622730Y267424D01*
X626706Y263448D01*
Y221801D01*
X621806Y216900D01*
X621150Y216987D01*
X620118Y216851D01*
X619156Y216453D01*
X618330Y215819D01*
X617697Y214993D01*
X617299Y214032D01*
X617163Y213000D01*
X617299Y211968D01*
X617697Y211007D01*
X618330Y210181D01*
X619156Y209547D01*
X620118Y209149D01*
X621150Y209013D01*
X621806Y209100D01*
X626356Y204550D01*
Y182962D01*
X625409Y182236D01*
X624681Y181287D01*
X624223Y180182D01*
X624067Y178996D01*
X624223Y177810D01*
X624681Y176705D01*
X625409Y175756D01*
X626358Y175028D01*
X627464Y174570D01*
X628650Y174414D01*
X629836Y174570D01*
X630941Y175028D01*
X631890Y175756D01*
X632618Y176705D01*
X633076Y177810D01*
X633195Y178711D01*
X633206Y178797D01*
X633706Y178764D01*
Y170039D01*
X600294Y170039D01*
Y208150D01*
X600119Y209028D01*
X599622Y209772D01*
X597050Y212344D01*
X597136Y213000D01*
X597001Y214032D01*
X596602Y214993D01*
X595969Y215819D01*
X595143Y216453D01*
X594181Y216851D01*
X593150Y216987D01*
X592118Y216851D01*
X591156Y216453D01*
X590331Y215819D01*
X589697Y214993D01*
X589299Y214032D01*
X589163Y213000D01*
X589299Y211968D01*
X589697Y211007D01*
X590331Y210181D01*
X591156Y209547D01*
X592118Y209149D01*
X593150Y209013D01*
X593806Y209100D01*
X595706Y207199D01*
Y179228D01*
X595206Y179195D01*
X595195Y179281D01*
X595076Y180182D01*
X594618Y181287D01*
X593890Y182236D01*
X592944Y182962D01*
Y205500D01*
X592769Y206378D01*
X592272Y207122D01*
X587050Y212344D01*
X587137Y213000D01*
X587050Y213656D01*
X592622Y219228D01*
X593119Y219972D01*
X593294Y220850D01*
Y264398D01*
X593119Y265276D01*
X592622Y266021D01*
X587975Y270668D01*
X588084Y271500D01*
X587942Y272583D01*
X587523Y273593D01*
X586858Y274460D01*
X585991Y275125D01*
X584982Y275543D01*
X583898Y275686D01*
X582815Y275543D01*
X581806Y275125D01*
X580939Y274460D01*
X580273Y273593D01*
X579855Y272583D01*
X579713Y271500D01*
X579855Y270417D01*
X580273Y269407D01*
X580939Y268540D01*
X581806Y267875D01*
X582815Y267457D01*
X583898Y267314D01*
X584730Y267424D01*
X588706Y263448D01*
Y221801D01*
X583806Y216900D01*
X583150Y216987D01*
X582118Y216851D01*
X581156Y216453D01*
X580331Y215819D01*
X579697Y214993D01*
X579299Y214032D01*
X579163Y213000D01*
X579299Y211968D01*
X579697Y211007D01*
X580331Y210181D01*
X581156Y209547D01*
X582118Y209149D01*
X583150Y209013D01*
X583806Y209100D01*
X588355Y204550D01*
Y182962D01*
X587409Y182236D01*
X586681Y181287D01*
X586223Y180182D01*
X586067Y178996D01*
X586223Y177810D01*
X586681Y176705D01*
X587409Y175756D01*
X588358Y175028D01*
X589464Y174570D01*
X590650Y174414D01*
X591836Y174570D01*
X592941Y175028D01*
X593890Y175756D01*
X594618Y176705D01*
X595076Y177810D01*
X595195Y178711D01*
X595206Y178797D01*
X595706Y178764D01*
Y170039D01*
X562294D01*
Y208150D01*
X562119Y209028D01*
X561622Y209772D01*
X559050Y212344D01*
X559136Y213000D01*
X559001Y214032D01*
X558602Y214993D01*
X557969Y215819D01*
X557143Y216453D01*
X556181Y216851D01*
X555150Y216987D01*
X554118Y216851D01*
X553156Y216453D01*
X552330Y215819D01*
X551697Y214993D01*
X551299Y214032D01*
X551163Y213000D01*
X551299Y211968D01*
X551697Y211007D01*
X552330Y210181D01*
X553156Y209547D01*
X554118Y209149D01*
X555150Y209013D01*
X555806Y209100D01*
X557706Y207199D01*
Y179228D01*
X557206Y179195D01*
X557195Y179281D01*
X557076Y180182D01*
X556618Y181287D01*
X555890Y182236D01*
X554944Y182962D01*
Y205500D01*
X554769Y206378D01*
X554272Y207122D01*
X549050Y212344D01*
X549136Y213000D01*
X549050Y213656D01*
X554622Y219228D01*
X555119Y219972D01*
X555294Y220850D01*
Y264398D01*
X555119Y265276D01*
X554622Y266021D01*
X549975Y270668D01*
X550084Y271500D01*
X549942Y272583D01*
X549523Y273593D01*
X548858Y274460D01*
X547991Y275125D01*
X546982Y275543D01*
X545898Y275686D01*
X544815Y275543D01*
X543806Y275125D01*
X542939Y274460D01*
X542273Y273593D01*
X541855Y272583D01*
X541713Y271500D01*
X541855Y270417D01*
X542273Y269407D01*
X542939Y268540D01*
X543806Y267875D01*
X544815Y267457D01*
X545898Y267314D01*
X546730Y267424D01*
X550706Y263448D01*
Y221801D01*
X545806Y216900D01*
X545150Y216987D01*
X544118Y216851D01*
X543156Y216453D01*
X542331Y215819D01*
X541697Y214993D01*
X541299Y214032D01*
X541163Y213000D01*
X541299Y211968D01*
X541697Y211007D01*
X542331Y210181D01*
X543156Y209547D01*
X544118Y209149D01*
X545150Y209013D01*
X545806Y209100D01*
X550355Y204550D01*
Y182962D01*
X549409Y182236D01*
X548681Y181287D01*
X548223Y180182D01*
X548067Y178996D01*
X548223Y177810D01*
X548681Y176705D01*
X549409Y175756D01*
X550358Y175028D01*
X551464Y174570D01*
X552650Y174414D01*
X553836Y174570D01*
X554941Y175028D01*
X555890Y175756D01*
X556618Y176705D01*
X557076Y177810D01*
X557195Y178711D01*
X557206Y178797D01*
X557706Y178764D01*
Y170039D01*
X477319Y170039D01*
X476947Y170539D01*
X477039Y171000D01*
Y187961D01*
X500000Y187961D01*
X500780Y188116D01*
X501442Y188558D01*
X501442Y188558D01*
X505442Y192558D01*
X505442Y192558D01*
X505884Y193220D01*
X506039Y194000D01*
X506039Y212744D01*
X511905D01*
Y214971D01*
X515079D01*
Y213563D01*
X519441D01*
Y220091D01*
X515079D01*
Y218029D01*
X511905D01*
Y220256D01*
X506039D01*
Y223701D01*
X513480D01*
Y224254D01*
X518819D01*
Y222421D01*
X523181D01*
Y224156D01*
X527685D01*
X528270Y224272D01*
X528766Y224604D01*
X534081Y229919D01*
X534413Y230415D01*
X534529Y231000D01*
Y270367D01*
X542633Y278471D01*
X611500D01*
X612085Y278587D01*
X612581Y278919D01*
X622980Y289317D01*
X623311Y289813D01*
X623428Y290398D01*
Y297642D01*
X623991Y297875D01*
X624858Y298540D01*
X625523Y299407D01*
X625942Y300417D01*
X626084Y301500D01*
X625958Y302461D01*
X626257Y302961D01*
X629000D01*
X629780Y303116D01*
X630442Y303558D01*
X630442Y303558D01*
X633442Y306558D01*
X633442Y306558D01*
X633862Y307187D01*
X633952Y307262D01*
X634367Y307389D01*
X634706Y307050D01*
Y277000D01*
Y221000D01*
X634881Y220122D01*
X635378Y219378D01*
X644142Y210614D01*
X644886Y210117D01*
X645764Y209942D01*
X667465D01*
Y208268D01*
X675402D01*
Y216081D01*
X680110D01*
X680695Y216197D01*
X681192Y216529D01*
X685081Y220419D01*
X685413Y220915D01*
X685529Y221500D01*
Y350000D01*
X685413Y350585D01*
X685081Y351081D01*
X682081Y354081D01*
X681585Y354413D01*
X681000Y354529D01*
X678384D01*
X678215Y355029D01*
X678397Y355170D01*
X679033Y355999D01*
X679433Y356964D01*
X679570Y358000D01*
X679433Y359036D01*
X679033Y360001D01*
X678397Y360830D01*
X677568Y361467D01*
X676603Y361866D01*
X675567Y362003D01*
X674531Y361866D01*
X673566Y361467D01*
X672737Y360830D01*
X672100Y360001D01*
X672019Y359805D01*
X671443Y359720D01*
X670529Y360633D01*
Y369367D01*
X672482Y371319D01*
X672711Y371284D01*
X672846Y370757D01*
X672737Y370673D01*
X672100Y369844D01*
X671701Y368879D01*
X671564Y367843D01*
X671701Y366807D01*
X672100Y365841D01*
X672737Y365012D01*
X673566Y364376D01*
X674531Y363976D01*
X675567Y363840D01*
X676603Y363976D01*
X677568Y364376D01*
X678397Y365012D01*
X679033Y365841D01*
X679229Y366313D01*
X684842D01*
X685428Y366430D01*
X685924Y366761D01*
X692081Y372919D01*
X692413Y373415D01*
X692529Y374000D01*
Y442828D01*
X692413Y443414D01*
X692081Y443910D01*
X685700Y450291D01*
X685204Y450623D01*
X684618Y450739D01*
X604424D01*
X601871Y453291D01*
X601375Y453623D01*
X600790Y453739D01*
X592400D01*
Y456710D01*
X588450D01*
X584500D01*
Y454460D01*
Y449460D01*
Y444460D01*
Y439460D01*
Y434460D01*
Y429460D01*
Y424460D01*
Y419460D01*
Y414460D01*
Y409460D01*
Y404460D01*
Y399460D01*
Y397316D01*
X584038Y397125D01*
X573081Y408081D01*
X572585Y408413D01*
X572000Y408529D01*
X530133D01*
X528529Y410134D01*
Y420000D01*
X528413Y420585D01*
X528081Y421081D01*
X525871Y423291D01*
X525375Y423623D01*
X524790Y423739D01*
X523500D01*
Y429460D01*
Y434460D01*
Y439460D01*
Y444460D01*
Y449460D01*
Y454460D01*
Y456710D01*
X515600D01*
Y454294D01*
X506950D01*
X505622Y455622D01*
X504878Y456119D01*
X504000Y456294D01*
X489405D01*
Y457953D01*
X488140D01*
Y460047D01*
X489405D01*
Y467953D01*
X488140D01*
Y470047D01*
X489405D01*
Y477953D01*
X479654D01*
Y474000D01*
Y470047D01*
X483552D01*
Y467953D01*
X479654D01*
Y464000D01*
Y460047D01*
X483552D01*
Y457953D01*
X479654D01*
Y454000D01*
Y450047D01*
X482150D01*
X482341Y449585D01*
X477467Y444711D01*
X474991D01*
Y448142D01*
X459999D01*
Y436693D01*
X465201D01*
Y425307D01*
X464527D01*
Y413858D01*
X468767D01*
X468951Y413415D01*
X468641Y413038D01*
X454340D01*
X450937Y416441D01*
X450275Y416883D01*
X449495Y417039D01*
X441495D01*
X440715Y416883D01*
X440053Y416441D01*
X440053Y416441D01*
X436650Y413038D01*
X429339Y413038D01*
X429339Y427500D01*
X429184Y428280D01*
X428742Y428942D01*
X428080Y429384D01*
X427300Y429539D01*
X420100Y429539D01*
X419320Y429384D01*
X418658Y428942D01*
X418216Y428280D01*
X418061Y427500D01*
Y426677D01*
X417995D01*
Y419378D01*
X415995D01*
Y426677D01*
X415919D01*
X415534Y427125D01*
Y435000D01*
X415379Y435780D01*
X414937Y436442D01*
X414937Y436442D01*
X412937Y438442D01*
X412937Y438442D01*
X412276Y438884D01*
X411495Y439039D01*
X396340Y439039D01*
X390937Y444442D01*
X390276Y444884D01*
X389495Y445039D01*
X371495D01*
X370715Y444884D01*
X370053Y444442D01*
X369611Y443780D01*
X369456Y443000D01*
Y430581D01*
X368994Y430390D01*
X368942Y430442D01*
X368942Y430442D01*
X368280Y430884D01*
X367500Y431039D01*
X340000Y431039D01*
X337500Y431039D01*
X336720Y430884D01*
X336058Y430442D01*
X335616Y429780D01*
X335461Y429000D01*
Y406130D01*
X334961Y405923D01*
X333442Y407442D01*
X332780Y407884D01*
X332000Y408039D01*
X320000Y408039D01*
X319220Y407884D01*
X318558Y407442D01*
X318558Y407442D01*
X316826Y405709D01*
X316325Y405916D01*
Y485674D01*
X494000D01*
Y460000D01*
X515117D01*
X515600Y459960D01*
Y457710D01*
X523500D01*
Y459960D01*
X523983Y460000D01*
X584017D01*
X584500Y459960D01*
Y457710D01*
X588450D01*
X592400D01*
Y459960D01*
X592883Y460000D01*
X614000D01*
Y485674D01*
X695675D01*
Y147326D01*
D02*
G37*
G36*
X687471Y441366D02*
Y434633D01*
X686367Y433529D01*
X684145D01*
X683953Y433993D01*
X683319Y434819D01*
X682493Y435453D01*
X681532Y435851D01*
X680500Y435987D01*
X679468Y435851D01*
X678507Y435453D01*
X677681Y434819D01*
X677047Y433993D01*
X676649Y433032D01*
X676513Y432000D01*
X676649Y430968D01*
X677047Y430007D01*
X677681Y429181D01*
X678507Y428547D01*
X679468Y428149D01*
X680500Y428013D01*
X681532Y428149D01*
X682493Y428547D01*
X683319Y429181D01*
X683953Y430007D01*
X684145Y430471D01*
X687000D01*
X687585Y430587D01*
X688081Y430919D01*
X689009Y431846D01*
X689471Y431654D01*
Y374634D01*
X684209Y369372D01*
X679229D01*
X679033Y369844D01*
X678397Y370673D01*
X678009Y370971D01*
X678179Y371471D01*
X682000D01*
X682585Y371587D01*
X683081Y371919D01*
X686581Y375419D01*
X686913Y375915D01*
X687029Y376500D01*
Y393500D01*
X686913Y394085D01*
X686581Y394581D01*
X683001Y398162D01*
X682505Y398493D01*
X681920Y398610D01*
X659633D01*
X652162Y406081D01*
X651666Y406413D01*
X651080Y406529D01*
X640846D01*
X640654Y406991D01*
X643618Y409955D01*
X643949Y410451D01*
X644066Y411036D01*
Y415244D01*
X645681D01*
X645819Y415244D01*
X646181D01*
X646319Y415244D01*
X652906D01*
Y417471D01*
X666500D01*
X667085Y417587D01*
X667582Y417919D01*
X670133Y420471D01*
X676855D01*
X677047Y420007D01*
X677681Y419181D01*
X678507Y418547D01*
X679468Y418149D01*
X680500Y418013D01*
X681532Y418149D01*
X682493Y418547D01*
X683319Y419181D01*
X683953Y420007D01*
X684351Y420968D01*
X684487Y422000D01*
X684351Y423032D01*
X683953Y423993D01*
X683319Y424819D01*
X682493Y425453D01*
X681532Y425851D01*
X680500Y425987D01*
X679468Y425851D01*
X678507Y425453D01*
X677681Y424819D01*
X677047Y423993D01*
X676855Y423529D01*
X669500D01*
X668915Y423413D01*
X668419Y423081D01*
X665867Y420529D01*
X652906D01*
Y422756D01*
X646319D01*
X646181Y422756D01*
X645819D01*
X645681Y422756D01*
X644029D01*
Y423867D01*
X646134Y425971D01*
X655500D01*
X656085Y426087D01*
X656581Y426419D01*
X670634Y440471D01*
X676855D01*
X677047Y440007D01*
X677681Y439181D01*
X678507Y438547D01*
X679468Y438149D01*
X680500Y438013D01*
X681532Y438149D01*
X682493Y438547D01*
X683319Y439181D01*
X683953Y440007D01*
X684351Y440968D01*
X684487Y442000D01*
X684351Y443032D01*
X683953Y443993D01*
X683346Y444784D01*
X683723Y445114D01*
X687471Y441366D01*
D02*
G37*
G36*
X624547Y438047D02*
X632453D01*
Y439149D01*
X632953Y439416D01*
X632971Y439404D01*
Y432156D01*
X632471Y432123D01*
X632440Y432354D01*
X632351Y433032D01*
X631953Y433993D01*
X631319Y434819D01*
X630493Y435453D01*
X629532Y435851D01*
X629000Y435921D01*
Y432000D01*
Y428079D01*
X629532Y428149D01*
X630493Y428547D01*
X631319Y429181D01*
X631953Y430007D01*
X632351Y430968D01*
X632440Y431646D01*
X632471Y431877D01*
X632971Y431844D01*
Y431000D01*
X633087Y430415D01*
X633419Y429919D01*
X634919Y428419D01*
X635415Y428087D01*
X636000Y427971D01*
X643154D01*
X643346Y427509D01*
X641419Y425581D01*
X641087Y425085D01*
X640971Y424500D01*
Y422756D01*
X639094D01*
Y415244D01*
X641007D01*
Y411670D01*
X637866Y408529D01*
X631291D01*
X631122Y409029D01*
X631319Y409181D01*
X631953Y410007D01*
X632351Y410968D01*
X632487Y412000D01*
X632351Y413032D01*
X631953Y413993D01*
X631319Y414819D01*
X630493Y415453D01*
X629532Y415851D01*
X628500Y415987D01*
X627468Y415851D01*
X626507Y415453D01*
X625681Y414819D01*
X625047Y413993D01*
X624855Y413529D01*
X619134D01*
X612199Y420464D01*
X612518Y420852D01*
X612915Y420587D01*
X613500Y420471D01*
X624855D01*
X625047Y420007D01*
X625681Y419181D01*
X626507Y418547D01*
X627468Y418149D01*
X628500Y418013D01*
X629532Y418149D01*
X630493Y418547D01*
X631319Y419181D01*
X631953Y420007D01*
X632351Y420968D01*
X632487Y422000D01*
X632351Y423032D01*
X631953Y423993D01*
X631319Y424819D01*
X630493Y425453D01*
X629532Y425851D01*
X628500Y425987D01*
X627468Y425851D01*
X626507Y425453D01*
X625681Y424819D01*
X625047Y423993D01*
X624855Y423529D01*
X614134D01*
X594371Y443291D01*
X593875Y443623D01*
X593290Y443739D01*
X592400D01*
Y445681D01*
X624547D01*
Y438047D01*
D02*
G37*
G36*
X369500Y427000D02*
X400176D01*
X400542Y426677D01*
Y420378D01*
X403609D01*
Y419378D01*
X404609D01*
Y412079D01*
X405500D01*
Y411000D01*
X393500Y401000D01*
Y383500D01*
X337500D01*
Y429000D01*
X340000Y429000D01*
X367500Y429000D01*
X369500Y427000D01*
D02*
G37*
G36*
X611262Y401919D02*
X611758Y401587D01*
X612343Y401471D01*
X649618D01*
X657090Y393999D01*
X657586Y393667D01*
X658172Y393551D01*
X678786D01*
X680971Y391367D01*
Y379633D01*
X680552Y379214D01*
X679229D01*
X679033Y379686D01*
X678397Y380515D01*
X677568Y381152D01*
X676603Y381551D01*
X675567Y381688D01*
X674531Y381551D01*
X673566Y381152D01*
X672737Y380515D01*
X672100Y379686D01*
X671701Y378721D01*
X671564Y377685D01*
X671701Y376649D01*
X672100Y375684D01*
X672603Y375029D01*
X672376Y374529D01*
X672000D01*
X671415Y374413D01*
X670919Y374081D01*
X667919Y371081D01*
X667587Y370585D01*
X667471Y370000D01*
Y360000D01*
X667587Y359415D01*
X667919Y358919D01*
X669919Y356919D01*
X670415Y356587D01*
X671000Y356471D01*
X671905D01*
X672100Y355999D01*
X672737Y355170D01*
X672919Y355029D01*
X672750Y354529D01*
X621846D01*
X621654Y354991D01*
X652661Y385998D01*
X671598D01*
Y383559D01*
X679535D01*
Y391496D01*
X671598D01*
Y389057D01*
X652028D01*
X651442Y388941D01*
X650946Y388609D01*
X618866Y356529D01*
X586592D01*
X586578Y356550D01*
X586845Y357050D01*
X595092D01*
Y364950D01*
X591671D01*
Y366008D01*
X596134Y370471D01*
X604748D01*
Y368244D01*
X611335D01*
X611472Y368244D01*
X611835D01*
X611973Y368244D01*
X613538D01*
X613594Y367744D01*
X613343Y367551D01*
X612926Y367008D01*
X612664Y366376D01*
X612574Y365697D01*
X612664Y365018D01*
X612926Y364386D01*
X613343Y363843D01*
X613886Y363426D01*
X614518Y363164D01*
X615197Y363074D01*
X615876Y363164D01*
X616508Y363426D01*
X617051Y363843D01*
X617468Y364386D01*
X617730Y365018D01*
X617819Y365697D01*
X617730Y366376D01*
X617468Y367008D01*
X617051Y367551D01*
X616800Y367744D01*
X616856Y368244D01*
X618559D01*
Y375756D01*
X611973D01*
X611835Y375756D01*
X611472D01*
X611335Y375756D01*
X609836D01*
Y379547D01*
X614500D01*
Y383500D01*
Y387453D01*
X606710D01*
X600871Y393291D01*
X600375Y393623D01*
X599790Y393739D01*
X592400D01*
Y395681D01*
X595735D01*
X596146Y395146D01*
X596689Y394729D01*
X597321Y394467D01*
X598000Y394378D01*
X598679Y394467D01*
X599311Y394729D01*
X599854Y395146D01*
X600271Y395689D01*
X600533Y396321D01*
X600622Y397000D01*
X600533Y397679D01*
X600271Y398311D01*
X599854Y398854D01*
X599382Y399217D01*
X599343Y399500D01*
X599382Y399783D01*
X599854Y400146D01*
X600271Y400689D01*
X600533Y401321D01*
X600622Y402000D01*
X600533Y402679D01*
X600271Y403311D01*
X599854Y403854D01*
X599382Y404217D01*
X599343Y404500D01*
X599382Y404783D01*
X599854Y405146D01*
X600271Y405689D01*
X600533Y406321D01*
X600622Y407000D01*
X600533Y407679D01*
X600271Y408311D01*
X599854Y408854D01*
X599382Y409217D01*
X599343Y409500D01*
X599382Y409783D01*
X599854Y410146D01*
X600271Y410689D01*
X600533Y411321D01*
X600605Y411868D01*
X601072Y412109D01*
X611262Y401919D01*
D02*
G37*
G36*
X498156Y418600D02*
Y406900D01*
X494835Y403579D01*
X494337Y402835D01*
X494163Y401957D01*
Y354256D01*
X493094D01*
Y352794D01*
X491450D01*
X486510Y357734D01*
X486271Y358311D01*
X485854Y358854D01*
X485311Y359271D01*
X484679Y359533D01*
X484000Y359622D01*
X483321Y359533D01*
X482689Y359271D01*
X482146Y358854D01*
X481729Y358311D01*
X481467Y357679D01*
X481378Y357000D01*
X481467Y356321D01*
X481729Y355689D01*
X482146Y355146D01*
X482689Y354729D01*
X483266Y354490D01*
X488878Y348878D01*
X489622Y348380D01*
X490500Y348206D01*
X493094D01*
Y346744D01*
X499819D01*
Y346744D01*
X500181D01*
Y346744D01*
X501817D01*
Y345953D01*
X497154D01*
Y342000D01*
Y338047D01*
X506906D01*
Y345953D01*
X504876D01*
Y346744D01*
X506906D01*
Y348971D01*
X507800D01*
X508385Y349087D01*
X508881Y349419D01*
X511940Y352477D01*
X512271Y352973D01*
X512388Y353558D01*
Y357050D01*
X515471D01*
Y333134D01*
X514366Y332029D01*
X512181D01*
Y338193D01*
X507819D01*
Y336458D01*
X497429D01*
X496844Y336342D01*
X496348Y336011D01*
X486367Y326029D01*
X476804D01*
X476581Y326568D01*
X475924Y327424D01*
X475068Y328081D01*
X474070Y328495D01*
X473000Y328635D01*
X471930Y328495D01*
X470932Y328081D01*
X470076Y327424D01*
X469419Y326568D01*
X469005Y325570D01*
X468865Y324500D01*
X469005Y323430D01*
X469419Y322432D01*
X470076Y321576D01*
X470932Y320919D01*
X471930Y320505D01*
X473000Y320365D01*
X474070Y320505D01*
X475068Y320919D01*
X475924Y321576D01*
X476581Y322432D01*
X476804Y322971D01*
X487000D01*
X487585Y323087D01*
X488081Y323419D01*
X498063Y333400D01*
X507819D01*
Y332029D01*
X502000D01*
X501415Y331913D01*
X500919Y331581D01*
X498919Y329581D01*
X498587Y329085D01*
X498471Y328500D01*
Y322000D01*
X498587Y321415D01*
X498919Y320919D01*
X499836Y320001D01*
X499645Y319539D01*
X467539D01*
Y360821D01*
X467611Y360929D01*
X467967Y361244D01*
X472401D01*
Y363471D01*
X474984D01*
Y362032D01*
X481176D01*
X481314Y362032D01*
X481676D01*
X481814Y362032D01*
X484342D01*
Y365000D01*
Y367969D01*
X481814D01*
X481676Y367969D01*
X481314D01*
X481176Y367969D01*
X474984D01*
Y366529D01*
X472401D01*
Y368756D01*
X467967D01*
X467611Y369071D01*
X467539Y369179D01*
Y379725D01*
X471022Y383646D01*
X471193Y383938D01*
X471382Y384220D01*
X471393Y384279D01*
X471424Y384332D01*
X471471Y384668D01*
X471537Y385000D01*
Y396153D01*
X482808Y407424D01*
X483180Y407732D01*
X488995D01*
Y411291D01*
Y414850D01*
X483539D01*
Y419150D01*
X495810D01*
Y420415D01*
X496341D01*
X498156Y418600D01*
D02*
G37*
G36*
X395495Y437000D02*
X411495Y437000D01*
X413495Y435000D01*
Y427125D01*
X413369Y426677D01*
X411302D01*
Y419378D01*
Y412079D01*
X412995D01*
X413495Y411631D01*
Y409505D01*
X421000Y402000D01*
X421000Y357000D01*
X399495Y357000D01*
X399495Y399000D01*
Y403000D01*
X407495Y409000D01*
Y410695D01*
X407531Y410815D01*
X407521Y410908D01*
X407539Y411000D01*
Y412079D01*
X409302D01*
Y419378D01*
Y426677D01*
X407495D01*
Y429000D01*
X400373D01*
X400176Y429039D01*
X371495D01*
Y431000D01*
Y443000D01*
X389495D01*
X395495Y437000D01*
D02*
G37*
G36*
X504378Y450378D02*
X505122Y449881D01*
X506000Y449706D01*
X515600D01*
Y448739D01*
X510010D01*
X509425Y448623D01*
X508929Y448291D01*
X506019Y445381D01*
X505687Y444885D01*
X505571Y444300D01*
Y370900D01*
X505687Y370315D01*
X506019Y369819D01*
X509329Y366508D01*
Y364950D01*
X505908D01*
Y357050D01*
X509329D01*
Y354192D01*
X507406Y352268D01*
X506906Y352476D01*
Y354256D01*
X500181D01*
Y354256D01*
X499819D01*
Y354256D01*
X498751D01*
Y401006D01*
X502072Y404328D01*
X502569Y405072D01*
X502744Y405950D01*
Y419550D01*
X502569Y420428D01*
X502072Y421172D01*
X498913Y424331D01*
X498169Y424828D01*
X497291Y425003D01*
X495810D01*
Y426268D01*
X491789D01*
Y429005D01*
X491615Y429883D01*
X491117Y430627D01*
X491089Y430646D01*
X488294Y433441D01*
Y450047D01*
X489405D01*
Y451706D01*
X503050D01*
X504378Y450378D01*
D02*
G37*
G36*
X578102Y391735D02*
X577935Y391235D01*
X532000D01*
Y387285D01*
Y383335D01*
X534971D01*
Y381604D01*
X534646Y381354D01*
X534229Y380811D01*
X533967Y380179D01*
X533878Y379500D01*
X533967Y378821D01*
X534229Y378189D01*
X534646Y377646D01*
X535189Y377229D01*
X535821Y376967D01*
X536500Y376878D01*
X537179Y376967D01*
X537811Y377229D01*
X538354Y377646D01*
X538771Y378189D01*
X539033Y378821D01*
X539122Y379500D01*
X539033Y380179D01*
X538771Y380811D01*
X538354Y381354D01*
X538029Y381604D01*
Y383335D01*
X569971D01*
Y334500D01*
X570087Y333915D01*
X570419Y333419D01*
X579346Y324491D01*
X579154Y324029D01*
X542134D01*
X538529Y327634D01*
Y354500D01*
X538413Y355085D01*
X538081Y355581D01*
X527529Y366133D01*
Y394500D01*
X527413Y395085D01*
X527081Y395581D01*
X524371Y398291D01*
X523875Y398623D01*
X523500Y398698D01*
Y400681D01*
X569157D01*
X578102Y391735D01*
D02*
G37*
G36*
X397456Y401053D02*
Y399000D01*
X397456Y357000D01*
X397611Y356220D01*
X398053Y355558D01*
X398715Y355116D01*
X399495Y354961D01*
X421000Y354961D01*
X421780Y355116D01*
X422442Y355558D01*
X422884Y356220D01*
X422961Y356606D01*
X423461Y356557D01*
Y353039D01*
X415000Y353039D01*
X414220Y352884D01*
X413558Y352442D01*
X410558Y349442D01*
X410116Y348780D01*
X409961Y348000D01*
Y319769D01*
X409850Y319315D01*
X409461Y319315D01*
X406791D01*
Y313000D01*
Y306685D01*
X409461D01*
X409850Y306685D01*
X409961Y306231D01*
Y304256D01*
X404845D01*
Y302029D01*
X404500D01*
X403915Y301913D01*
X403419Y301581D01*
X400315Y298478D01*
X398474D01*
Y300098D01*
X398305Y300949D01*
X397822Y301671D01*
X397779Y301700D01*
Y305588D01*
X397854Y305646D01*
X398271Y306189D01*
X398533Y306821D01*
X398622Y307500D01*
X398533Y308179D01*
X398271Y308811D01*
X397854Y309354D01*
X397311Y309771D01*
X396679Y310033D01*
X396000Y310122D01*
X395321Y310033D01*
X394689Y309771D01*
X394146Y309354D01*
X393729Y308811D01*
X393467Y308179D01*
X393378Y307500D01*
X393467Y306821D01*
X393729Y306189D01*
X394146Y305646D01*
X394689Y305229D01*
X394721Y305216D01*
Y301700D01*
X394677Y301671D01*
X394195Y300949D01*
X394026Y300098D01*
Y293799D01*
X394195Y292948D01*
X394677Y292227D01*
X395399Y291745D01*
X396250Y291575D01*
X397101Y291745D01*
X397822Y292227D01*
X398305Y292948D01*
X398474Y293799D01*
Y295419D01*
X400949D01*
X401534Y295536D01*
X402030Y295867D01*
X404383Y298220D01*
X404845Y298028D01*
Y296744D01*
X409961D01*
Y295256D01*
X404845D01*
Y293029D01*
X402500D01*
X401915Y292913D01*
X401419Y292581D01*
X399366Y290529D01*
X392779D01*
Y292198D01*
X392823Y292227D01*
X393305Y292948D01*
X393474Y293799D01*
Y300098D01*
X393305Y300949D01*
X392823Y301671D01*
X392101Y302153D01*
X391250Y302322D01*
X390399Y302153D01*
X389678Y301671D01*
X389195Y300949D01*
X389026Y300098D01*
Y293799D01*
X389195Y292948D01*
X389678Y292227D01*
X389721Y292198D01*
Y290529D01*
X387633D01*
X387529Y290634D01*
Y292031D01*
X387823Y292227D01*
X388305Y292948D01*
X388474Y293799D01*
Y300098D01*
X388305Y300949D01*
X387823Y301671D01*
X387779Y301700D01*
Y305588D01*
X387854Y305646D01*
X388271Y306189D01*
X388533Y306821D01*
X388622Y307500D01*
X388533Y308179D01*
X388271Y308811D01*
X387854Y309354D01*
X387311Y309771D01*
X386679Y310033D01*
X386000Y310122D01*
X385321Y310033D01*
X384689Y309771D01*
X384146Y309354D01*
X383783Y308882D01*
X383500Y308843D01*
X383217Y308882D01*
X382854Y309354D01*
X382311Y309771D01*
X381679Y310033D01*
X381000Y310122D01*
X380321Y310033D01*
X379689Y309771D01*
X379146Y309354D01*
X378729Y308811D01*
X378467Y308179D01*
X378378Y307500D01*
X378467Y306821D01*
X378729Y306189D01*
X379146Y305646D01*
X379689Y305229D01*
X379721Y305216D01*
Y301700D01*
X379678Y301671D01*
X379195Y300949D01*
X379026Y300098D01*
Y293799D01*
X379195Y292948D01*
X379678Y292227D01*
X379721Y292198D01*
Y288750D01*
X379837Y288165D01*
X380169Y287669D01*
X380846Y286991D01*
X380654Y286529D01*
X380000D01*
X379415Y286413D01*
X378919Y286081D01*
X375669Y282831D01*
X375337Y282335D01*
X375221Y281750D01*
Y263405D01*
X372994D01*
Y256819D01*
X372994Y256681D01*
X372994D01*
Y256319D01*
X372994D01*
Y253457D01*
X376750D01*
X380506D01*
Y254302D01*
X380968Y254493D01*
X383667Y251794D01*
Y248020D01*
X384221D01*
Y243384D01*
X380919Y240081D01*
X380587Y239585D01*
X380471Y239000D01*
Y235874D01*
X376079D01*
Y229937D01*
X387921D01*
Y235874D01*
X383529D01*
Y238367D01*
X386831Y241669D01*
X387163Y242165D01*
X387279Y242750D01*
Y248020D01*
X387833D01*
Y250345D01*
X399667D01*
Y248020D01*
X401827D01*
X402019Y247558D01*
X400919Y246457D01*
X400587Y245961D01*
X400471Y245376D01*
Y235874D01*
X396079D01*
Y229937D01*
X407921D01*
Y235874D01*
X403529D01*
Y244742D01*
X409499Y250712D01*
X409961Y250521D01*
Y201565D01*
X409461Y201414D01*
X409442Y201442D01*
X405442Y205442D01*
X404780Y205884D01*
X404000Y206039D01*
X336845Y206039D01*
X336039Y206845D01*
Y226009D01*
X336539Y226217D01*
X342378Y220378D01*
X343122Y219881D01*
X344000Y219706D01*
X344724D01*
X345027Y218972D01*
X345756Y218023D01*
X346702Y217297D01*
Y215004D01*
X346877Y214126D01*
X347374Y213382D01*
X351378Y209378D01*
X352122Y208880D01*
X353000Y208706D01*
X399000D01*
X399878Y208880D01*
X400622Y209378D01*
X403622Y212378D01*
X404119Y213122D01*
X404294Y214000D01*
Y218126D01*
X407921D01*
Y224063D01*
X396079D01*
Y218126D01*
X399706D01*
Y214950D01*
X398050Y213294D01*
X353950D01*
X351290Y215954D01*
Y217297D01*
X352236Y218023D01*
X352965Y218972D01*
X353422Y220078D01*
X353579Y221264D01*
X353422Y222450D01*
X352965Y223555D01*
X352236Y224504D01*
X351287Y225232D01*
X350182Y225690D01*
X348996Y225846D01*
X347810Y225690D01*
X346705Y225232D01*
X345756Y224504D01*
X345595Y224294D01*
X344950D01*
X340294Y228950D01*
Y236050D01*
X345950Y241706D01*
X355000D01*
X355878Y241880D01*
X356622Y242378D01*
X363622Y249378D01*
X364120Y250122D01*
X364294Y251000D01*
Y292000D01*
X364120Y292878D01*
X363622Y293622D01*
X357358Y299886D01*
X356614Y300383D01*
X355736Y300558D01*
X352462D01*
X351736Y301504D01*
X350787Y302232D01*
X349682Y302690D01*
X348496Y302846D01*
X347310Y302690D01*
X346205Y302232D01*
X345256Y301504D01*
X344539Y300570D01*
X344489Y300565D01*
X344039Y300683D01*
Y310845D01*
X344489Y310963D01*
X344539Y310957D01*
X345256Y310023D01*
X346205Y309295D01*
X347310Y308837D01*
X348496Y308681D01*
X349682Y308837D01*
X350787Y309295D01*
X351736Y310023D01*
X352462Y310970D01*
X358786D01*
X365706Y304050D01*
Y248950D01*
X355313Y238558D01*
X352962D01*
X352236Y239504D01*
X351287Y240232D01*
X350182Y240690D01*
X348996Y240846D01*
X347810Y240690D01*
X346705Y240232D01*
X345756Y239504D01*
X345027Y238555D01*
X344570Y237450D01*
X344414Y236264D01*
X344570Y235078D01*
X345027Y233973D01*
X345756Y233024D01*
X346705Y232295D01*
X347810Y231837D01*
X348996Y231681D01*
X350182Y231837D01*
X351287Y232295D01*
X352236Y233024D01*
X352962Y233970D01*
X355786D01*
X370378Y219378D01*
X371122Y218881D01*
X372000Y218706D01*
X376079D01*
Y218126D01*
X387921D01*
Y224063D01*
X376079D01*
Y223294D01*
X372950D01*
X359744Y236500D01*
X369622Y246378D01*
X370120Y247122D01*
X370294Y248000D01*
Y305000D01*
X370120Y305878D01*
X369622Y306622D01*
X361358Y314886D01*
X360614Y315383D01*
X359736Y315558D01*
X352462D01*
X351736Y316504D01*
X350787Y317232D01*
X349682Y317690D01*
X348496Y317846D01*
X347310Y317690D01*
X346205Y317232D01*
X345256Y316504D01*
X344539Y315570D01*
X344489Y315565D01*
X344039Y315683D01*
Y325845D01*
X344489Y325963D01*
X344539Y325957D01*
X345256Y325024D01*
X346205Y324295D01*
X347310Y323837D01*
X347996Y323747D01*
Y328264D01*
Y332781D01*
X347310Y332690D01*
X346205Y332232D01*
X345256Y331504D01*
X344539Y330570D01*
X344489Y330565D01*
X344039Y330683D01*
Y333961D01*
X360000Y333961D01*
X360780Y334116D01*
X361442Y334558D01*
X361884Y335220D01*
X362039Y336000D01*
Y380000D01*
X361884Y380780D01*
X361763Y380961D01*
X362031Y381461D01*
X393500D01*
X394280Y381616D01*
X394942Y382058D01*
X395384Y382720D01*
X395539Y383500D01*
Y400045D01*
X397003Y401265D01*
X397456Y401053D01*
D02*
G37*
G36*
X574971Y351500D02*
X575087Y350915D01*
X575419Y350419D01*
X581419Y344419D01*
X581915Y344087D01*
X582500Y343971D01*
X609094D01*
Y341744D01*
X615819D01*
Y341744D01*
X616181D01*
Y341744D01*
X618014D01*
Y339000D01*
X616638D01*
X616500Y339000D01*
X616138D01*
X616000Y339000D01*
X613472D01*
Y336032D01*
Y333063D01*
X616000D01*
X616138Y333063D01*
X616500D01*
X616638Y333063D01*
X622831D01*
Y339000D01*
X621073D01*
Y341744D01*
X622905D01*
Y346561D01*
X623367Y346752D01*
X632886Y337233D01*
X633383Y336902D01*
X633968Y336786D01*
X671905D01*
X672100Y336314D01*
X672737Y335485D01*
X673566Y334848D01*
X674531Y334449D01*
X675567Y334312D01*
X676603Y334449D01*
X677568Y334848D01*
X678397Y335485D01*
X679033Y336314D01*
X679433Y337279D01*
X679570Y338315D01*
X679433Y339351D01*
X679033Y340316D01*
X678397Y341145D01*
X677568Y341781D01*
X676603Y342181D01*
X675567Y342318D01*
X674531Y342181D01*
X673566Y341781D01*
X672737Y341145D01*
X672100Y340316D01*
X671905Y339844D01*
X634601D01*
X623437Y351009D01*
X623628Y351471D01*
X672588D01*
X672696Y351151D01*
X672723Y350971D01*
X672100Y350159D01*
X671701Y349194D01*
X671630Y348657D01*
X675567D01*
X679504D01*
X679433Y349194D01*
X679033Y350159D01*
X678410Y350971D01*
X678437Y351151D01*
X678546Y351471D01*
X680367D01*
X682471Y349366D01*
Y313846D01*
X682009Y313654D01*
X669581Y326081D01*
X669085Y326413D01*
X668500Y326529D01*
X581634D01*
X573029Y335134D01*
Y383335D01*
X574971D01*
Y351500D01*
D02*
G37*
G36*
X427300Y410999D02*
X437495Y410999D01*
X441495Y414999D01*
X449495D01*
X453495Y410999D01*
X469499D01*
X471500Y413000D01*
Y427000D01*
X481500D01*
Y409000D01*
X469498Y396998D01*
Y385000D01*
X465500Y380500D01*
Y369179D01*
X465314Y368756D01*
X465000Y368756D01*
X462452D01*
Y365000D01*
Y361244D01*
X465000D01*
X465314Y361244D01*
X465500Y360821D01*
Y317500D01*
X628500Y317500D01*
X632000Y314000D01*
X632000Y308000D01*
X629000Y305000D01*
X624154D01*
X623991Y305125D01*
X622982Y305543D01*
X621898Y305686D01*
X620815Y305543D01*
X619805Y305125D01*
X619643Y305000D01*
X586154D01*
X585991Y305125D01*
X584982Y305543D01*
X583898Y305686D01*
X582815Y305543D01*
X581806Y305125D01*
X581643Y305000D01*
X548154D01*
X547991Y305125D01*
X546982Y305543D01*
X545898Y305686D01*
X544815Y305543D01*
X543806Y305125D01*
X543643Y305000D01*
X504000D01*
X504000Y287366D01*
X500874D01*
Y285283D01*
Y283201D01*
X504000D01*
Y279756D01*
X498095D01*
Y277529D01*
X498000D01*
X497415Y277413D01*
X496919Y277081D01*
X495450Y275613D01*
X494988Y275804D01*
Y277335D01*
X484760D01*
Y269665D01*
X494988D01*
Y271971D01*
X495500D01*
X496085Y272087D01*
X496581Y272419D01*
X497633Y273470D01*
X498095Y273278D01*
Y272244D01*
X504000D01*
X504000Y257866D01*
X500874D01*
Y255784D01*
Y253701D01*
X504000D01*
Y250256D01*
X498095D01*
Y248029D01*
X497587D01*
X497001Y247913D01*
X496505Y247581D01*
X495450Y246526D01*
X494988Y246718D01*
Y247335D01*
X484760D01*
Y239665D01*
X494988D01*
Y242051D01*
X495172Y242087D01*
X495668Y242419D01*
X497633Y244383D01*
X498095Y244192D01*
Y242744D01*
X504000D01*
Y227866D01*
X500874D01*
Y225783D01*
Y223701D01*
X504000D01*
Y220256D01*
X498095D01*
Y217949D01*
X497915Y217913D01*
X497419Y217581D01*
X495450Y215613D01*
X494988Y215804D01*
Y217335D01*
X484760D01*
Y209665D01*
X494988D01*
Y211971D01*
X495500D01*
X496085Y212087D01*
X496581Y212419D01*
X497633Y213470D01*
X498095Y213278D01*
Y212744D01*
X504000D01*
X504000Y194000D01*
X500000Y190000D01*
X475000Y190000D01*
Y171000D01*
X462000Y171000D01*
X462000Y190000D01*
X416000Y190000D01*
X412000Y194000D01*
Y253213D01*
X416059Y257272D01*
X419833D01*
Y264980D01*
X415667D01*
Y262655D01*
X412000D01*
Y269744D01*
X414793D01*
Y273500D01*
Y277256D01*
X412000D01*
Y278744D01*
X414793D01*
Y282500D01*
Y286256D01*
X412000D01*
Y287744D01*
X414793D01*
Y291500D01*
Y295256D01*
X412000D01*
Y296744D01*
X414793D01*
Y300500D01*
Y304256D01*
X412000D01*
Y348000D01*
X415000Y351000D01*
X425500Y351000D01*
Y401500D01*
X420100Y406900D01*
X420100Y427500D01*
X427300Y427500D01*
X427300Y410999D01*
D02*
G37*
G36*
X541839Y302461D02*
X541713Y301500D01*
X541855Y300417D01*
X542273Y299407D01*
X542939Y298540D01*
X543806Y297875D01*
X544369Y297642D01*
Y292532D01*
X538552Y286714D01*
X523181D01*
Y288449D01*
X518819D01*
Y286813D01*
X513480D01*
Y287366D01*
X506039D01*
X506039Y302961D01*
X541540D01*
X541839Y302461D01*
D02*
G37*
G36*
X579839D02*
X579713Y301500D01*
X579855Y300417D01*
X580273Y299407D01*
X580939Y298540D01*
X581806Y297875D01*
X582369Y297642D01*
Y292032D01*
X574217Y283879D01*
X541350D01*
X540765Y283763D01*
X540269Y283431D01*
X529919Y273081D01*
X529587Y272585D01*
X529471Y272000D01*
Y259633D01*
X527052Y257214D01*
X523181D01*
Y258949D01*
X518819D01*
Y257313D01*
X513480D01*
Y257866D01*
X506039D01*
X506039Y272244D01*
X511905D01*
Y274471D01*
X515079D01*
Y273063D01*
X519441D01*
Y279591D01*
X515079D01*
Y277529D01*
X511905D01*
Y279756D01*
X506039D01*
Y283201D01*
X513480D01*
Y283754D01*
X518819D01*
Y281921D01*
X523181D01*
Y283656D01*
X539185D01*
X539770Y283772D01*
X540267Y284104D01*
X546980Y290817D01*
X547311Y291313D01*
X547428Y291898D01*
Y297642D01*
X547991Y297875D01*
X548858Y298540D01*
X549523Y299407D01*
X549942Y300417D01*
X550084Y301500D01*
X549958Y302461D01*
X550257Y302961D01*
X579540D01*
X579839Y302461D01*
D02*
G37*
G36*
X617839D02*
X617713Y301500D01*
X617855Y300417D01*
X618273Y299407D01*
X618939Y298540D01*
X619805Y297875D01*
X620369Y297642D01*
Y291032D01*
X610866Y281529D01*
X576846D01*
X576654Y281991D01*
X584980Y290317D01*
X585311Y290813D01*
X585428Y291398D01*
Y297642D01*
X585991Y297875D01*
X586858Y298540D01*
X587523Y299407D01*
X587942Y300417D01*
X588084Y301500D01*
X587958Y302461D01*
X588257Y302961D01*
X617540D01*
X617839Y302461D01*
D02*
G37*
G36*
X663471Y315367D02*
Y282000D01*
X663587Y281415D01*
X663919Y280919D01*
X665840Y278997D01*
X666336Y278666D01*
X666921Y278549D01*
X667771D01*
X667967Y278077D01*
X668603Y277248D01*
X669432Y276612D01*
X670397Y276212D01*
X671433Y276076D01*
X672469Y276212D01*
X673434Y276612D01*
X674263Y277248D01*
X674471Y277518D01*
X674971Y277349D01*
Y274205D01*
X667465D01*
Y272530D01*
X644714D01*
X639294Y277950D01*
Y308000D01*
X639119Y308878D01*
X638622Y309622D01*
X635122Y313122D01*
X634378Y313619D01*
X634344Y313626D01*
X634039Y314000D01*
X633884Y314780D01*
X633442Y315442D01*
X633442Y315442D01*
X630875Y318009D01*
X631067Y318471D01*
X660366D01*
X663471Y315367D01*
D02*
G37*
G36*
X360000Y336000D02*
X342000Y336000D01*
Y289000D01*
X355000D01*
Y258000D01*
X336000Y258000D01*
Y336000D01*
Y380000D01*
X360000D01*
Y336000D01*
D02*
G37*
G36*
X531471Y256654D02*
Y231633D01*
X527052Y227214D01*
X523181D01*
Y228949D01*
X518819D01*
Y227313D01*
X513480D01*
Y227866D01*
X506039D01*
Y242744D01*
X511905D01*
Y244971D01*
X515079D01*
Y243563D01*
X519441D01*
Y250091D01*
X515079D01*
Y248029D01*
X511905D01*
Y250256D01*
X506039D01*
Y253701D01*
X513480D01*
Y254254D01*
X518819D01*
Y252421D01*
X523181D01*
Y254156D01*
X527685D01*
X528270Y254272D01*
X528766Y254604D01*
X531009Y256846D01*
X531471Y256654D01*
D02*
G37*
G36*
X642142Y268614D02*
X642886Y268117D01*
X643764Y267942D01*
X667465D01*
Y266268D01*
X674971D01*
Y256134D01*
X661919Y243081D01*
X661587Y242585D01*
X661471Y242000D01*
Y221000D01*
X661587Y220415D01*
X661919Y219919D01*
X665308Y216529D01*
X665804Y216197D01*
X666390Y216081D01*
X667465D01*
Y214530D01*
X646714D01*
X639294Y221950D01*
Y270808D01*
X639756Y271000D01*
X642142Y268614D01*
D02*
G37*
G36*
X332000Y406000D02*
X334000Y404000D01*
Y380197D01*
X333961Y380000D01*
Y336000D01*
Y258000D01*
X334000Y257803D01*
Y206000D01*
X336000Y204000D01*
X404000Y204000D01*
X408000Y200000D01*
X408000Y191000D01*
X413000Y186000D01*
X459961Y186000D01*
X459961Y171000D01*
X460000Y170803D01*
Y168000D01*
X638000Y168000D01*
X640000Y166000D01*
X640000Y156000D01*
X638000Y154000D01*
X368000Y154000D01*
X362000Y160000D01*
X362000Y182000D01*
X356000Y188000D01*
X324000Y188000D01*
X318000Y194000D01*
Y404000D01*
X320000Y406000D01*
X332000Y406000D01*
D02*
G37*
%LPC*%
G36*
X468500Y477464D02*
Y474500D01*
X471464D01*
X471410Y474914D01*
X471057Y475765D01*
X470496Y476496D01*
X469765Y477057D01*
X468914Y477410D01*
X468500Y477464D01*
D02*
G37*
G36*
X467500D02*
X467086Y477410D01*
X466235Y477057D01*
X465504Y476496D01*
X464943Y475765D01*
X464590Y474914D01*
X464536Y474500D01*
X467500D01*
Y477464D01*
D02*
G37*
G36*
X478653Y477953D02*
X475595D01*
Y474500D01*
X478653D01*
Y477953D01*
D02*
G37*
G36*
X471464Y473500D02*
X468500D01*
Y470536D01*
X468914Y470590D01*
X469765Y470943D01*
X470496Y471504D01*
X471057Y472235D01*
X471410Y473086D01*
X471464Y473500D01*
D02*
G37*
G36*
X467500D02*
X464536D01*
X464590Y473086D01*
X464943Y472235D01*
X465504Y471504D01*
X466235Y470943D01*
X467086Y470590D01*
X467500Y470536D01*
Y473500D01*
D02*
G37*
G36*
X478653Y473500D02*
X475595D01*
Y470047D01*
X478653D01*
Y473500D01*
D02*
G37*
G36*
Y467953D02*
X475595D01*
Y464500D01*
X478653D01*
Y467953D01*
D02*
G37*
G36*
X388991Y468405D02*
X381995D01*
Y463181D01*
X388991D01*
Y468405D01*
D02*
G37*
G36*
X380995D02*
X373999D01*
Y463181D01*
X380995D01*
Y468405D01*
D02*
G37*
G36*
X478653Y463500D02*
X475595D01*
Y460047D01*
X478653D01*
Y463500D01*
D02*
G37*
G36*
X388991Y462181D02*
X381995D01*
Y456957D01*
X388991D01*
Y462181D01*
D02*
G37*
G36*
X380995D02*
X373999D01*
Y456957D01*
X380995D01*
Y462181D01*
D02*
G37*
G36*
X478653Y457953D02*
X475595D01*
Y454500D01*
X478653D01*
Y457953D01*
D02*
G37*
G36*
Y453500D02*
X475595D01*
Y450047D01*
X478653D01*
Y453500D01*
D02*
G37*
G36*
X554100Y435070D02*
Y432820D01*
X556350D01*
Y435070D01*
X554100D01*
D02*
G37*
G36*
X542080D02*
X539830D01*
Y432820D01*
X542080D01*
Y435070D01*
D02*
G37*
G36*
X448095Y427800D02*
X445995D01*
Y424300D01*
X448095D01*
Y427800D01*
D02*
G37*
G36*
X444995D02*
X442895D01*
Y424300D01*
X444995D01*
Y427800D01*
D02*
G37*
G36*
X461409Y425307D02*
X458940D01*
Y420083D01*
X461409D01*
Y425307D01*
D02*
G37*
G36*
X457940D02*
X455472D01*
Y420083D01*
X457940D01*
Y425307D01*
D02*
G37*
G36*
X448095Y423300D02*
X445995D01*
Y419800D01*
X448095D01*
Y423300D01*
D02*
G37*
G36*
X444995D02*
X442895D01*
Y419800D01*
X444995D01*
Y423300D01*
D02*
G37*
G36*
X334165Y423906D02*
X329137D01*
Y418878D01*
X334165D01*
Y423906D01*
D02*
G37*
G36*
X328137D02*
X323109D01*
Y418878D01*
X328137D01*
Y423906D01*
D02*
G37*
G36*
X556350Y420800D02*
X554100D01*
Y418550D01*
X556350D01*
Y420800D01*
D02*
G37*
G36*
X542080D02*
X539830D01*
Y418550D01*
X542080D01*
Y420800D01*
D02*
G37*
G36*
X545340Y435070D02*
X544840Y435070D01*
X543080D01*
Y432320D01*
X542580D01*
Y431820D01*
X539830D01*
Y430060D01*
X539830Y429570D01*
X539830Y429070D01*
Y427310D01*
X542580D01*
Y426310D01*
X539830D01*
Y424550D01*
X539830Y424060D01*
X539830Y423560D01*
Y421800D01*
X542580D01*
Y421300D01*
X543080D01*
Y418550D01*
X544840D01*
X545330Y418550D01*
X545830Y418550D01*
X547590D01*
Y421300D01*
X548590D01*
Y418550D01*
X550350D01*
X550840Y418550D01*
X551340Y418550D01*
X553100D01*
Y421300D01*
X553600D01*
Y421800D01*
X556350D01*
Y423560D01*
X556350Y424050D01*
X556350Y424550D01*
Y426310D01*
X553600D01*
Y427310D01*
X556350D01*
Y429070D01*
X556350Y429560D01*
X556350Y430060D01*
Y431820D01*
X553600D01*
Y432320D01*
X553100D01*
Y435070D01*
X551340D01*
X550850Y435070D01*
X550350Y435070D01*
X548590D01*
Y432320D01*
X547590D01*
Y435070D01*
X545340D01*
D02*
G37*
G36*
X461409Y419083D02*
X458940D01*
Y413858D01*
X461409D01*
Y419083D01*
D02*
G37*
G36*
X457940D02*
X455472D01*
Y413858D01*
X457940D01*
Y419083D01*
D02*
G37*
G36*
X334165Y417878D02*
X329137D01*
Y412850D01*
X334165D01*
Y417878D01*
D02*
G37*
G36*
X328137D02*
X323109D01*
Y412850D01*
X328137D01*
Y417878D01*
D02*
G37*
G36*
X545898Y245686D02*
X544815Y245543D01*
X543806Y245125D01*
X542939Y244460D01*
X542273Y243593D01*
X541855Y242583D01*
X541713Y241500D01*
X541855Y240417D01*
X542273Y239407D01*
X542939Y238540D01*
X543706Y237951D01*
Y234450D01*
X527421Y218166D01*
X527108Y218204D01*
X526921Y218261D01*
Y220091D01*
X525240D01*
Y216827D01*
Y213563D01*
X526706D01*
Y187646D01*
X526881Y186768D01*
X527378Y186023D01*
X533106Y180295D01*
Y174453D01*
X542193D01*
Y183539D01*
X536351D01*
X531294Y188596D01*
Y209047D01*
X534650D01*
Y213000D01*
Y216953D01*
X533350D01*
X533159Y217415D01*
X547622Y231878D01*
X548119Y232622D01*
X548294Y233500D01*
Y238107D01*
X548858Y238540D01*
X549523Y239407D01*
X549942Y240417D01*
X550084Y241500D01*
X549942Y242583D01*
X549523Y243593D01*
X548858Y244460D01*
X547991Y245125D01*
X546982Y245543D01*
X545898Y245686D01*
D02*
G37*
G36*
X524240Y220091D02*
X522559D01*
Y217327D01*
X524240D01*
Y220091D01*
D02*
G37*
G36*
Y216327D02*
X522559D01*
Y213563D01*
X524240D01*
Y216327D01*
D02*
G37*
G36*
X615102Y216953D02*
X611650D01*
Y213500D01*
X615102D01*
Y216953D01*
D02*
G37*
G36*
X577102D02*
X573650D01*
Y213500D01*
X577102D01*
Y216953D01*
D02*
G37*
G36*
X539102D02*
X535650D01*
Y213500D01*
X539102D01*
Y216953D01*
D02*
G37*
G36*
X615102Y212500D02*
X611650D01*
Y209047D01*
X615102D01*
Y212500D01*
D02*
G37*
G36*
X577102D02*
X573650D01*
Y209047D01*
X577102D01*
Y212500D01*
D02*
G37*
G36*
X539102D02*
X535650D01*
Y209047D01*
X539102D01*
Y212500D01*
D02*
G37*
G36*
X498736Y183513D02*
Y179496D01*
X502753D01*
X502663Y180182D01*
X502205Y181287D01*
X501476Y182236D01*
X500527Y182965D01*
X499422Y183422D01*
X498736Y183513D01*
D02*
G37*
G36*
X497736D02*
X497050Y183422D01*
X495945Y182965D01*
X494996Y182236D01*
X494268Y181287D01*
X493810Y180182D01*
X493719Y179496D01*
X497736D01*
Y183513D01*
D02*
G37*
G36*
X502753Y178496D02*
X498736D01*
Y174479D01*
X499422Y174570D01*
X500527Y175028D01*
X501476Y175756D01*
X502205Y176705D01*
X502663Y177810D01*
X502753Y178496D01*
D02*
G37*
G36*
X497736D02*
X493719D01*
X493810Y177810D01*
X494268Y176705D01*
X494996Y175756D01*
X495945Y175028D01*
X497050Y174570D01*
X497736Y174479D01*
Y178496D01*
D02*
G37*
G36*
X621898Y245686D02*
X620815Y245543D01*
X619805Y245125D01*
X618939Y244460D01*
X618273Y243593D01*
X617855Y242583D01*
X617713Y241500D01*
X617855Y240417D01*
X618273Y239407D01*
X618939Y238540D01*
X619604Y238029D01*
Y234349D01*
X614878Y229622D01*
X603378Y218122D01*
X602881Y217378D01*
X602706Y216500D01*
Y187646D01*
X602881Y186768D01*
X603378Y186023D01*
X609106Y180295D01*
Y174453D01*
X618193D01*
Y183539D01*
X612351D01*
X607294Y188596D01*
Y209047D01*
X610650D01*
Y213000D01*
Y216953D01*
X609350D01*
X609159Y217415D01*
X618122Y226378D01*
X623521Y231776D01*
X624018Y232521D01*
X624192Y233398D01*
Y238029D01*
X624858Y238540D01*
X625523Y239407D01*
X625942Y240417D01*
X626084Y241500D01*
X625942Y242583D01*
X625523Y243593D01*
X624858Y244460D01*
X623991Y245125D01*
X622982Y245543D01*
X621898Y245686D01*
D02*
G37*
G36*
X583898D02*
X582815Y245543D01*
X581806Y245125D01*
X580939Y244460D01*
X580273Y243593D01*
X579855Y242583D01*
X579713Y241500D01*
X579855Y240417D01*
X580273Y239407D01*
X580939Y238540D01*
X581604Y238029D01*
Y234849D01*
X565378Y218622D01*
X564881Y217878D01*
X564706Y217000D01*
Y187646D01*
X564881Y186768D01*
X565378Y186023D01*
X571106Y180295D01*
Y174453D01*
X580193D01*
Y183539D01*
X574351D01*
X569294Y188596D01*
Y209047D01*
X572650D01*
Y213000D01*
Y216953D01*
X570850D01*
X570659Y217415D01*
X585521Y232276D01*
X586018Y233020D01*
X586193Y233898D01*
Y238029D01*
X586858Y238540D01*
X587523Y239407D01*
X587942Y240417D01*
X588084Y241500D01*
X587942Y242583D01*
X587523Y243593D01*
X586858Y244460D01*
X585991Y245125D01*
X584982Y245543D01*
X583898Y245686D01*
D02*
G37*
G36*
X483236Y183579D02*
X482050Y183422D01*
X480945Y182965D01*
X479996Y182236D01*
X479268Y181287D01*
X478810Y180182D01*
X478654Y178996D01*
X478810Y177810D01*
X479268Y176705D01*
X479996Y175756D01*
X480945Y175028D01*
X482050Y174570D01*
X483236Y174414D01*
X484422Y174570D01*
X485528Y175028D01*
X486477Y175756D01*
X487205Y176705D01*
X487663Y177810D01*
X487819Y178996D01*
X487663Y180182D01*
X487205Y181287D01*
X486477Y182236D01*
X485528Y182965D01*
X484422Y183422D01*
X483236Y183579D01*
D02*
G37*
G36*
X684453Y415953D02*
X681000D01*
Y412500D01*
X684453D01*
Y415953D01*
D02*
G37*
G36*
X680000D02*
X676547D01*
Y412500D01*
X680000D01*
Y415953D01*
D02*
G37*
G36*
X684453Y411500D02*
X681000D01*
Y408047D01*
X684453D01*
Y411500D01*
D02*
G37*
G36*
X680000D02*
X676547D01*
Y408047D01*
X680000D01*
Y411500D01*
D02*
G37*
G36*
X628000Y435921D02*
X627468Y435851D01*
X626507Y435453D01*
X625681Y434819D01*
X625047Y433993D01*
X624649Y433032D01*
X624579Y432500D01*
X628000D01*
Y435921D01*
D02*
G37*
G36*
Y431500D02*
X624579D01*
X624649Y430968D01*
X625047Y430007D01*
X625681Y429181D01*
X626507Y428547D01*
X627468Y428149D01*
X628000Y428079D01*
Y431500D01*
D02*
G37*
G36*
X351881Y423906D02*
X347354D01*
Y419378D01*
X351881D01*
Y423906D01*
D02*
G37*
G36*
X345354D02*
X340826D01*
Y419378D01*
X345354D01*
Y423906D01*
D02*
G37*
G36*
X351881Y417378D02*
X347354D01*
Y412850D01*
X351881D01*
Y417378D01*
D02*
G37*
G36*
X345354D02*
X340826D01*
Y412850D01*
X345354D01*
Y417378D01*
D02*
G37*
G36*
X402609Y418378D02*
X400542D01*
Y412079D01*
X402609D01*
Y418378D01*
D02*
G37*
G36*
X379645Y408835D02*
X376495D01*
Y400567D01*
X379645D01*
Y408835D01*
D02*
G37*
G36*
X374495D02*
X371346D01*
Y400567D01*
X374495D01*
Y408835D01*
D02*
G37*
G36*
X351295Y401900D02*
X347795D01*
Y395000D01*
X351295D01*
Y401900D01*
D02*
G37*
G36*
X345795D02*
X342295D01*
Y395000D01*
X345795D01*
Y401900D01*
D02*
G37*
G36*
X379645Y398567D02*
X376495D01*
Y390299D01*
X379645D01*
Y398567D01*
D02*
G37*
G36*
X374495D02*
X371346D01*
Y390299D01*
X374495D01*
Y398567D01*
D02*
G37*
G36*
X351295Y393000D02*
X347795D01*
Y386100D01*
X351295D01*
Y393000D01*
D02*
G37*
G36*
X345795D02*
X342295D01*
Y386100D01*
X345795D01*
Y393000D01*
D02*
G37*
G36*
X631500Y396964D02*
Y394000D01*
X634464D01*
X634410Y394414D01*
X634057Y395265D01*
X633496Y395996D01*
X632765Y396557D01*
X631914Y396910D01*
X631500Y396964D01*
D02*
G37*
G36*
X630500D02*
X630086Y396910D01*
X629235Y396557D01*
X628504Y395996D01*
X627943Y395265D01*
X627590Y394414D01*
X627536Y394000D01*
X630500D01*
Y396964D01*
D02*
G37*
G36*
X634464Y393000D02*
X631500D01*
Y390036D01*
X631914Y390090D01*
X632765Y390443D01*
X633496Y391004D01*
X634057Y391735D01*
X634410Y392586D01*
X634464Y393000D01*
D02*
G37*
G36*
X630500D02*
X627536D01*
X627590Y392586D01*
X627943Y391735D01*
X628504Y391004D01*
X629235Y390443D01*
X630086Y390090D01*
X630500Y390036D01*
Y393000D01*
D02*
G37*
G36*
X618559Y387453D02*
X615500D01*
Y384000D01*
X618559D01*
Y387453D01*
D02*
G37*
G36*
Y383000D02*
X615500D01*
Y379547D01*
X618559D01*
Y383000D01*
D02*
G37*
G36*
X495810Y414850D02*
X489995D01*
Y411791D01*
X495810D01*
Y414850D01*
D02*
G37*
G36*
Y410791D02*
X489995D01*
Y407732D01*
X495810D01*
Y410791D01*
D02*
G37*
G36*
X491260Y393150D02*
X482492D01*
Y389500D01*
X491260D01*
Y393150D01*
D02*
G37*
G36*
X481492D02*
X472724D01*
Y389500D01*
X481492D01*
Y393150D01*
D02*
G37*
G36*
X491260Y388500D02*
X482492D01*
Y384850D01*
X491260D01*
Y388500D01*
D02*
G37*
G36*
X481492D02*
X472724D01*
Y384850D01*
X481492D01*
Y388500D01*
D02*
G37*
G36*
X485342Y367969D02*
Y365500D01*
X488007D01*
Y367969D01*
X485342D01*
D02*
G37*
G36*
X488007Y364500D02*
X485342D01*
Y362032D01*
X488007D01*
Y364500D01*
D02*
G37*
G36*
X496153Y345953D02*
X493094D01*
Y342500D01*
X496153D01*
Y345953D01*
D02*
G37*
G36*
Y341500D02*
X493094D01*
Y338047D01*
X496153D01*
Y341500D01*
D02*
G37*
G36*
X483500Y334464D02*
Y331500D01*
X486464D01*
X486410Y331914D01*
X486057Y332765D01*
X485496Y333496D01*
X484765Y334057D01*
X483914Y334410D01*
X483500Y334464D01*
D02*
G37*
G36*
X482500D02*
X482086Y334410D01*
X481235Y334057D01*
X480504Y333496D01*
X479943Y332765D01*
X479590Y331914D01*
X479536Y331500D01*
X482500D01*
Y334464D01*
D02*
G37*
G36*
X486464Y330500D02*
X483500D01*
Y327536D01*
X483914Y327590D01*
X484765Y327943D01*
X485496Y328504D01*
X486057Y329235D01*
X486410Y330086D01*
X486464Y330500D01*
D02*
G37*
G36*
X482500D02*
X479536D01*
X479590Y330086D01*
X479943Y329235D01*
X480504Y328504D01*
X481235Y327943D01*
X482086Y327590D01*
X482500Y327536D01*
Y330500D01*
D02*
G37*
G36*
X388991Y441043D02*
X382495D01*
Y436319D01*
X388991D01*
Y441043D01*
D02*
G37*
G36*
X380495D02*
X373999D01*
Y436319D01*
X380495D01*
Y441043D01*
D02*
G37*
G36*
X388991Y434319D02*
X382495D01*
Y429595D01*
X388991D01*
Y434319D01*
D02*
G37*
G36*
X380495D02*
X373999D01*
Y429595D01*
X380495D01*
Y434319D01*
D02*
G37*
G36*
X418395Y402100D02*
X411495D01*
Y382000D01*
X418395D01*
Y402100D01*
D02*
G37*
G36*
X409495D02*
X402595D01*
Y382000D01*
X409495D01*
Y402100D01*
D02*
G37*
G36*
X418395Y380000D02*
X411495D01*
Y359900D01*
X418395D01*
Y380000D01*
D02*
G37*
G36*
X409495D02*
X402595D01*
Y359900D01*
X409495D01*
Y380000D01*
D02*
G37*
G36*
X531000Y391235D02*
X528750D01*
Y387785D01*
X531000D01*
Y391235D01*
D02*
G37*
G36*
Y386785D02*
X528750D01*
Y383335D01*
X531000D01*
Y386785D01*
D02*
G37*
G36*
X548092Y364950D02*
X543642D01*
Y361500D01*
X548092D01*
Y364950D01*
D02*
G37*
G36*
X562808D02*
X558358D01*
Y361500D01*
X562808D01*
Y364950D01*
D02*
G37*
G36*
X557358D02*
X552908D01*
Y361500D01*
X557358D01*
Y364950D01*
D02*
G37*
G36*
X542642D02*
X538192D01*
Y361500D01*
X542642D01*
Y364950D01*
D02*
G37*
G36*
X562808Y360500D02*
X558358D01*
Y357050D01*
X562808D01*
Y360500D01*
D02*
G37*
G36*
X557358D02*
X552908D01*
Y357050D01*
X557358D01*
Y360500D01*
D02*
G37*
G36*
X548092D02*
X543642D01*
Y357050D01*
X548092D01*
Y360500D01*
D02*
G37*
G36*
X542642D02*
X538192D01*
Y357050D01*
X542642D01*
Y360500D01*
D02*
G37*
G36*
X551500Y337464D02*
Y334500D01*
X554464D01*
X554410Y334914D01*
X554057Y335765D01*
X553496Y336496D01*
X552765Y337057D01*
X551914Y337410D01*
X551500Y337464D01*
D02*
G37*
G36*
X550500D02*
X550086Y337410D01*
X549235Y337057D01*
X548504Y336496D01*
X547943Y335765D01*
X547590Y334914D01*
X547536Y334500D01*
X550500D01*
Y337464D01*
D02*
G37*
G36*
X554464Y333500D02*
X551500D01*
Y330536D01*
X551914Y330590D01*
X552765Y330943D01*
X553496Y331504D01*
X554057Y332235D01*
X554410Y333086D01*
X554464Y333500D01*
D02*
G37*
G36*
X550500D02*
X547536D01*
X547590Y333086D01*
X547943Y332235D01*
X548504Y331504D01*
X549235Y330943D01*
X550086Y330590D01*
X550500Y330536D01*
Y333500D01*
D02*
G37*
G36*
X379645Y379701D02*
X375995D01*
Y370933D01*
X379645D01*
Y379701D01*
D02*
G37*
G36*
X374995D02*
X371346D01*
Y370933D01*
X374995D01*
Y379701D01*
D02*
G37*
G36*
X379645Y369933D02*
X375995D01*
Y361165D01*
X379645D01*
Y369933D01*
D02*
G37*
G36*
X374995D02*
X371346D01*
Y361165D01*
X374995D01*
Y369933D01*
D02*
G37*
G36*
X348996Y332781D02*
Y328764D01*
X353013D01*
X352922Y329450D01*
X352465Y330555D01*
X351736Y331504D01*
X350787Y332232D01*
X349682Y332690D01*
X348996Y332781D01*
D02*
G37*
G36*
X353013Y327764D02*
X348996D01*
Y323747D01*
X349682Y323837D01*
X350787Y324295D01*
X351736Y325024D01*
X352465Y325973D01*
X352922Y327078D01*
X353013Y327764D01*
D02*
G37*
G36*
X405791Y319315D02*
X402732D01*
Y313500D01*
X405791D01*
Y319315D01*
D02*
G37*
G36*
Y312500D02*
X402732D01*
Y306685D01*
X405791D01*
Y312500D01*
D02*
G37*
G36*
X380506Y252457D02*
X377250D01*
Y249594D01*
X380506D01*
Y252457D01*
D02*
G37*
G36*
X376250D02*
X372994D01*
Y249594D01*
X376250D01*
Y252457D01*
D02*
G37*
G36*
X679504Y347657D02*
X676067D01*
Y344221D01*
X676603Y344291D01*
X677568Y344691D01*
X678397Y345327D01*
X679033Y346156D01*
X679433Y347122D01*
X679504Y347657D01*
D02*
G37*
G36*
X675067D02*
X671630D01*
X671701Y347122D01*
X672100Y346156D01*
X672737Y345327D01*
X673566Y344691D01*
X674531Y344291D01*
X675067Y344221D01*
Y347657D01*
D02*
G37*
G36*
X612472Y339000D02*
X609807D01*
Y336531D01*
X612472D01*
Y339000D01*
D02*
G37*
G36*
Y335531D02*
X609807D01*
Y333063D01*
X612472D01*
Y335531D01*
D02*
G37*
G36*
X675567Y332475D02*
X674531Y332339D01*
X673566Y331939D01*
X672737Y331303D01*
X672100Y330474D01*
X671701Y329508D01*
X671564Y328472D01*
X671701Y327436D01*
X672100Y326471D01*
X672737Y325642D01*
X673566Y325006D01*
X674531Y324606D01*
X675567Y324470D01*
X676603Y324606D01*
X677568Y325006D01*
X678397Y325642D01*
X679033Y326471D01*
X679433Y327436D01*
X679570Y328472D01*
X679433Y329508D01*
X679033Y330474D01*
X678397Y331303D01*
X677568Y331939D01*
X676603Y332339D01*
X675567Y332475D01*
D02*
G37*
G36*
X426755Y426677D02*
X424688D01*
Y420378D01*
X426755D01*
Y426677D01*
D02*
G37*
G36*
X422688D02*
X420621D01*
Y420378D01*
X422688D01*
Y426677D01*
D02*
G37*
G36*
X479519Y425307D02*
X477050D01*
Y420083D01*
X479519D01*
Y425307D01*
D02*
G37*
G36*
X476050D02*
X473582D01*
Y420083D01*
X476050D01*
Y425307D01*
D02*
G37*
G36*
X479519Y419083D02*
X477050D01*
Y413858D01*
X479519D01*
Y419083D01*
D02*
G37*
G36*
X476050D02*
X473582D01*
Y413858D01*
X476050D01*
Y419083D01*
D02*
G37*
G36*
X426755Y418378D02*
X424688D01*
Y412079D01*
X426755D01*
Y418378D01*
D02*
G37*
G36*
X422688D02*
X420621D01*
Y412079D01*
X422688D01*
Y418378D01*
D02*
G37*
G36*
X448095Y414200D02*
X445995D01*
Y410700D01*
X448095D01*
Y414200D01*
D02*
G37*
G36*
X444995D02*
X442895D01*
Y410700D01*
X444995D01*
Y414200D01*
D02*
G37*
G36*
X448095Y409700D02*
X445995D01*
Y406200D01*
X448095D01*
Y409700D01*
D02*
G37*
G36*
X444995D02*
X442895D01*
Y406200D01*
X444995D01*
Y409700D01*
D02*
G37*
G36*
X465276Y393150D02*
X456508D01*
Y389500D01*
X465276D01*
Y393150D01*
D02*
G37*
G36*
X455508D02*
X446740D01*
Y389500D01*
X455508D01*
Y393150D01*
D02*
G37*
G36*
X465276Y388500D02*
X456508D01*
Y384850D01*
X465276D01*
Y388500D01*
D02*
G37*
G36*
X455508D02*
X446740D01*
Y384850D01*
X455508D01*
Y388500D01*
D02*
G37*
G36*
X444395Y402100D02*
X436995D01*
Y381500D01*
X444395D01*
Y402100D01*
D02*
G37*
G36*
X435995D02*
X428595D01*
Y381500D01*
X435995D01*
Y402100D01*
D02*
G37*
G36*
X461452Y368756D02*
X458590D01*
Y365500D01*
X461452D01*
Y368756D01*
D02*
G37*
G36*
Y364500D02*
X458590D01*
Y361244D01*
X461452D01*
Y364500D01*
D02*
G37*
G36*
X444395Y380500D02*
X436995D01*
Y359900D01*
X444395D01*
Y380500D01*
D02*
G37*
G36*
X435995D02*
X428595D01*
Y359900D01*
X435995D01*
Y380500D01*
D02*
G37*
G36*
X443500Y328570D02*
Y325000D01*
X447070D01*
X446994Y325570D01*
X446581Y326568D01*
X445924Y327424D01*
X445068Y328081D01*
X444070Y328495D01*
X443500Y328570D01*
D02*
G37*
G36*
X442500D02*
X441930Y328495D01*
X440932Y328081D01*
X440076Y327424D01*
X439419Y326568D01*
X439006Y325570D01*
X438931Y325000D01*
X442500D01*
Y328570D01*
D02*
G37*
G36*
X447070Y324000D02*
X443500D01*
Y320430D01*
X444070Y320505D01*
X445068Y320919D01*
X445924Y321576D01*
X446581Y322432D01*
X446994Y323430D01*
X447070Y324000D01*
D02*
G37*
G36*
X442500D02*
X438931D01*
X439006Y323430D01*
X439419Y322432D01*
X440076Y321576D01*
X440932Y320919D01*
X441930Y320505D01*
X442500Y320430D01*
Y324000D01*
D02*
G37*
G36*
X421268Y319315D02*
X418209D01*
Y313500D01*
X421268D01*
Y319315D01*
D02*
G37*
G36*
X417209D02*
X414150D01*
Y313500D01*
X417209D01*
Y319315D01*
D02*
G37*
G36*
X622398Y315620D02*
Y312000D01*
X626018D01*
X625942Y312583D01*
X625523Y313593D01*
X624858Y314460D01*
X623991Y315125D01*
X622982Y315543D01*
X622398Y315620D01*
D02*
G37*
G36*
X621398D02*
X620815Y315543D01*
X619805Y315125D01*
X618939Y314460D01*
X618273Y313593D01*
X617855Y312583D01*
X617778Y312000D01*
X621398D01*
Y315620D01*
D02*
G37*
G36*
X584398D02*
Y312000D01*
X588018D01*
X587942Y312583D01*
X587523Y313593D01*
X586858Y314460D01*
X585991Y315125D01*
X584982Y315543D01*
X584398Y315620D01*
D02*
G37*
G36*
X583398D02*
X582815Y315543D01*
X581806Y315125D01*
X580939Y314460D01*
X580273Y313593D01*
X579855Y312583D01*
X579778Y312000D01*
X583398D01*
Y315620D01*
D02*
G37*
G36*
X546398D02*
Y312000D01*
X550018D01*
X549942Y312583D01*
X549523Y313593D01*
X548858Y314460D01*
X547991Y315125D01*
X546982Y315543D01*
X546398Y315620D01*
D02*
G37*
G36*
X545398D02*
X544815Y315543D01*
X543806Y315125D01*
X542939Y314460D01*
X542273Y313593D01*
X541855Y312583D01*
X541778Y312000D01*
X545398D01*
Y315620D01*
D02*
G37*
G36*
X626018Y311000D02*
X622398D01*
Y307380D01*
X622982Y307457D01*
X623991Y307875D01*
X624858Y308540D01*
X625523Y309407D01*
X625942Y310417D01*
X626018Y311000D01*
D02*
G37*
G36*
X621398D02*
X617778D01*
X617855Y310417D01*
X618273Y309407D01*
X618939Y308540D01*
X619805Y307875D01*
X620815Y307457D01*
X621398Y307380D01*
Y311000D01*
D02*
G37*
G36*
X588018D02*
X584398D01*
Y307380D01*
X584982Y307457D01*
X585991Y307875D01*
X586858Y308540D01*
X587523Y309407D01*
X587942Y310417D01*
X588018Y311000D01*
D02*
G37*
G36*
X583398D02*
X579778D01*
X579855Y310417D01*
X580273Y309407D01*
X580939Y308540D01*
X581806Y307875D01*
X582815Y307457D01*
X583398Y307380D01*
Y311000D01*
D02*
G37*
G36*
X550018D02*
X546398D01*
Y307380D01*
X546982Y307457D01*
X547991Y307875D01*
X548858Y308540D01*
X549523Y309407D01*
X549942Y310417D01*
X550018Y311000D01*
D02*
G37*
G36*
X545398D02*
X541778D01*
X541855Y310417D01*
X542273Y309407D01*
X542939Y308540D01*
X543806Y307875D01*
X544815Y307457D01*
X545398Y307380D01*
Y311000D01*
D02*
G37*
G36*
X421268Y312500D02*
X418209D01*
Y306685D01*
X421268D01*
Y312500D01*
D02*
G37*
G36*
X417209D02*
X414150D01*
Y306685D01*
X417209D01*
Y312500D01*
D02*
G37*
G36*
X418655Y304256D02*
X415793D01*
Y301000D01*
X418655D01*
Y304256D01*
D02*
G37*
G36*
Y300000D02*
X415793D01*
Y296744D01*
X418655D01*
Y300000D01*
D02*
G37*
G36*
Y295256D02*
X415793D01*
Y292000D01*
X418655D01*
Y295256D01*
D02*
G37*
G36*
Y291000D02*
X415793D01*
Y287744D01*
X418655D01*
Y291000D01*
D02*
G37*
G36*
X499874Y287366D02*
X496520D01*
Y285784D01*
X499874D01*
Y287366D01*
D02*
G37*
G36*
X435957Y288449D02*
X433095D01*
Y285193D01*
X435957D01*
Y288449D01*
D02*
G37*
G36*
X494988Y287335D02*
X490374D01*
Y284000D01*
X494988D01*
Y287335D01*
D02*
G37*
G36*
X489374D02*
X484760D01*
Y284000D01*
X489374D01*
Y287335D01*
D02*
G37*
G36*
X499874Y284784D02*
X496520D01*
Y283201D01*
X499874D01*
Y284784D01*
D02*
G37*
G36*
X418655Y286256D02*
X415793D01*
Y283000D01*
X418655D01*
Y286256D01*
D02*
G37*
G36*
X435957Y284193D02*
X433095D01*
Y280937D01*
X435957D01*
Y284193D01*
D02*
G37*
G36*
X494988Y283000D02*
X490374D01*
Y279665D01*
X494988D01*
Y283000D01*
D02*
G37*
G36*
X489374D02*
X484760D01*
Y279665D01*
X489374D01*
Y283000D01*
D02*
G37*
G36*
X440181Y288449D02*
X439819D01*
X439681Y288449D01*
X436957D01*
Y284693D01*
Y280937D01*
X439681D01*
X439819Y280937D01*
X440181D01*
X440319Y280937D01*
X446906D01*
Y281326D01*
X447405Y281593D01*
X447415Y281587D01*
X448000Y281471D01*
X449012D01*
Y279665D01*
X459240D01*
Y287335D01*
X449012D01*
Y284823D01*
X448512Y284651D01*
X447389Y285774D01*
X446906Y286097D01*
Y288449D01*
X440319D01*
X440181Y288449D01*
D02*
G37*
G36*
X418655Y282000D02*
X415793D01*
Y278744D01*
X418655D01*
Y282000D01*
D02*
G37*
G36*
X459240Y277335D02*
X449012D01*
Y275029D01*
X446512D01*
Y276468D01*
X440319D01*
X440181Y276468D01*
X439819D01*
X439681Y276468D01*
X433488D01*
Y275029D01*
X433000D01*
X432415Y274913D01*
X431919Y274581D01*
X425919Y268581D01*
X425587Y268085D01*
X425471Y267500D01*
Y267104D01*
X425146Y266854D01*
X424729Y266311D01*
X424467Y265679D01*
X424378Y265000D01*
X424467Y264321D01*
X424729Y263689D01*
X425146Y263146D01*
X425689Y262729D01*
X426321Y262467D01*
X427000Y262378D01*
X427679Y262467D01*
X428311Y262729D01*
X428854Y263146D01*
X429271Y263689D01*
X429533Y264321D01*
X429622Y265000D01*
X429533Y265679D01*
X429271Y266311D01*
X428854Y266854D01*
X428834Y267171D01*
X433026Y271363D01*
X433488Y271172D01*
Y270532D01*
X439681D01*
X439819Y270532D01*
X440181D01*
X440319Y270532D01*
X446512D01*
Y271971D01*
X449012D01*
Y269665D01*
X459240D01*
Y277335D01*
D02*
G37*
G36*
X418655Y277256D02*
X415793D01*
Y274000D01*
X418655D01*
Y277256D01*
D02*
G37*
G36*
Y273000D02*
X415793D01*
Y269744D01*
X418655D01*
Y273000D01*
D02*
G37*
G36*
X435957Y259730D02*
X433095D01*
Y256474D01*
X435957D01*
Y259730D01*
D02*
G37*
G36*
X499874Y257866D02*
X496520D01*
Y256283D01*
X499874D01*
Y257866D01*
D02*
G37*
G36*
X494988Y257335D02*
X490374D01*
Y254000D01*
X494988D01*
Y257335D01*
D02*
G37*
G36*
X489374D02*
X484760D01*
Y254000D01*
X489374D01*
Y257335D01*
D02*
G37*
G36*
X499874Y255283D02*
X496520D01*
Y253701D01*
X499874D01*
Y255283D01*
D02*
G37*
G36*
X419833Y255728D02*
X418250D01*
Y252374D01*
X419833D01*
Y255728D01*
D02*
G37*
G36*
X417250D02*
X415667D01*
Y252374D01*
X417250D01*
Y255728D01*
D02*
G37*
G36*
X435957Y255474D02*
X433095D01*
Y252218D01*
X435957D01*
Y255474D01*
D02*
G37*
G36*
X494988Y253000D02*
X490374D01*
Y249665D01*
X494988D01*
Y253000D01*
D02*
G37*
G36*
X489374D02*
X484760D01*
Y249665D01*
X489374D01*
Y253000D01*
D02*
G37*
G36*
X440181Y259730D02*
X439819D01*
X439681Y259730D01*
X436957D01*
Y255974D01*
Y252218D01*
X439681D01*
X439819Y252218D01*
X440181D01*
X440319Y252218D01*
X446906D01*
Y253252D01*
X447367Y253444D01*
X448393Y252419D01*
X448889Y252087D01*
X449012Y252063D01*
Y249665D01*
X459240D01*
Y257335D01*
X449012D01*
Y256778D01*
X448550Y256587D01*
X448081Y257055D01*
X447585Y257387D01*
X447000Y257503D01*
X446906D01*
Y259730D01*
X440319D01*
X440181Y259730D01*
D02*
G37*
G36*
X419833Y251374D02*
X418250D01*
Y248020D01*
X419833D01*
Y251374D01*
D02*
G37*
G36*
X417250D02*
X415667D01*
Y248020D01*
X417250D01*
Y251374D01*
D02*
G37*
G36*
X459240Y247335D02*
X449012D01*
Y245029D01*
X446512D01*
Y246468D01*
X440319D01*
X440181Y246468D01*
X439819D01*
X439681Y246468D01*
X433488D01*
Y245029D01*
X430604D01*
X430354Y245354D01*
X429811Y245771D01*
X429179Y246033D01*
X428500Y246122D01*
X427821Y246033D01*
X427189Y245771D01*
X426646Y245354D01*
X426229Y244811D01*
X425967Y244179D01*
X425878Y243500D01*
X425967Y242821D01*
X426229Y242189D01*
X426646Y241646D01*
X427189Y241229D01*
X427821Y240967D01*
X428500Y240878D01*
X429179Y240967D01*
X429811Y241229D01*
X430354Y241646D01*
X430604Y241971D01*
X433488D01*
Y240531D01*
X439681D01*
X439819Y240531D01*
X440181D01*
X440319Y240531D01*
X446512D01*
Y241971D01*
X449012D01*
Y239665D01*
X459240D01*
Y247335D01*
D02*
G37*
G36*
X499874Y227866D02*
X496520D01*
Y226284D01*
X499874D01*
Y227866D01*
D02*
G37*
G36*
X435957Y228949D02*
X433095D01*
Y225693D01*
X435957D01*
Y228949D01*
D02*
G37*
G36*
X494988Y227335D02*
X490374D01*
Y224000D01*
X494988D01*
Y227335D01*
D02*
G37*
G36*
X489374D02*
X484760D01*
Y224000D01*
X489374D01*
Y227335D01*
D02*
G37*
G36*
X499874Y225284D02*
X496520D01*
Y223701D01*
X499874D01*
Y225284D01*
D02*
G37*
G36*
X435957Y224693D02*
X433095D01*
Y221437D01*
X435957D01*
Y224693D01*
D02*
G37*
G36*
X494988Y223000D02*
X490374D01*
Y219665D01*
X494988D01*
Y223000D01*
D02*
G37*
G36*
X489374D02*
X484760D01*
Y219665D01*
X489374D01*
Y223000D01*
D02*
G37*
G36*
X440181Y228949D02*
X439819D01*
X439681Y228949D01*
X436957D01*
Y225193D01*
Y221437D01*
X439681D01*
X439819Y221437D01*
X440181D01*
X440319Y221437D01*
X446906D01*
Y222778D01*
X447367Y222970D01*
X447919Y222419D01*
X448415Y222087D01*
X449000Y221971D01*
X449012D01*
Y219665D01*
X459240D01*
Y227335D01*
X449012D01*
Y226304D01*
X448550Y226113D01*
X448081Y226581D01*
X447585Y226913D01*
X447000Y227029D01*
X446906D01*
Y228949D01*
X440319D01*
X440181Y228949D01*
D02*
G37*
G36*
X459240Y217335D02*
X449012D01*
Y215029D01*
X446512D01*
Y216469D01*
X440319D01*
X440181Y216469D01*
X439819D01*
X439681Y216469D01*
X433488D01*
Y215029D01*
X430604D01*
X430354Y215354D01*
X429811Y215771D01*
X429179Y216033D01*
X428500Y216122D01*
X427821Y216033D01*
X427189Y215771D01*
X426646Y215354D01*
X426229Y214811D01*
X425967Y214179D01*
X425878Y213500D01*
X425967Y212821D01*
X426229Y212189D01*
X426646Y211646D01*
X427189Y211229D01*
X427821Y210967D01*
X428500Y210878D01*
X429179Y210967D01*
X429811Y211229D01*
X430354Y211646D01*
X430604Y211971D01*
X433488D01*
Y210531D01*
X439681D01*
X439819Y210531D01*
X440181D01*
X440319Y210531D01*
X446512D01*
Y211971D01*
X449012D01*
Y209665D01*
X459240D01*
Y217335D01*
D02*
G37*
G36*
X468736Y183513D02*
Y179496D01*
X472753D01*
X472663Y180182D01*
X472205Y181287D01*
X471477Y182236D01*
X470528Y182965D01*
X469422Y183422D01*
X468736Y183513D01*
D02*
G37*
G36*
X467736D02*
X467050Y183422D01*
X465945Y182965D01*
X464996Y182236D01*
X464268Y181287D01*
X463810Y180182D01*
X463720Y179496D01*
X467736D01*
Y183513D01*
D02*
G37*
G36*
X472753Y178496D02*
X468736D01*
Y174479D01*
X469422Y174570D01*
X470528Y175028D01*
X471477Y175756D01*
X472205Y176705D01*
X472663Y177810D01*
X472753Y178496D01*
D02*
G37*
G36*
X467736D02*
X463720D01*
X463810Y177810D01*
X464268Y176705D01*
X464996Y175756D01*
X465945Y175028D01*
X467050Y174570D01*
X467736Y174479D01*
Y178496D01*
D02*
G37*
G36*
X526921Y279591D02*
X525240D01*
Y276827D01*
X526921D01*
Y279591D01*
D02*
G37*
G36*
X524240D02*
X522559D01*
Y276827D01*
X524240D01*
Y279591D01*
D02*
G37*
G36*
X526921Y275827D02*
X525240D01*
Y273063D01*
X526921D01*
Y275827D01*
D02*
G37*
G36*
X524240D02*
X522559D01*
Y273063D01*
X524240D01*
Y275827D01*
D02*
G37*
G36*
X516500Y266464D02*
Y263500D01*
X519464D01*
X519410Y263914D01*
X519057Y264765D01*
X518496Y265496D01*
X517765Y266057D01*
X516914Y266410D01*
X516500Y266464D01*
D02*
G37*
G36*
X515500D02*
X515086Y266410D01*
X514235Y266057D01*
X513504Y265496D01*
X512943Y264765D01*
X512590Y263914D01*
X512536Y263500D01*
X515500D01*
Y266464D01*
D02*
G37*
G36*
X519464Y262500D02*
X516500D01*
Y259536D01*
X516914Y259590D01*
X517765Y259943D01*
X518496Y260504D01*
X519057Y261235D01*
X519410Y262086D01*
X519464Y262500D01*
D02*
G37*
G36*
X515500D02*
X512536D01*
X512590Y262086D01*
X512943Y261235D01*
X513504Y260504D01*
X514235Y259943D01*
X515086Y259590D01*
X515500Y259536D01*
Y262500D01*
D02*
G37*
G36*
X350886Y376028D02*
X345858D01*
Y371000D01*
X350886D01*
Y376028D01*
D02*
G37*
G36*
X344858D02*
X339831D01*
Y371000D01*
X344858D01*
Y376028D01*
D02*
G37*
G36*
X350886Y370000D02*
X345858D01*
Y364972D01*
X350886D01*
Y370000D01*
D02*
G37*
G36*
X344858D02*
X339831D01*
Y364972D01*
X344858D01*
Y370000D01*
D02*
G37*
G36*
X353039Y347807D02*
X348996D01*
Y343764D01*
X353039D01*
Y347807D01*
D02*
G37*
G36*
X347996D02*
X343953D01*
Y343764D01*
X347996D01*
Y347807D01*
D02*
G37*
G36*
X353039Y342764D02*
X348996D01*
Y338720D01*
X353039D01*
Y342764D01*
D02*
G37*
G36*
X347996D02*
X343953D01*
Y338720D01*
X347996D01*
Y342764D01*
D02*
G37*
G36*
X353539Y270807D02*
X349496D01*
Y266764D01*
X353539D01*
Y270807D01*
D02*
G37*
G36*
X348496D02*
X344453D01*
Y266764D01*
X348496D01*
Y270807D01*
D02*
G37*
G36*
X353539Y265764D02*
X349496D01*
Y261720D01*
X353539D01*
Y265764D01*
D02*
G37*
G36*
X348496D02*
X344453D01*
Y261720D01*
X348496D01*
Y265764D01*
D02*
G37*
G36*
X526921Y250091D02*
X525240D01*
Y247327D01*
X526921D01*
Y250091D01*
D02*
G37*
G36*
X524240D02*
X522559D01*
Y247327D01*
X524240D01*
Y250091D01*
D02*
G37*
G36*
X526921Y246327D02*
X525240D01*
Y243563D01*
X526921D01*
Y246327D01*
D02*
G37*
G36*
X524240D02*
X522559D01*
Y243563D01*
X524240D01*
Y246327D01*
D02*
G37*
G36*
X516500Y235464D02*
Y232500D01*
X519464D01*
X519410Y232914D01*
X519057Y233765D01*
X518496Y234496D01*
X517765Y235057D01*
X516914Y235410D01*
X516500Y235464D01*
D02*
G37*
G36*
X515500D02*
X515086Y235410D01*
X514235Y235057D01*
X513504Y234496D01*
X512943Y233765D01*
X512590Y232914D01*
X512536Y232500D01*
X515500D01*
Y235464D01*
D02*
G37*
G36*
X519464Y231500D02*
X516500D01*
Y228536D01*
X516914Y228590D01*
X517765Y228943D01*
X518496Y229504D01*
X519057Y230235D01*
X519410Y231086D01*
X519464Y231500D01*
D02*
G37*
G36*
X515500D02*
X512536D01*
X512590Y231086D01*
X512943Y230235D01*
X513504Y229504D01*
X514235Y228943D01*
X515086Y228590D01*
X515500Y228536D01*
Y231500D01*
D02*
G37*
G36*
X330705Y401900D02*
X326705D01*
Y394500D01*
X330705D01*
Y401900D01*
D02*
G37*
G36*
X325705D02*
X321705D01*
Y394500D01*
X325705D01*
Y401900D01*
D02*
G37*
G36*
X330705Y393500D02*
X326705D01*
Y386100D01*
X330705D01*
Y393500D01*
D02*
G37*
G36*
X325705D02*
X321705D01*
Y386100D01*
X325705D01*
Y393500D01*
D02*
G37*
G36*
X333169Y376028D02*
X328142D01*
Y371000D01*
X333169D01*
Y376028D01*
D02*
G37*
G36*
X327142D02*
X322114D01*
Y371000D01*
X327142D01*
Y376028D01*
D02*
G37*
G36*
X333169Y370000D02*
X328142D01*
Y364972D01*
X333169D01*
Y370000D01*
D02*
G37*
G36*
X327142D02*
X322114D01*
Y364972D01*
X327142D01*
Y370000D01*
D02*
G37*
G36*
X457780Y183539D02*
X453736D01*
Y179496D01*
X457780D01*
Y183539D01*
D02*
G37*
G36*
X452736D02*
X448693D01*
Y179496D01*
X452736D01*
Y183539D01*
D02*
G37*
G36*
X457780Y178496D02*
X453736D01*
Y174453D01*
X457780D01*
Y178496D01*
D02*
G37*
G36*
X452736D02*
X448693D01*
Y174453D01*
X452736D01*
Y178496D01*
D02*
G37*
%LPD*%
D10*
X548090Y426810D02*
D03*
Y432320D02*
D03*
X553600D02*
D03*
Y426810D02*
D03*
Y421300D02*
D03*
X548090D02*
D03*
X542580D02*
D03*
Y426810D02*
D03*
Y432320D02*
D03*
D11*
X588450Y457210D02*
D03*
Y452210D02*
D03*
Y447210D02*
D03*
Y442210D02*
D03*
Y437210D02*
D03*
Y432210D02*
D03*
Y427210D02*
D03*
Y422210D02*
D03*
Y417210D02*
D03*
Y412210D02*
D03*
Y407210D02*
D03*
Y402210D02*
D03*
Y397210D02*
D03*
Y392210D02*
D03*
X519550D02*
D03*
Y397210D02*
D03*
Y402210D02*
D03*
Y407210D02*
D03*
Y412210D02*
D03*
Y417210D02*
D03*
Y422210D02*
D03*
Y427210D02*
D03*
Y432210D02*
D03*
Y437210D02*
D03*
Y442210D02*
D03*
Y447210D02*
D03*
Y452210D02*
D03*
Y457210D02*
D03*
D12*
X576500Y387285D02*
D03*
X571500D02*
D03*
X566500D02*
D03*
X561500D02*
D03*
X556500D02*
D03*
X551500D02*
D03*
X546500D02*
D03*
X541500D02*
D03*
X536500D02*
D03*
X531500D02*
D03*
D13*
X619543Y345500D02*
D03*
X612457D02*
D03*
X443543Y225193D02*
D03*
X436457D02*
D03*
X443543Y255974D02*
D03*
X436457D02*
D03*
X532587Y333500D02*
D03*
X525500D02*
D03*
X408207Y273500D02*
D03*
X415293D02*
D03*
X469039Y365000D02*
D03*
X461952D02*
D03*
X501457Y276000D02*
D03*
X508543D02*
D03*
X443543Y284693D02*
D03*
X436457D02*
D03*
X501457Y246500D02*
D03*
X508543D02*
D03*
X501457Y216500D02*
D03*
X508543D02*
D03*
X642457Y419000D02*
D03*
X649543D02*
D03*
X642457Y435500D02*
D03*
X649543D02*
D03*
X408207Y291500D02*
D03*
X415293D02*
D03*
X408207Y282500D02*
D03*
X415293D02*
D03*
X408207Y300500D02*
D03*
X415293D02*
D03*
X608110Y372000D02*
D03*
X615197D02*
D03*
X503543Y350500D02*
D03*
X496457D02*
D03*
D14*
X612972Y336032D02*
D03*
X619665D02*
D03*
X484842Y365000D02*
D03*
X478149D02*
D03*
X436654Y273500D02*
D03*
X443347D02*
D03*
X436654Y243500D02*
D03*
X443347D02*
D03*
X436654Y213500D02*
D03*
X443347D02*
D03*
D15*
X510000Y334929D02*
D03*
X513740Y326071D02*
D03*
X506260D02*
D03*
X521000Y285185D02*
D03*
X524740Y276327D02*
D03*
X517260D02*
D03*
X521000Y255685D02*
D03*
X524740Y246827D02*
D03*
X517260D02*
D03*
X521000Y225685D02*
D03*
X524740Y216827D02*
D03*
X517260D02*
D03*
D16*
X401750Y261126D02*
D03*
Y251874D02*
D03*
X417750Y261126D02*
D03*
Y251874D02*
D03*
X385750Y261126D02*
D03*
Y251874D02*
D03*
D17*
X557858Y361000D02*
D03*
X590142D02*
D03*
X543142D02*
D03*
X510858D02*
D03*
D18*
X445495Y410200D02*
D03*
Y423800D02*
D03*
D19*
X456008Y389000D02*
D03*
X481992D02*
D03*
D20*
X403609Y419378D02*
D03*
X410302D02*
D03*
X416995D02*
D03*
X423688D02*
D03*
X430381D02*
D03*
D21*
X416995Y456583D02*
D03*
D22*
X346354Y418378D02*
D03*
X328637D02*
D03*
X345358Y370500D02*
D03*
X327642D02*
D03*
D23*
X326205Y394000D02*
D03*
X346795D02*
D03*
D24*
X509626Y285283D02*
D03*
X500374D02*
D03*
X509626Y255784D02*
D03*
X500374D02*
D03*
X509626Y225783D02*
D03*
X500374D02*
D03*
D25*
X489495Y411291D02*
D03*
Y422709D02*
D03*
D26*
X436495Y381000D02*
D03*
X410495D02*
D03*
D27*
X454126Y283500D02*
D03*
Y273500D02*
D03*
X489874D02*
D03*
Y283500D02*
D03*
X454126Y253500D02*
D03*
Y243500D02*
D03*
X489874D02*
D03*
Y253500D02*
D03*
X454126Y223500D02*
D03*
Y213500D02*
D03*
X489874D02*
D03*
Y223500D02*
D03*
D28*
X406291Y313000D02*
D03*
X417709D02*
D03*
D29*
X396250Y296949D02*
D03*
X391250D02*
D03*
X386250D02*
D03*
X381250D02*
D03*
X396250Y278051D02*
D03*
X391250D02*
D03*
X386250D02*
D03*
X381250D02*
D03*
D30*
X376750Y252957D02*
D03*
Y260043D02*
D03*
D31*
X402000Y221094D02*
D03*
Y232906D02*
D03*
X382000Y221094D02*
D03*
Y232906D02*
D03*
D32*
X375495Y370433D02*
D03*
Y399567D02*
D03*
D33*
X615000Y383500D02*
D03*
X608307D02*
D03*
X496654Y342000D02*
D03*
X503346D02*
D03*
X479153Y474000D02*
D03*
X485847D02*
D03*
X479153Y464000D02*
D03*
X485847D02*
D03*
X479153Y454000D02*
D03*
X485847D02*
D03*
D34*
X381495Y435319D02*
D03*
Y462681D02*
D03*
D35*
X458440Y419583D02*
D03*
X467495D02*
D03*
X476550D02*
D03*
D36*
X467495Y442417D02*
D03*
D37*
X613500Y422000D02*
X628500D01*
X593290Y442210D02*
X613500Y422000D01*
X588450Y442210D02*
X593290D01*
X618500Y412000D02*
X628500D01*
X593290Y437210D02*
X618500Y412000D01*
X588450Y437210D02*
X593290D01*
X548090Y426810D02*
X553600D01*
X542580D02*
X548090D01*
X381000Y307500D02*
X381250Y307250D01*
X386000Y307500D02*
X386250Y307250D01*
X428500Y213500D02*
X436654D01*
X588450Y412210D02*
X597790D01*
X598000Y412000D01*
X588450Y397210D02*
X598710D01*
X536500Y379500D02*
Y387285D01*
X511000Y417000D02*
X511210Y417210D01*
X519550D01*
X396000Y307500D02*
X396250Y307250D01*
Y296949D02*
Y307250D01*
X386250Y296949D02*
Y307250D01*
X381250Y296949D02*
Y307250D01*
X428500Y243500D02*
X436654D01*
X433000Y273500D02*
X436654D01*
X597790Y407210D02*
X598000Y407000D01*
X588450Y407210D02*
X597790D01*
Y402210D02*
X598000Y402000D01*
X588450Y402210D02*
X597790D01*
X598000Y397000D02*
X598500D01*
X598710Y397210D01*
X588450Y392210D02*
X599790D01*
X502000Y330500D02*
X515000D01*
X500000Y328500D02*
X502000Y330500D01*
X500000Y322000D02*
Y328500D01*
X507000Y322000D02*
X519500D01*
X506260Y322740D02*
X507000Y322000D01*
X506260Y322740D02*
Y326071D01*
X515000Y330500D02*
X517000Y332500D01*
X595000Y432000D02*
X620000Y407000D01*
X595962Y422210D02*
X613172Y405000D01*
X598133Y417210D02*
X612343Y403000D01*
X613172Y405000D02*
X651080D01*
X612343Y403000D02*
X650252D01*
X571500Y334500D02*
X581000Y325000D01*
X500000Y322000D02*
X502000Y320000D01*
X537000Y327000D02*
X541500Y322500D01*
X517000Y332500D02*
Y366500D01*
X514710Y412210D02*
X519550D01*
X503346Y342000D02*
Y350303D01*
X608110Y372000D02*
X608307Y372197D01*
X595500Y372000D02*
X608110D01*
X590142Y366642D02*
X595500Y372000D01*
X590142Y360500D02*
Y366642D01*
X537000Y327000D02*
Y354500D01*
X526000Y365500D02*
X537000Y354500D01*
X526000Y365500D02*
Y394500D01*
X523290Y397210D02*
X526000Y394500D01*
X571000Y404500D02*
X582000Y393500D01*
Y354672D02*
Y393500D01*
X572000Y407000D02*
X584000Y395000D01*
Y356500D02*
Y395000D01*
X579750Y353250D02*
Y392250D01*
X524790Y422210D02*
X527000Y420000D01*
X519550Y422210D02*
X524790D01*
X682500Y379000D02*
Y392000D01*
X679420Y395080D02*
X682500Y392000D01*
X658172Y395080D02*
X679420D01*
X681185Y377685D02*
X682500Y379000D01*
X675567Y377685D02*
X681185D01*
X685500Y376500D02*
Y393500D01*
X682000Y373000D02*
X685500Y376500D01*
X672000Y373000D02*
X682000D01*
X681920Y397080D02*
X685500Y393500D01*
X659000Y397080D02*
X681920D01*
X650252Y403000D02*
X658172Y395080D01*
X652028Y387528D02*
X675567D01*
X633968Y338315D02*
X675567D01*
X582500Y345500D02*
X612457D01*
X576500Y351500D02*
X582500Y345500D01*
X576500Y351500D02*
Y387285D01*
X571500Y334500D02*
Y387285D01*
X519550Y397210D02*
X523290D01*
X478149Y365000D02*
X478149Y365000D01*
X469039Y365000D02*
X478149D01*
X443347Y213500D02*
X454126D01*
X443347Y273500D02*
X454126D01*
X443347Y243500D02*
X454126D01*
X443543Y225193D02*
X443850Y225500D01*
X447000D01*
X449000Y223500D01*
X454126D01*
X443130Y255974D02*
X447000D01*
X449474Y253500D01*
X453713D01*
X453626Y283000D02*
X454126Y283500D01*
X448000Y283000D02*
X453626D01*
X446307Y284693D02*
X448000Y283000D01*
X443543Y284693D02*
X446307D01*
X498000Y276000D02*
X501457D01*
X495500Y273500D02*
X498000Y276000D01*
X489874Y273500D02*
X495500D01*
X498500Y216500D02*
X501457D01*
X495500Y213500D02*
X498500Y216500D01*
X489874Y213500D02*
X495500D01*
X533000Y231000D02*
Y271000D01*
X527685Y225685D02*
X533000Y231000D01*
X521000Y225685D02*
X527685D01*
X533000Y271000D02*
X542000Y280000D01*
X531000Y272000D02*
X541350Y282350D01*
X531000Y259000D02*
Y272000D01*
X527685Y255685D02*
X531000Y259000D01*
X521000Y255685D02*
X527685D01*
X520902Y225783D02*
X521000Y225685D01*
X509626Y225783D02*
X520902D01*
Y255784D02*
X521000Y255685D01*
X509626Y255784D02*
X520902D01*
X669000Y370000D02*
X672000Y373000D01*
X669000Y360000D02*
Y370000D01*
Y360000D02*
X671000Y358000D01*
X675567D01*
Y367843D02*
X684842D01*
X691000Y374000D01*
Y442828D01*
X684618Y449210D02*
X691000Y442828D01*
X603790Y449210D02*
X684618D01*
X600790Y452210D02*
X603790Y449210D01*
X588450Y452210D02*
X600790D01*
X400874Y261126D02*
X401750D01*
X398000Y264000D02*
X400874Y261126D01*
X398000Y264000D02*
Y268000D01*
X396000Y270000D02*
X398000Y268000D01*
X388000Y270000D02*
X396000D01*
X386250Y271750D02*
X388000Y270000D01*
X386250Y271750D02*
Y278051D01*
X391250D02*
Y282750D01*
X389000Y285000D02*
X391250Y282750D01*
X380000Y285000D02*
X389000D01*
X376750Y281750D02*
X380000Y285000D01*
X376750Y260043D02*
Y281750D01*
X401750Y261126D02*
X417750D01*
X401750D02*
Y265750D01*
X403000Y267000D01*
X407000D01*
X408000Y268000D01*
Y273293D01*
X408207Y273500D01*
X651080Y405000D02*
X659000Y397080D01*
X588450Y417210D02*
X598133D01*
X588450Y422210D02*
X595962D01*
X680500Y432000D02*
X687000D01*
X683790Y447210D02*
X689000Y442000D01*
X687000Y432000D02*
X689000Y434000D01*
Y442000D01*
X588450Y432210D02*
X588660Y432000D01*
X595000D01*
X489461Y243500D02*
X494587D01*
X497587Y246500D01*
X501043D01*
X508130D02*
X516520D01*
X516847Y246827D01*
X401750Y251874D02*
X402124Y251500D01*
X385750Y251874D02*
X401750D01*
X377581Y260043D02*
X385750Y251874D01*
X376750Y260043D02*
X377581D01*
X402000Y232906D02*
Y245376D01*
X417750Y261126D01*
X382000Y232906D02*
Y239000D01*
X385750Y242750D01*
Y251874D01*
X398742Y282500D02*
X408207D01*
X394242Y287000D02*
X398742Y282500D01*
X383000Y287000D02*
X394242D01*
X381250Y288750D02*
X383000Y287000D01*
X381250Y288750D02*
Y296949D01*
X402500Y291500D02*
X408207D01*
X400000Y289000D02*
X402500Y291500D01*
X386000Y290000D02*
X387000Y289000D01*
X386000Y290000D02*
Y296699D01*
X386250Y296949D01*
X391250Y289250D02*
Y296949D01*
X391000Y289000D02*
X391250Y289250D01*
X387000Y289000D02*
X391000D01*
X400000D01*
X396250Y296949D02*
X400949D01*
X404500Y300500D01*
X408207D01*
X541350Y282350D02*
X574850D01*
X583898Y291398D01*
Y301500D01*
X542000Y280000D02*
X611500D01*
X621898Y290398D01*
Y301500D01*
X509626Y285283D02*
X521000D01*
Y285185D02*
X539185D01*
X545898Y291898D01*
Y301500D01*
X508543Y216500D02*
X516933D01*
X517260Y216827D01*
X508543Y276000D02*
X516933D01*
X517260Y276327D01*
X396250Y278051D02*
X396443Y278244D01*
X415293D01*
Y282500D01*
X581000Y325000D02*
X668500D01*
X671433Y231921D02*
X676421D01*
X541500Y322500D02*
X662500D01*
X667500Y237000D02*
X676500D01*
X667421Y222079D02*
X671433D01*
X666000Y223500D02*
X667421Y222079D01*
X666000Y223500D02*
Y235500D01*
X667500Y237000D01*
X666921Y280079D02*
X671433D01*
X665000Y282000D02*
X666921Y280079D01*
X502000Y320000D02*
X661000D01*
X665000Y316000D01*
Y282000D02*
Y316000D01*
X671433Y289921D02*
X675579D01*
X676500Y289000D01*
Y237000D02*
X679000Y239500D01*
Y306000D01*
X662500Y322500D02*
X679000Y306000D01*
X663000Y242000D02*
X676500Y255500D01*
Y289000D01*
X663000Y221000D02*
Y242000D01*
X676421Y231921D02*
X681500Y237000D01*
Y312000D01*
X668500Y325000D02*
X681500Y312000D01*
X620000Y407000D02*
X638500D01*
X642536Y411036D01*
Y419000D01*
X642500D02*
Y424500D01*
X645500Y427500D01*
X642457Y435500D02*
Y442253D01*
X637500Y447210D02*
X642457Y442253D01*
X588450Y447210D02*
X637500D01*
X683790D01*
X649543Y419000D02*
X666500D01*
X669500Y422000D01*
X680500D01*
X628500Y442000D02*
X633000D01*
X634500Y440500D01*
Y431000D02*
Y440500D01*
Y431000D02*
X636000Y429500D01*
X648000D01*
X649543Y431043D01*
Y435347D01*
X615197Y365697D02*
Y372000D01*
X680110Y217610D02*
X684000Y221500D01*
X663000Y221000D02*
X666390Y217610D01*
X680110D01*
X473000Y324500D02*
X487000D01*
X497429Y334929D01*
X510000D01*
X519550Y358450D02*
Y392210D01*
X645500Y427500D02*
X655500D01*
X670000Y442000D01*
X680500D01*
X511000Y372500D02*
X517000Y366500D01*
X511000Y372500D02*
Y408500D01*
X514710Y412210D01*
X503346Y350303D02*
X503543Y350500D01*
X507800D01*
X510858Y353558D01*
Y361000D01*
Y367142D01*
X507100Y370900D02*
X510858Y367142D01*
X507100Y370900D02*
Y444300D01*
X510010Y447210D01*
X519550D01*
X381250Y265626D02*
Y278051D01*
Y265626D02*
X385750Y261126D01*
X389126D01*
X391000Y263000D01*
Y266000D01*
X519500Y322000D02*
X525500Y328000D01*
Y333500D01*
X532587D02*
Y345413D01*
X519550Y358450D02*
X532587Y345413D01*
X513740Y326071D02*
X518071D01*
X520000Y328000D01*
X579750Y353250D02*
X582000Y351000D01*
X621283D01*
X633968Y338315D01*
X582000Y354672D02*
X583672Y353000D01*
X584000Y356500D02*
X585500Y355000D01*
X619500D01*
X652028Y387528D01*
X583672Y353000D02*
X681000D01*
X684000Y350000D01*
Y221500D02*
Y350000D01*
X548090Y421300D02*
Y426810D01*
Y432320D01*
X427000Y267500D02*
X433000Y273500D01*
X427000Y265000D02*
Y267500D01*
X529500Y407000D02*
X572000D01*
X527000Y409500D02*
X529500Y407000D01*
X527000Y409500D02*
Y420000D01*
X527500Y404500D02*
X571000D01*
X524790Y407210D02*
X527500Y404500D01*
X519550Y407210D02*
X524790D01*
X569790Y402210D02*
X579750Y392250D01*
X519550Y402210D02*
X569790D01*
X599790Y392210D02*
X608307Y383693D01*
Y372197D02*
Y383500D01*
Y383693D01*
X619543Y336154D02*
Y345500D01*
D38*
X637000Y277000D02*
Y308000D01*
Y221000D02*
Y277000D01*
X643764Y270236D01*
X671433D01*
X645764Y212236D02*
X671433D01*
X637000Y221000D02*
X645764Y212236D01*
X633500Y311500D02*
X637000Y308000D01*
X621898Y311500D02*
X633500D01*
X636000Y163706D02*
Y208150D01*
X631150Y213000D02*
X636000Y208150D01*
X598000Y166000D02*
Y208150D01*
X593150Y213000D02*
X598000Y208150D01*
X560000Y166000D02*
Y208150D01*
X555150Y213000D02*
X560000Y208150D01*
X362000Y251000D02*
Y292000D01*
X355736Y298264D02*
X362000Y292000D01*
X348496Y298264D02*
X355736D01*
X359736Y313264D02*
X368000Y305000D01*
Y248000D02*
Y305000D01*
X356264Y236264D02*
X368000Y248000D01*
X529000Y187646D02*
X537650Y178996D01*
X545150Y213000D02*
X553000Y220850D01*
X545150Y213000D02*
X552650Y205500D01*
Y178996D02*
Y205500D01*
X621150Y213000D02*
X629000Y220850D01*
X621150Y213000D02*
X628650Y205500D01*
Y178996D02*
Y205500D01*
X583150Y213000D02*
X591000Y220850D01*
X583150Y213000D02*
X590650Y205500D01*
Y178996D02*
Y205500D01*
X605000Y187646D02*
X613650Y178996D01*
X567000Y187646D02*
X575650Y178996D01*
X348496Y313264D02*
X359736D01*
X348260Y222000D02*
X348996Y221264D01*
X338000Y228000D02*
Y237000D01*
Y228000D02*
X344000Y222000D01*
X348260D01*
X356736Y236264D02*
X372000Y221000D01*
X381906D01*
X382000Y221094D01*
X348996Y236264D02*
X356264D01*
X356736D01*
X348996Y215004D02*
Y221264D01*
Y215004D02*
X353000Y211000D01*
X399000D01*
X402000Y214000D01*
Y221094D01*
X529000Y187646D02*
Y216500D01*
X546000Y233500D01*
Y240000D01*
X553000Y220850D02*
Y264398D01*
X545898Y271500D02*
X553000Y264398D01*
X567000Y187646D02*
Y217000D01*
X583898Y233898D01*
Y241500D01*
X605000Y187646D02*
Y216500D01*
X616500Y228000D01*
X621898Y233398D02*
Y241500D01*
X616500Y228000D02*
X621898Y233398D01*
Y271500D02*
X629000Y264398D01*
Y220850D02*
Y264398D01*
X583898Y271500D02*
X591000Y264398D01*
Y220850D02*
Y264398D01*
X467495Y419583D02*
Y442417D01*
X485847Y464000D02*
Y474000D01*
Y454000D02*
Y464000D01*
X506000Y452000D02*
X519340D01*
X496457Y350500D02*
Y401957D01*
X489495Y422709D02*
X497291D01*
X489495D02*
Y428995D01*
Y422709D02*
Y429005D01*
X490500Y350500D02*
X496457D01*
X484000Y357000D02*
X490500Y350500D01*
X496457Y401957D02*
X500450Y405950D01*
Y419550D01*
X497291Y422709D02*
X500450Y419550D01*
X338000Y237000D02*
X345000Y244000D01*
X355000D01*
X362000Y251000D01*
X504000Y454000D02*
X506000Y452000D01*
X485847Y454000D02*
X504000D01*
X486000Y432490D02*
X489495Y428995D01*
X467495Y442417D02*
X478417D01*
X485847Y449847D01*
X486000Y432490D02*
Y454000D01*
D39*
X473000Y324500D02*
D03*
X443000D02*
D03*
D40*
X416995Y456583D02*
D03*
X424995Y448583D02*
D03*
Y444583D02*
D03*
X408995Y468583D02*
D03*
X420995Y464583D02*
D03*
X408995D02*
D03*
X416995D02*
D03*
X420995Y460583D02*
D03*
X408995Y444583D02*
D03*
Y456583D02*
D03*
X416995Y468583D02*
D03*
X412995Y444583D02*
D03*
X424995Y468583D02*
D03*
X416995Y460583D02*
D03*
Y448583D02*
D03*
X420995Y444583D02*
D03*
X416995D02*
D03*
X420995Y456583D02*
D03*
Y452583D02*
D03*
X416995D02*
D03*
X408995D02*
D03*
Y448583D02*
D03*
X420995D02*
D03*
X412995Y464583D02*
D03*
Y448583D02*
D03*
X408995Y460583D02*
D03*
X420995Y468583D02*
D03*
X424995Y452583D02*
D03*
Y456583D02*
D03*
Y460583D02*
D03*
X412995Y468583D02*
D03*
Y452583D02*
D03*
Y456583D02*
D03*
Y460583D02*
D03*
X424995Y464583D02*
D03*
X542580Y432320D02*
D03*
X548090D02*
D03*
X553600D02*
D03*
X542580Y426810D02*
D03*
X548090D02*
D03*
X553600D02*
D03*
Y421300D02*
D03*
X548090D02*
D03*
X542580D02*
D03*
D41*
X621898Y311500D02*
D03*
Y301500D02*
D03*
Y271500D02*
D03*
Y241500D02*
D03*
X545898Y311500D02*
D03*
Y301500D02*
D03*
Y271500D02*
D03*
Y241500D02*
D03*
X583898Y311500D02*
D03*
Y301500D02*
D03*
Y271500D02*
D03*
Y241500D02*
D03*
D42*
X628650Y178996D02*
D03*
X590650D02*
D03*
X552650D02*
D03*
X348496Y298264D02*
D03*
Y313264D02*
D03*
Y328264D02*
D03*
X348996Y221264D02*
D03*
Y236264D02*
D03*
Y251264D02*
D03*
X498236Y178996D02*
D03*
X483236D02*
D03*
X468236D02*
D03*
D43*
X613650D02*
D03*
X575650D02*
D03*
X537650D02*
D03*
X453236D02*
D03*
D44*
X631150Y213000D02*
D03*
X621150D02*
D03*
X555150D02*
D03*
X545150D02*
D03*
X593150D02*
D03*
X583150D02*
D03*
X680500Y442000D02*
D03*
Y432000D02*
D03*
Y422000D02*
D03*
X628500Y412000D02*
D03*
Y422000D02*
D03*
Y432000D02*
D03*
D45*
X611150Y213000D02*
D03*
X535150D02*
D03*
X573150D02*
D03*
D46*
X348496Y343264D02*
D03*
X348996Y266264D02*
D03*
D47*
X679000Y164000D02*
D03*
Y469000D02*
D03*
X333000D02*
D03*
Y164000D02*
D03*
D48*
X675567Y328472D02*
D03*
Y338315D02*
D03*
Y348158D02*
D03*
Y377685D02*
D03*
Y358000D02*
D03*
Y367843D02*
D03*
X671433Y222079D02*
D03*
Y241764D02*
D03*
Y231921D02*
D03*
Y280079D02*
D03*
Y299764D02*
D03*
Y289921D02*
D03*
D49*
X675567Y387528D02*
D03*
X671433Y212236D02*
D03*
Y270236D02*
D03*
D50*
X680500Y412000D02*
D03*
X628500Y442000D02*
D03*
D51*
X381000Y307500D02*
D03*
X386000D02*
D03*
X428500Y213500D02*
D03*
X598000Y412000D02*
D03*
X536500Y379500D02*
D03*
X511000Y417000D02*
D03*
X396000Y307500D02*
D03*
X428500Y243500D02*
D03*
X598000Y407000D02*
D03*
Y402000D02*
D03*
Y397000D02*
D03*
X484000Y357000D02*
D03*
X615197Y365697D02*
D03*
X391000Y266000D02*
D03*
X520000Y328000D02*
D03*
X427000Y265000D02*
D03*
D52*
X631000Y393500D02*
D03*
X516000Y263000D02*
D03*
Y232000D02*
D03*
X551000Y334000D02*
D03*
X468000Y474000D02*
D03*
X483000Y331000D02*
D03*
M02*
