G04 Layer_Color=16711935*
%FSLAX25Y25*%
%MOIN*%
G70*
G01*
G75*
%ADD56C,0.00787*%
%ADD57C,0.00500*%
%ADD91C,0.00394*%
%ADD92C,0.00000*%
%ADD93C,0.00100*%
D56*
X671827Y199441D02*
G03*
X671827Y199441I-394J0D01*
G01*
Y257441D02*
G03*
X671827Y257441I-394J0D01*
G01*
D57*
X464286Y283421D02*
G03*
X464286Y283421I-1537J0D01*
G01*
Y253421D02*
G03*
X464286Y253421I-1537J0D01*
G01*
Y223421D02*
G03*
X464286Y223421I-1537J0D01*
G01*
X603413Y147500D02*
X638886D01*
Y183721D01*
X603413D02*
X638886D01*
X603413Y147500D02*
Y183721D01*
X565413Y147500D02*
X600886D01*
Y183721D01*
X565413D02*
X600886D01*
X565413Y147500D02*
Y183721D01*
X527413Y147500D02*
X562886D01*
Y183721D01*
X527413D02*
X562886D01*
X527413Y147500D02*
Y183721D01*
X459205Y287555D02*
X484795D01*
Y269445D02*
Y287555D01*
X459205Y269445D02*
X484795D01*
X459205D02*
Y287555D01*
X317000Y288028D02*
Y353500D01*
Y288028D02*
X353221D01*
Y353500D01*
X317000D02*
X353221D01*
X317500Y211028D02*
Y276500D01*
Y211028D02*
X353720D01*
Y276500D01*
X317500D02*
X353720D01*
X662181Y318827D02*
X684819D01*
Y397173D01*
X662181D02*
X684819D01*
X662181Y318827D02*
Y397173D01*
Y251410D02*
X684819D01*
X662181Y202591D02*
Y251410D01*
Y202591D02*
X684819D01*
Y251410D01*
X662181Y309409D02*
X684819D01*
X662181Y260591D02*
Y309409D01*
Y260591D02*
X684819D01*
Y309409D01*
X459205Y257555D02*
X484795D01*
Y239445D02*
Y257555D01*
X459205Y239445D02*
X484795D01*
X459205D02*
Y257555D01*
Y227555D02*
X484795D01*
Y209445D02*
Y227555D01*
X459205Y209445D02*
X484795D01*
X459205D02*
Y227555D01*
X443000Y147500D02*
X508472D01*
Y183721D01*
X443000D02*
X508472D01*
X443000Y147500D02*
Y183721D01*
D91*
X397018Y291831D02*
G03*
X397018Y291831I-1969J0D01*
G01*
X620232Y342744D02*
Y348256D01*
X611768Y342744D02*
Y348256D01*
Y342744D02*
X620232D01*
X611768Y348256D02*
X620232D01*
X444232Y222437D02*
Y227949D01*
X435768Y222437D02*
Y227949D01*
Y222437D02*
X444232D01*
X435768Y227949D02*
X444232D01*
Y253218D02*
Y258730D01*
X435768Y253218D02*
Y258730D01*
Y253218D02*
X444232D01*
X435768Y258730D02*
X444232D01*
X533276Y330744D02*
Y336256D01*
X524811Y330744D02*
Y336256D01*
Y330744D02*
X533276D01*
X524811Y336256D02*
X533276D01*
X515906Y327744D02*
Y333256D01*
X504095Y327744D02*
Y333256D01*
X515906D01*
X504095Y327744D02*
X515906D01*
X407518Y270744D02*
Y276256D01*
X415982Y270744D02*
Y276256D01*
X407518D02*
X415982D01*
X407518Y270744D02*
X415982D01*
X396523Y429811D02*
X437468D01*
X396523Y466819D02*
X437468D01*
X396523Y429811D02*
Y466819D01*
X437468Y429811D02*
Y466819D01*
X469728Y362244D02*
Y367756D01*
X461263Y362244D02*
Y367756D01*
Y362244D02*
X469728D01*
X461263Y367756D02*
X469728D01*
X500768Y273244D02*
Y278756D01*
X509232Y273244D02*
Y278756D01*
X500768D02*
X509232D01*
X500768Y273244D02*
X509232D01*
X526905Y278000D02*
Y283512D01*
X515095Y278000D02*
Y283512D01*
X526905D01*
X515095Y278000D02*
X526905D01*
X484180Y410307D02*
Y423693D01*
X494810Y410307D02*
Y423693D01*
X484180Y410307D02*
X494810D01*
X484180Y423693D02*
X494810D01*
X444232Y281937D02*
Y287449D01*
X435768Y281937D02*
Y287449D01*
Y281937D02*
X444232D01*
X435768Y287449D02*
X444232D01*
X500768Y243744D02*
Y249256D01*
X509232Y243744D02*
Y249256D01*
X500768D02*
X509232D01*
X500768Y243744D02*
X509232D01*
X526905Y248500D02*
Y254012D01*
X515095Y248500D02*
Y254012D01*
X526905D01*
X515095Y248500D02*
X526905D01*
Y218500D02*
Y224012D01*
X515095Y218500D02*
Y224012D01*
X526905D01*
X515095Y218500D02*
X526905D01*
X500768Y213744D02*
Y219256D01*
X509232Y213744D02*
Y219256D01*
X500768D02*
X509232D01*
X500768Y213744D02*
X509232D01*
X641768Y416244D02*
Y421756D01*
X650232Y416244D02*
Y421756D01*
X641768D02*
X650232D01*
X641768Y416244D02*
X650232D01*
X641768Y432744D02*
Y438256D01*
X650232Y432744D02*
Y438256D01*
X641768D02*
X650232D01*
X641768Y432744D02*
X650232D01*
X405307Y318315D02*
X418693D01*
X405307Y307685D02*
X418693D01*
X405307D02*
Y318315D01*
X418693Y307685D02*
Y318315D01*
X407518Y288744D02*
Y294256D01*
X415982Y288744D02*
Y294256D01*
X407518D02*
X415982D01*
X407518Y288744D02*
X415982D01*
X407518Y279744D02*
Y285256D01*
X415982Y279744D02*
Y285256D01*
X407518D02*
X415982D01*
X407518Y279744D02*
X415982D01*
X407518Y297744D02*
Y303256D01*
X415982Y297744D02*
Y303256D01*
X407518D02*
X415982D01*
X407518Y297744D02*
X415982D01*
X378907Y295374D02*
X398592D01*
X378907Y279626D02*
X398592D01*
Y295374D01*
X378907Y279626D02*
Y295374D01*
X373994Y252268D02*
X379506D01*
X373994Y260732D02*
X379506D01*
X373994Y252268D02*
Y260732D01*
X379506Y252268D02*
Y260732D01*
X607323Y380646D02*
X615984D01*
X607323Y386354D02*
X615984D01*
Y380646D02*
Y386354D01*
X607323Y380646D02*
Y386354D01*
X607421Y369244D02*
Y374756D01*
X615886Y369244D02*
Y374756D01*
X607421D02*
X615886D01*
X607421Y369244D02*
X615886D01*
X495669Y344854D02*
X504331D01*
X495669Y339146D02*
X504331D01*
X495669D02*
Y344854D01*
X504331Y339146D02*
Y344854D01*
X504232Y347744D02*
Y353256D01*
X495768Y347744D02*
Y353256D01*
Y347744D02*
X504232D01*
X495768Y353256D02*
X504232D01*
X478169Y476854D02*
X486831D01*
X478169Y471146D02*
X486831D01*
X478169D02*
Y476854D01*
X486831Y471146D02*
Y476854D01*
X478169Y466854D02*
X486831D01*
X478169Y461146D02*
X486831D01*
X478169D02*
Y466854D01*
X486831Y461146D02*
Y466854D01*
X478169Y456854D02*
X486831D01*
X478169Y451146D02*
X486831D01*
X478169D02*
Y456854D01*
X486831Y451146D02*
Y456854D01*
X454306Y423716D02*
X480684D01*
X454306Y438283D02*
X480684D01*
X454306Y423716D02*
Y438283D01*
X480684Y423716D02*
Y438283D01*
D92*
X330005Y394000D02*
G03*
X330005Y394000I-300J0D01*
G01*
X335300Y400700D02*
G03*
X337700Y400700I1200J0D01*
G01*
X615797Y314925D02*
G03*
X618197Y314925I1200J0D01*
G01*
X539797D02*
G03*
X542197Y314925I1200J0D01*
G01*
X577797D02*
G03*
X580197Y314925I1200J0D01*
G01*
X407118Y228219D02*
G03*
X407118Y225819I0J-1200D01*
G01*
X402300Y233795D02*
G03*
X402300Y233795I-300J0D01*
G01*
X387118Y228219D02*
G03*
X387118Y225819I0J-1200D01*
G01*
X382300Y233795D02*
G03*
X382300Y233795I-300J0D01*
G01*
D93*
X518550Y386300D02*
Y486700D01*
X589450D01*
Y386300D02*
Y486700D01*
X518550Y386300D02*
X589450D01*
X561800Y353700D02*
X586200D01*
Y368300D01*
X561800D02*
X586200D01*
X561800Y353700D02*
Y368300D01*
X514800D02*
X539200D01*
X514800Y353700D02*
Y368300D01*
Y353700D02*
X539200D01*
Y368300D01*
X328100Y387300D02*
X344900D01*
Y400700D01*
X328100D02*
X344900D01*
X328100Y387300D02*
Y400700D01*
X607056Y236303D02*
Y314925D01*
X626938D01*
Y236303D02*
Y314925D01*
X607056Y236303D02*
X626938D01*
X403595Y360700D02*
Y401300D01*
X443395D01*
Y360700D02*
Y401300D01*
X403595Y360700D02*
X443395D01*
X531056Y236303D02*
Y314925D01*
X550938D01*
Y236303D02*
Y314925D01*
X531056Y236303D02*
X550938D01*
X569056D02*
Y314925D01*
X588938D01*
Y236303D02*
Y314925D01*
X569056Y236303D02*
X588938D01*
X396882Y235400D02*
X407118D01*
Y218600D02*
Y235400D01*
X396882Y218600D02*
X407118D01*
X396882D02*
Y235400D01*
X376882D02*
X387118D01*
Y218600D02*
Y235400D01*
X376882Y218600D02*
X387118D01*
X376882D02*
Y235400D01*
M02*
