G04 Layer_Color=16711935*
%FSLAX25Y25*%
%MOIN*%
G70*
G01*
G75*
%ADD41C,0.06300*%
%ADD78C,0.07000*%
%ADD79C,0.03600*%
%ADD80C,0.07887*%
%ADD81R,0.07887X0.07887*%
%ADD82C,0.06706*%
%ADD83R,0.06706X0.06706*%
%ADD84R,0.07887X0.07887*%
%ADD85C,0.22453*%
%ADD86C,0.06737*%
%ADD87R,0.06737X0.06737*%
%ADD88R,0.06706X0.06706*%
%ADD89C,0.04000*%
%ADD90C,0.05800*%
D41*
X621898Y311500D02*
D03*
Y301500D02*
D03*
Y271500D02*
D03*
Y241500D02*
D03*
X545898Y311500D02*
D03*
Y301500D02*
D03*
Y271500D02*
D03*
Y241500D02*
D03*
X583898Y311500D02*
D03*
Y301500D02*
D03*
Y271500D02*
D03*
Y241500D02*
D03*
D78*
X473000Y324500D02*
D03*
X443000D02*
D03*
D79*
X416995Y456583D02*
D03*
X424995Y448583D02*
D03*
Y444583D02*
D03*
X408995Y468583D02*
D03*
X420995Y464583D02*
D03*
X408995D02*
D03*
X416995D02*
D03*
X420995Y460583D02*
D03*
X408995Y444583D02*
D03*
Y456583D02*
D03*
X416995Y468583D02*
D03*
X412995Y444583D02*
D03*
X424995Y468583D02*
D03*
X416995Y460583D02*
D03*
Y448583D02*
D03*
X420995Y444583D02*
D03*
X416995D02*
D03*
X420995Y456583D02*
D03*
Y452583D02*
D03*
X416995D02*
D03*
X408995D02*
D03*
Y448583D02*
D03*
X420995D02*
D03*
X412995Y464583D02*
D03*
Y448583D02*
D03*
X408995Y460583D02*
D03*
X420995Y468583D02*
D03*
X424995Y452583D02*
D03*
Y456583D02*
D03*
Y460583D02*
D03*
X412995Y468583D02*
D03*
Y452583D02*
D03*
Y456583D02*
D03*
Y460583D02*
D03*
X424995Y464583D02*
D03*
X542580Y432320D02*
D03*
X548090D02*
D03*
X553600D02*
D03*
X542580Y426810D02*
D03*
X548090D02*
D03*
X553600D02*
D03*
Y421300D02*
D03*
X548090D02*
D03*
X542580D02*
D03*
D80*
X628650Y178996D02*
D03*
X590650D02*
D03*
X552650D02*
D03*
X348496Y298264D02*
D03*
Y313264D02*
D03*
Y328264D02*
D03*
X348996Y221264D02*
D03*
Y236264D02*
D03*
Y251264D02*
D03*
X498236Y178996D02*
D03*
X483236D02*
D03*
X468236D02*
D03*
D81*
X613650D02*
D03*
X575650D02*
D03*
X537650D02*
D03*
X453236D02*
D03*
D82*
X631150Y213000D02*
D03*
X621150D02*
D03*
X555150D02*
D03*
X545150D02*
D03*
X593150D02*
D03*
X583150D02*
D03*
X680500Y442000D02*
D03*
Y432000D02*
D03*
Y422000D02*
D03*
X628500Y412000D02*
D03*
Y422000D02*
D03*
Y432000D02*
D03*
D83*
X611150Y213000D02*
D03*
X535150D02*
D03*
X573150D02*
D03*
D84*
X348496Y343264D02*
D03*
X348996Y266264D02*
D03*
D85*
X679000Y164000D02*
D03*
Y469000D02*
D03*
X333000D02*
D03*
Y164000D02*
D03*
D86*
X675567Y328472D02*
D03*
Y338315D02*
D03*
Y348158D02*
D03*
Y377685D02*
D03*
Y358000D02*
D03*
Y367843D02*
D03*
X671433Y222079D02*
D03*
Y241764D02*
D03*
Y231921D02*
D03*
Y280079D02*
D03*
Y299764D02*
D03*
Y289921D02*
D03*
D87*
X675567Y387528D02*
D03*
X671433Y212236D02*
D03*
Y270236D02*
D03*
D88*
X680500Y412000D02*
D03*
X628500Y442000D02*
D03*
D89*
X381000Y307500D02*
D03*
X386000D02*
D03*
X428500Y213500D02*
D03*
X598000Y412000D02*
D03*
X536500Y379500D02*
D03*
X511000Y417000D02*
D03*
X396000Y307500D02*
D03*
X428500Y243500D02*
D03*
X598000Y407000D02*
D03*
Y402000D02*
D03*
Y397000D02*
D03*
X484000Y357000D02*
D03*
X615197Y365697D02*
D03*
X391000Y266000D02*
D03*
X520000Y328000D02*
D03*
X427000Y265000D02*
D03*
D90*
X631000Y393500D02*
D03*
X516000Y263000D02*
D03*
Y232000D02*
D03*
X551000Y334000D02*
D03*
X468000Y474000D02*
D03*
X483000Y331000D02*
D03*
M02*
