G04 Layer_Physical_Order=2*
G04 Layer_Color=16711680*
%FSLAX25Y25*%
%MOIN*%
G70*
G01*
G75*
%ADD37C,0.01000*%
%ADD38C,0.02500*%
%ADD39C,0.06200*%
%ADD40C,0.02800*%
%ADD41C,0.06300*%
%ADD42C,0.07087*%
%ADD43R,0.07087X0.07087*%
%ADD44C,0.05906*%
%ADD45R,0.05906X0.05906*%
%ADD46R,0.07087X0.07087*%
%ADD47C,0.21654*%
%ADD48C,0.05937*%
%ADD49R,0.05937X0.05937*%
%ADD50R,0.05906X0.05906*%
%ADD51C,0.03200*%
%ADD52C,0.05000*%
G36*
X695675Y147326D02*
X316325D01*
Y485674D01*
X494000D01*
Y460000D01*
X614000D01*
Y485674D01*
X695675D01*
Y147326D01*
D02*
G37*
%LPC*%
G36*
X468500Y477464D02*
Y474500D01*
X471464D01*
X471410Y474914D01*
X471057Y475765D01*
X470496Y476496D01*
X469765Y477057D01*
X468914Y477410D01*
X468500Y477464D01*
D02*
G37*
G36*
X467500D02*
X467086Y477410D01*
X466235Y477057D01*
X465504Y476496D01*
X464943Y475765D01*
X464590Y474914D01*
X464536Y474500D01*
X467500D01*
Y477464D01*
D02*
G37*
G36*
X471464Y473500D02*
X468500D01*
Y470536D01*
X468914Y470590D01*
X469765Y470943D01*
X470496Y471504D01*
X471057Y472235D01*
X471410Y473086D01*
X471464Y473500D01*
D02*
G37*
G36*
X467500D02*
X464536D01*
X464590Y473086D01*
X464943Y472235D01*
X465504Y471504D01*
X466235Y470943D01*
X467086Y470590D01*
X467500Y470536D01*
Y473500D01*
D02*
G37*
G36*
X680500Y445987D02*
X679468Y445851D01*
X678507Y445453D01*
X677681Y444819D01*
X677047Y443993D01*
X676649Y443032D01*
X676513Y442000D01*
X676649Y440968D01*
X677047Y440007D01*
X677681Y439181D01*
X678507Y438547D01*
X679468Y438149D01*
X680500Y438013D01*
X681532Y438149D01*
X682493Y438547D01*
X683319Y439181D01*
X683953Y440007D01*
X684351Y440968D01*
X684487Y442000D01*
X684351Y443032D01*
X683953Y443993D01*
X683319Y444819D01*
X682493Y445453D01*
X681532Y445851D01*
X680500Y445987D01*
D02*
G37*
G36*
X629000Y435921D02*
Y432500D01*
X632421D01*
X632351Y433032D01*
X631953Y433993D01*
X631319Y434819D01*
X630493Y435453D01*
X629532Y435851D01*
X629000Y435921D01*
D02*
G37*
G36*
X628000D02*
X627468Y435851D01*
X626507Y435453D01*
X625681Y434819D01*
X625047Y433993D01*
X624649Y433032D01*
X624579Y432500D01*
X628000D01*
Y435921D01*
D02*
G37*
G36*
X632421Y431500D02*
X629000D01*
Y428079D01*
X629532Y428149D01*
X630493Y428547D01*
X631319Y429181D01*
X631953Y430007D01*
X632351Y430968D01*
X632421Y431500D01*
D02*
G37*
G36*
X628000D02*
X624579D01*
X624649Y430968D01*
X625047Y430007D01*
X625681Y429181D01*
X626507Y428547D01*
X627468Y428149D01*
X628000Y428079D01*
Y431500D01*
D02*
G37*
G36*
X680500Y435987D02*
X679468Y435851D01*
X678507Y435453D01*
X677681Y434819D01*
X677047Y433993D01*
X676649Y433032D01*
X676513Y432000D01*
X676649Y430968D01*
X677047Y430007D01*
X677681Y429181D01*
X678507Y428547D01*
X679468Y428149D01*
X680500Y428013D01*
X681532Y428149D01*
X682493Y428547D01*
X683319Y429181D01*
X683953Y430007D01*
X684351Y430968D01*
X684487Y432000D01*
X684351Y433032D01*
X683953Y433993D01*
X683319Y434819D01*
X682493Y435453D01*
X681532Y435851D01*
X680500Y435987D01*
D02*
G37*
G36*
X628500Y425987D02*
X627468Y425851D01*
X626507Y425453D01*
X625681Y424819D01*
X625047Y423993D01*
X624649Y423032D01*
X624513Y422000D01*
X624649Y420968D01*
X625047Y420007D01*
X625681Y419181D01*
X626507Y418547D01*
X627468Y418149D01*
X628500Y418013D01*
X629532Y418149D01*
X630493Y418547D01*
X631319Y419181D01*
X631953Y420007D01*
X632351Y420968D01*
X632487Y422000D01*
X632351Y423032D01*
X631953Y423993D01*
X631319Y424819D01*
X630493Y425453D01*
X629532Y425851D01*
X628500Y425987D01*
D02*
G37*
G36*
X684453Y415953D02*
X681000D01*
Y412500D01*
X684453D01*
Y415953D01*
D02*
G37*
G36*
X680000D02*
X676547D01*
Y412500D01*
X680000D01*
Y415953D01*
D02*
G37*
G36*
X684453Y411500D02*
X681000D01*
Y408047D01*
X684453D01*
Y411500D01*
D02*
G37*
G36*
X680000D02*
X676547D01*
Y408047D01*
X680000D01*
Y411500D01*
D02*
G37*
G36*
X628500Y415987D02*
X627468Y415851D01*
X626507Y415453D01*
X625681Y414819D01*
X625047Y413993D01*
X624649Y413032D01*
X624513Y412000D01*
X624649Y410968D01*
X625047Y410007D01*
X625681Y409181D01*
X626507Y408547D01*
X627468Y408149D01*
X628500Y408013D01*
X629532Y408149D01*
X630493Y408547D01*
X631319Y409181D01*
X631953Y410007D01*
X632351Y410968D01*
X632487Y412000D01*
X632351Y413032D01*
X631953Y413993D01*
X631319Y414819D01*
X630493Y415453D01*
X629532Y415851D01*
X628500Y415987D01*
D02*
G37*
G36*
X631500Y396964D02*
Y394000D01*
X634464D01*
X634410Y394414D01*
X634057Y395265D01*
X633496Y395996D01*
X632765Y396557D01*
X631914Y396910D01*
X631500Y396964D01*
D02*
G37*
G36*
X630500D02*
X630086Y396910D01*
X629235Y396557D01*
X628504Y395996D01*
X627943Y395265D01*
X627590Y394414D01*
X627536Y394000D01*
X630500D01*
Y396964D01*
D02*
G37*
G36*
X634464Y393000D02*
X631500D01*
Y390036D01*
X631914Y390090D01*
X632765Y390443D01*
X633496Y391004D01*
X634057Y391735D01*
X634410Y392586D01*
X634464Y393000D01*
D02*
G37*
G36*
X630500D02*
X627536D01*
X627590Y392586D01*
X627943Y391735D01*
X628504Y391004D01*
X629235Y390443D01*
X630086Y390090D01*
X630500Y390036D01*
Y393000D01*
D02*
G37*
G36*
X679535Y391496D02*
X671598D01*
Y383559D01*
X679535D01*
Y391496D01*
D02*
G37*
G36*
X675567Y381688D02*
X674531Y381551D01*
X673566Y381152D01*
X672737Y380515D01*
X672100Y379686D01*
X671701Y378721D01*
X671564Y377685D01*
X671701Y376649D01*
X672100Y375684D01*
X672737Y374855D01*
X673566Y374219D01*
X674531Y373819D01*
X675567Y373682D01*
X676603Y373819D01*
X677568Y374219D01*
X678397Y374855D01*
X679033Y375684D01*
X679433Y376649D01*
X679570Y377685D01*
X679433Y378721D01*
X679033Y379686D01*
X678397Y380515D01*
X677568Y381152D01*
X676603Y381551D01*
X675567Y381688D01*
D02*
G37*
G36*
Y371845D02*
X674531Y371709D01*
X673566Y371309D01*
X672737Y370673D01*
X672100Y369844D01*
X671701Y368879D01*
X671564Y367843D01*
X671701Y366807D01*
X672100Y365841D01*
X672737Y365012D01*
X673566Y364376D01*
X674531Y363976D01*
X675567Y363840D01*
X676603Y363976D01*
X677568Y364376D01*
X678397Y365012D01*
X679033Y365841D01*
X679433Y366807D01*
X679570Y367843D01*
X679433Y368879D01*
X679033Y369844D01*
X678397Y370673D01*
X677568Y371309D01*
X676603Y371709D01*
X675567Y371845D01*
D02*
G37*
G36*
Y362003D02*
X674531Y361866D01*
X673566Y361467D01*
X672737Y360830D01*
X672100Y360001D01*
X671701Y359036D01*
X671564Y358000D01*
X671701Y356964D01*
X672100Y355999D01*
X672737Y355170D01*
X673566Y354534D01*
X674531Y354134D01*
X675567Y353997D01*
X676603Y354134D01*
X677568Y354534D01*
X678397Y355170D01*
X679033Y355999D01*
X679433Y356964D01*
X679570Y358000D01*
X679433Y359036D01*
X679033Y360001D01*
X678397Y360830D01*
X677568Y361467D01*
X676603Y361866D01*
X675567Y362003D01*
D02*
G37*
G36*
X676067Y352094D02*
Y348657D01*
X679504D01*
X679433Y349194D01*
X679033Y350159D01*
X678397Y350988D01*
X677568Y351624D01*
X676603Y352024D01*
X676067Y352094D01*
D02*
G37*
G36*
X675067Y352094D02*
X674531Y352024D01*
X673566Y351624D01*
X672737Y350988D01*
X672100Y350159D01*
X671701Y349194D01*
X671630Y348657D01*
X675067D01*
Y352094D01*
D02*
G37*
G36*
X679504Y347657D02*
X676067D01*
Y344221D01*
X676603Y344291D01*
X677568Y344691D01*
X678397Y345327D01*
X679033Y346156D01*
X679433Y347122D01*
X679504Y347657D01*
D02*
G37*
G36*
X675067D02*
X671630D01*
X671701Y347122D01*
X672100Y346156D01*
X672737Y345327D01*
X673566Y344691D01*
X674531Y344291D01*
X675067Y344221D01*
Y347657D01*
D02*
G37*
G36*
X353039Y347807D02*
X343953D01*
Y338720D01*
X353039D01*
Y347807D01*
D02*
G37*
G36*
X551500Y337464D02*
Y334500D01*
X554464D01*
X554410Y334914D01*
X554057Y335765D01*
X553496Y336496D01*
X552765Y337057D01*
X551914Y337410D01*
X551500Y337464D01*
D02*
G37*
G36*
X550500D02*
X550086Y337410D01*
X549235Y337057D01*
X548504Y336496D01*
X547943Y335765D01*
X547590Y334914D01*
X547536Y334500D01*
X550500D01*
Y337464D01*
D02*
G37*
G36*
X675567Y342318D02*
X674531Y342181D01*
X673566Y341781D01*
X672737Y341145D01*
X672100Y340316D01*
X671701Y339351D01*
X671564Y338315D01*
X671701Y337279D01*
X672100Y336314D01*
X672737Y335485D01*
X673566Y334848D01*
X674531Y334449D01*
X675567Y334312D01*
X676603Y334449D01*
X677568Y334848D01*
X678397Y335485D01*
X679033Y336314D01*
X679433Y337279D01*
X679570Y338315D01*
X679433Y339351D01*
X679033Y340316D01*
X678397Y341145D01*
X677568Y341781D01*
X676603Y342181D01*
X675567Y342318D01*
D02*
G37*
G36*
X483500Y334464D02*
Y331500D01*
X486464D01*
X486410Y331914D01*
X486057Y332765D01*
X485496Y333496D01*
X484765Y334057D01*
X483914Y334410D01*
X483500Y334464D01*
D02*
G37*
G36*
X482500D02*
X482086Y334410D01*
X481235Y334057D01*
X480504Y333496D01*
X479943Y332765D01*
X479590Y331914D01*
X479536Y331500D01*
X482500D01*
Y334464D01*
D02*
G37*
G36*
X632453Y445953D02*
X624547D01*
Y438047D01*
X632453D01*
Y439706D01*
X650050D01*
X669378Y420378D01*
X670122Y419881D01*
X671000Y419706D01*
X677278D01*
X677681Y419181D01*
X678507Y418547D01*
X679468Y418149D01*
X680500Y418013D01*
X681532Y418149D01*
X682493Y418547D01*
X683319Y419181D01*
X683610Y419560D01*
X684168Y419587D01*
X685706Y418050D01*
Y332450D01*
X684022Y330767D01*
X678809D01*
X678397Y331303D01*
X677568Y331939D01*
X676603Y332339D01*
X675567Y332475D01*
X674531Y332339D01*
X673566Y331939D01*
X672737Y331303D01*
X672325Y330767D01*
X627978D01*
X617491Y341253D01*
Y364441D01*
X617730Y365018D01*
X617819Y365697D01*
X617730Y366376D01*
X617491Y366953D01*
Y375021D01*
X617316Y375899D01*
X616819Y376643D01*
X606090Y387372D01*
X605479Y387780D01*
X605334Y388343D01*
X608581Y391590D01*
X608913Y392086D01*
X609029Y392672D01*
Y408000D01*
X608913Y408585D01*
X608581Y409081D01*
X604581Y413081D01*
X604085Y413413D01*
X603500Y413529D01*
X600104D01*
X599854Y413854D01*
X599311Y414271D01*
X598679Y414533D01*
X598000Y414622D01*
X597321Y414533D01*
X596689Y414271D01*
X596146Y413854D01*
X595729Y413311D01*
X595467Y412679D01*
X595378Y412000D01*
X595467Y411321D01*
X595729Y410689D01*
X596146Y410146D01*
X596618Y409783D01*
X596657Y409500D01*
X596618Y409217D01*
X596146Y408854D01*
X595729Y408311D01*
X595467Y407679D01*
X595378Y407000D01*
X595431Y406594D01*
X585866Y397029D01*
X509346D01*
X509154Y397491D01*
X512081Y400419D01*
X512413Y400915D01*
X512529Y401500D01*
Y414896D01*
X512854Y415146D01*
X513271Y415689D01*
X513533Y416321D01*
X513622Y417000D01*
X513533Y417679D01*
X513271Y418311D01*
X512854Y418854D01*
X512311Y419271D01*
X511679Y419533D01*
X511000Y419622D01*
X510321Y419533D01*
X509689Y419271D01*
X509146Y418854D01*
X508729Y418311D01*
X508467Y417679D01*
X508378Y417000D01*
X508467Y416321D01*
X508729Y415689D01*
X509146Y415146D01*
X509471Y414896D01*
Y402134D01*
X506867Y399529D01*
X481500D01*
X480915Y399413D01*
X480419Y399081D01*
X393866Y312529D01*
X379500D01*
X378915Y312413D01*
X378419Y312081D01*
X376419Y310081D01*
X376087Y309585D01*
X375971Y309000D01*
Y298500D01*
X376087Y297915D01*
X376419Y297419D01*
X378419Y295419D01*
X378915Y295087D01*
X379500Y294971D01*
X418866D01*
X422971Y290866D01*
Y267517D01*
X422819Y267366D01*
X422487Y266869D01*
X422371Y266284D01*
Y248100D01*
X422487Y247515D01*
X422819Y247019D01*
X425931Y243906D01*
X425878Y243500D01*
X425967Y242821D01*
X426229Y242189D01*
X426646Y241646D01*
X427189Y241229D01*
X427821Y240967D01*
X428500Y240878D01*
X429179Y240967D01*
X429811Y241229D01*
X430354Y241646D01*
X430771Y242189D01*
X431033Y242821D01*
X431122Y243500D01*
X431033Y244179D01*
X430771Y244811D01*
X430354Y245354D01*
X429811Y245771D01*
X429179Y246033D01*
X428500Y246122D01*
X428094Y246069D01*
X425429Y248733D01*
Y262335D01*
X425929Y262629D01*
X426321Y262467D01*
X427000Y262378D01*
X427679Y262467D01*
X428311Y262729D01*
X428854Y263146D01*
X429271Y263689D01*
X429533Y264321D01*
X429622Y265000D01*
X429533Y265679D01*
X429271Y266311D01*
X428854Y266854D01*
X428834Y267171D01*
X431081Y269419D01*
X431413Y269915D01*
X431529Y270500D01*
Y324366D01*
X432035Y324872D01*
X432496Y324626D01*
X432471Y324500D01*
Y219634D01*
X428906Y216069D01*
X428500Y216122D01*
X427821Y216033D01*
X427189Y215771D01*
X426646Y215354D01*
X426229Y214811D01*
X425967Y214179D01*
X425878Y213500D01*
X425967Y212821D01*
X426229Y212189D01*
X426646Y211646D01*
X427189Y211229D01*
X427821Y210967D01*
X428500Y210878D01*
X429179Y210967D01*
X429811Y211229D01*
X430354Y211646D01*
X430771Y212189D01*
X431033Y212821D01*
X431122Y213500D01*
X431069Y213906D01*
X435081Y217919D01*
X435413Y218415D01*
X435529Y219000D01*
Y222980D01*
X436029Y223132D01*
X436378Y222610D01*
X478809Y180179D01*
X478654Y178996D01*
X478810Y177810D01*
X479268Y176705D01*
X479996Y175756D01*
X480945Y175028D01*
X482050Y174570D01*
X483236Y174414D01*
X484422Y174570D01*
X485528Y175028D01*
X486477Y175756D01*
X487205Y176705D01*
X487663Y177810D01*
X487819Y178996D01*
X487663Y180182D01*
X487205Y181287D01*
X486477Y182236D01*
X485528Y182965D01*
X484422Y183422D01*
X483236Y183579D01*
X482054Y183423D01*
X440294Y225183D01*
Y310050D01*
X484734Y354490D01*
X485311Y354729D01*
X485854Y355146D01*
X486271Y355689D01*
X486533Y356321D01*
X486622Y357000D01*
X486533Y357679D01*
X486294Y358256D01*
Y366050D01*
X490700Y370456D01*
X548139D01*
X549017Y370631D01*
X549761Y371128D01*
X562089Y383456D01*
X603517D01*
X612903Y374070D01*
Y366953D01*
X612664Y366376D01*
X612574Y365697D01*
X612664Y365018D01*
X612903Y364441D01*
Y340303D01*
X613077Y339425D01*
X613575Y338681D01*
X625405Y326850D01*
X626150Y326353D01*
X627028Y326178D01*
X672325D01*
X672737Y325642D01*
X673566Y325006D01*
X674531Y324606D01*
X675567Y324470D01*
X676603Y324606D01*
X677568Y325006D01*
X678397Y325642D01*
X678809Y326178D01*
X684972D01*
X685850Y326353D01*
X686595Y326850D01*
X689622Y329878D01*
X690120Y330622D01*
X690294Y331500D01*
Y419000D01*
X690119Y419878D01*
X689622Y420622D01*
X686622Y423622D01*
X685878Y424119D01*
X685000Y424294D01*
X683722D01*
X683319Y424819D01*
X682493Y425453D01*
X681532Y425851D01*
X680500Y425987D01*
X679468Y425851D01*
X678507Y425453D01*
X677681Y424819D01*
X677278Y424294D01*
X671950D01*
X652622Y443622D01*
X651878Y444119D01*
X651000Y444294D01*
X632453D01*
Y445953D01*
D02*
G37*
G36*
X554464Y333500D02*
X551500D01*
Y330536D01*
X551914Y330590D01*
X552765Y330943D01*
X553496Y331504D01*
X554057Y332235D01*
X554410Y333086D01*
X554464Y333500D01*
D02*
G37*
G36*
X550500D02*
X547536D01*
X547590Y333086D01*
X547943Y332235D01*
X548504Y331504D01*
X549235Y330943D01*
X550086Y330590D01*
X550500Y330536D01*
Y333500D01*
D02*
G37*
G36*
X348996Y332781D02*
Y328764D01*
X353013D01*
X352922Y329450D01*
X352465Y330555D01*
X351736Y331504D01*
X350787Y332232D01*
X349682Y332690D01*
X348996Y332781D01*
D02*
G37*
G36*
X347996Y332781D02*
X347310Y332690D01*
X346205Y332232D01*
X345256Y331504D01*
X344528Y330555D01*
X344070Y329450D01*
X343979Y328764D01*
X347996D01*
Y332781D01*
D02*
G37*
G36*
X520500Y330557D02*
Y328500D01*
X522557D01*
X522533Y328679D01*
X522271Y329311D01*
X521854Y329854D01*
X521311Y330271D01*
X520679Y330533D01*
X520500Y330557D01*
D02*
G37*
G36*
X519500D02*
X519321Y330533D01*
X518689Y330271D01*
X518146Y329854D01*
X517729Y329311D01*
X517467Y328679D01*
X517443Y328500D01*
X519500D01*
Y330557D01*
D02*
G37*
G36*
X486464Y330500D02*
X483500D01*
Y327536D01*
X483914Y327590D01*
X484765Y327943D01*
X485496Y328504D01*
X486057Y329235D01*
X486410Y330086D01*
X486464Y330500D01*
D02*
G37*
G36*
X482500D02*
X479536D01*
X479590Y330086D01*
X479943Y329235D01*
X480504Y328504D01*
X481235Y327943D01*
X482086Y327590D01*
X482500Y327536D01*
Y330500D01*
D02*
G37*
G36*
X522557Y327500D02*
X520500D01*
Y325443D01*
X520679Y325467D01*
X521311Y325729D01*
X521854Y326146D01*
X522271Y326689D01*
X522533Y327321D01*
X522557Y327500D01*
D02*
G37*
G36*
X519500D02*
X517443D01*
X517467Y327321D01*
X517729Y326689D01*
X518146Y326146D01*
X518689Y325729D01*
X519321Y325467D01*
X519500Y325443D01*
Y327500D01*
D02*
G37*
G36*
X353013Y327764D02*
X348996D01*
Y323747D01*
X349682Y323837D01*
X350787Y324295D01*
X351736Y325024D01*
X352465Y325973D01*
X352922Y327078D01*
X353013Y327764D01*
D02*
G37*
G36*
X347996D02*
X343979D01*
X344070Y327078D01*
X344528Y325973D01*
X345256Y325024D01*
X346205Y324295D01*
X347310Y323837D01*
X347996Y323747D01*
Y327764D01*
D02*
G37*
G36*
X473000Y328635D02*
X471930Y328495D01*
X470932Y328081D01*
X470076Y327424D01*
X469419Y326568D01*
X469005Y325570D01*
X468865Y324500D01*
X469005Y323430D01*
X469419Y322432D01*
X470076Y321576D01*
X470932Y320919D01*
X471930Y320505D01*
X473000Y320365D01*
X474070Y320505D01*
X475068Y320919D01*
X475924Y321576D01*
X476581Y322432D01*
X476995Y323430D01*
X477135Y324500D01*
X476995Y325570D01*
X476581Y326568D01*
X475924Y327424D01*
X475068Y328081D01*
X474070Y328495D01*
X473000Y328635D01*
D02*
G37*
G36*
X348496Y317846D02*
X347310Y317690D01*
X346205Y317232D01*
X345256Y316504D01*
X344528Y315555D01*
X344070Y314450D01*
X343914Y313264D01*
X344070Y312078D01*
X344528Y310972D01*
X345256Y310023D01*
X346205Y309295D01*
X347310Y308837D01*
X348496Y308681D01*
X349682Y308837D01*
X350787Y309295D01*
X351736Y310023D01*
X352465Y310972D01*
X352922Y312078D01*
X353079Y313264D01*
X352922Y314450D01*
X352465Y315555D01*
X351736Y316504D01*
X350787Y317232D01*
X349682Y317690D01*
X348496Y317846D01*
D02*
G37*
G36*
X621898Y315686D02*
X620815Y315543D01*
X619805Y315125D01*
X618939Y314460D01*
X618273Y313593D01*
X617855Y312583D01*
X617713Y311500D01*
X617855Y310417D01*
X618273Y309407D01*
X618939Y308540D01*
X619805Y307875D01*
X620815Y307457D01*
X621898Y307314D01*
X622982Y307457D01*
X623991Y307875D01*
X624858Y308540D01*
X625523Y309407D01*
X625942Y310417D01*
X626084Y311500D01*
X625942Y312583D01*
X625523Y313593D01*
X624858Y314460D01*
X623991Y315125D01*
X622982Y315543D01*
X621898Y315686D01*
D02*
G37*
G36*
X583898D02*
X582815Y315543D01*
X581806Y315125D01*
X580939Y314460D01*
X580273Y313593D01*
X579855Y312583D01*
X579713Y311500D01*
X579855Y310417D01*
X580273Y309407D01*
X580939Y308540D01*
X581806Y307875D01*
X582815Y307457D01*
X583898Y307314D01*
X584982Y307457D01*
X585991Y307875D01*
X586858Y308540D01*
X587523Y309407D01*
X587942Y310417D01*
X588084Y311500D01*
X587942Y312583D01*
X587523Y313593D01*
X586858Y314460D01*
X585991Y315125D01*
X584982Y315543D01*
X583898Y315686D01*
D02*
G37*
G36*
X545898D02*
X544815Y315543D01*
X543806Y315125D01*
X542939Y314460D01*
X542273Y313593D01*
X541855Y312583D01*
X541713Y311500D01*
X541855Y310417D01*
X542273Y309407D01*
X542939Y308540D01*
X543806Y307875D01*
X544815Y307457D01*
X545898Y307314D01*
X546982Y307457D01*
X547991Y307875D01*
X548858Y308540D01*
X549523Y309407D01*
X549942Y310417D01*
X550084Y311500D01*
X549942Y312583D01*
X549523Y313593D01*
X548858Y314460D01*
X547991Y315125D01*
X546982Y315543D01*
X545898Y315686D01*
D02*
G37*
G36*
X671933Y303701D02*
Y300264D01*
X675370D01*
X675299Y300800D01*
X674899Y301765D01*
X674263Y302594D01*
X673434Y303230D01*
X672469Y303630D01*
X671933Y303701D01*
D02*
G37*
G36*
X670933Y303701D02*
X670397Y303630D01*
X669432Y303230D01*
X668603Y302594D01*
X667967Y301765D01*
X667567Y300800D01*
X667496Y300264D01*
X670933D01*
Y303701D01*
D02*
G37*
G36*
X621898Y305686D02*
X620815Y305543D01*
X619805Y305125D01*
X618939Y304460D01*
X618273Y303593D01*
X617855Y302583D01*
X617713Y301500D01*
X617855Y300417D01*
X618273Y299407D01*
X618939Y298540D01*
X619805Y297875D01*
X620815Y297457D01*
X621898Y297314D01*
X622982Y297457D01*
X623991Y297875D01*
X624858Y298540D01*
X625523Y299407D01*
X625942Y300417D01*
X626084Y301500D01*
X625942Y302583D01*
X625523Y303593D01*
X624858Y304460D01*
X623991Y305125D01*
X622982Y305543D01*
X621898Y305686D01*
D02*
G37*
G36*
X583898D02*
X582815Y305543D01*
X581806Y305125D01*
X580939Y304460D01*
X580273Y303593D01*
X579855Y302583D01*
X579713Y301500D01*
X579855Y300417D01*
X580273Y299407D01*
X580939Y298540D01*
X581806Y297875D01*
X582815Y297457D01*
X583898Y297314D01*
X584982Y297457D01*
X585991Y297875D01*
X586858Y298540D01*
X587523Y299407D01*
X587942Y300417D01*
X588084Y301500D01*
X587942Y302583D01*
X587523Y303593D01*
X586858Y304460D01*
X585991Y305125D01*
X584982Y305543D01*
X583898Y305686D01*
D02*
G37*
G36*
X545898D02*
X544815Y305543D01*
X543806Y305125D01*
X542939Y304460D01*
X542273Y303593D01*
X541855Y302583D01*
X541713Y301500D01*
X541855Y300417D01*
X542273Y299407D01*
X542939Y298540D01*
X543806Y297875D01*
X544815Y297457D01*
X545898Y297314D01*
X546982Y297457D01*
X547991Y297875D01*
X548858Y298540D01*
X549523Y299407D01*
X549942Y300417D01*
X550084Y301500D01*
X549942Y302583D01*
X549523Y303593D01*
X548858Y304460D01*
X547991Y305125D01*
X546982Y305543D01*
X545898Y305686D01*
D02*
G37*
G36*
X670933Y299264D02*
X667496D01*
X667567Y298728D01*
X667967Y297762D01*
X668603Y296933D01*
X669432Y296297D01*
X670397Y295897D01*
X670933Y295827D01*
Y299264D01*
D02*
G37*
G36*
X675370D02*
X671933D01*
Y295827D01*
X672469Y295897D01*
X673434Y296297D01*
X674263Y296933D01*
X674899Y297762D01*
X675299Y298728D01*
X675370Y299264D01*
D02*
G37*
G36*
X348496Y302846D02*
X347310Y302690D01*
X346205Y302232D01*
X345256Y301504D01*
X344528Y300555D01*
X344070Y299450D01*
X343914Y298264D01*
X344070Y297078D01*
X344528Y295972D01*
X345256Y295023D01*
X346205Y294295D01*
X347310Y293837D01*
X348496Y293681D01*
X349682Y293837D01*
X350787Y294295D01*
X351736Y295023D01*
X352465Y295972D01*
X352922Y297078D01*
X353079Y298264D01*
X352922Y299450D01*
X352465Y300555D01*
X351736Y301504D01*
X350787Y302232D01*
X349682Y302690D01*
X348496Y302846D01*
D02*
G37*
G36*
X671433Y293924D02*
X670397Y293788D01*
X669432Y293388D01*
X668603Y292752D01*
X667967Y291923D01*
X667567Y290957D01*
X667430Y289921D01*
X667567Y288885D01*
X667967Y287920D01*
X668603Y287091D01*
X669432Y286455D01*
X670397Y286055D01*
X671433Y285918D01*
X672469Y286055D01*
X673434Y286455D01*
X674263Y287091D01*
X674899Y287920D01*
X675299Y288885D01*
X675436Y289921D01*
X675299Y290957D01*
X674899Y291923D01*
X674263Y292752D01*
X673434Y293388D01*
X672469Y293788D01*
X671433Y293924D01*
D02*
G37*
G36*
Y284082D02*
X670397Y283945D01*
X669432Y283545D01*
X668603Y282909D01*
X667967Y282080D01*
X667567Y281115D01*
X667430Y280079D01*
X667567Y279043D01*
X667967Y278077D01*
X668603Y277248D01*
X669432Y276612D01*
X670397Y276212D01*
X671433Y276076D01*
X672469Y276212D01*
X673434Y276612D01*
X674263Y277248D01*
X674899Y278077D01*
X675299Y279043D01*
X675436Y280079D01*
X675299Y281115D01*
X674899Y282080D01*
X674263Y282909D01*
X673434Y283545D01*
X672469Y283945D01*
X671433Y284082D01*
D02*
G37*
G36*
X621898Y275686D02*
X620815Y275543D01*
X619805Y275125D01*
X618939Y274460D01*
X618273Y273593D01*
X617855Y272583D01*
X617713Y271500D01*
X617855Y270417D01*
X618273Y269407D01*
X618939Y268540D01*
X619805Y267875D01*
X620815Y267457D01*
X621898Y267314D01*
X622982Y267457D01*
X623991Y267875D01*
X624858Y268540D01*
X625523Y269407D01*
X625942Y270417D01*
X626084Y271500D01*
X625942Y272583D01*
X625523Y273593D01*
X624858Y274460D01*
X623991Y275125D01*
X622982Y275543D01*
X621898Y275686D01*
D02*
G37*
G36*
X583898D02*
X582815Y275543D01*
X581806Y275125D01*
X580939Y274460D01*
X580273Y273593D01*
X579855Y272583D01*
X579713Y271500D01*
X579855Y270417D01*
X580273Y269407D01*
X580939Y268540D01*
X581806Y267875D01*
X582815Y267457D01*
X583898Y267314D01*
X584982Y267457D01*
X585991Y267875D01*
X586858Y268540D01*
X587523Y269407D01*
X587942Y270417D01*
X588084Y271500D01*
X587942Y272583D01*
X587523Y273593D01*
X586858Y274460D01*
X585991Y275125D01*
X584982Y275543D01*
X583898Y275686D01*
D02*
G37*
G36*
X545898D02*
X544815Y275543D01*
X543806Y275125D01*
X542939Y274460D01*
X542273Y273593D01*
X541855Y272583D01*
X541713Y271500D01*
X541855Y270417D01*
X542273Y269407D01*
X542939Y268540D01*
X543806Y267875D01*
X544815Y267457D01*
X545898Y267314D01*
X546982Y267457D01*
X547991Y267875D01*
X548858Y268540D01*
X549523Y269407D01*
X549942Y270417D01*
X550084Y271500D01*
X549942Y272583D01*
X549523Y273593D01*
X548858Y274460D01*
X547991Y275125D01*
X546982Y275543D01*
X545898Y275686D01*
D02*
G37*
G36*
X391500Y268557D02*
Y266500D01*
X393557D01*
X393533Y266679D01*
X393271Y267311D01*
X392854Y267854D01*
X392311Y268271D01*
X391679Y268533D01*
X391500Y268557D01*
D02*
G37*
G36*
X390500D02*
X390321Y268533D01*
X389689Y268271D01*
X389146Y267854D01*
X388729Y267311D01*
X388467Y266679D01*
X388443Y266500D01*
X390500D01*
Y268557D01*
D02*
G37*
G36*
X675402Y274205D02*
X667465D01*
Y266268D01*
X675402D01*
Y274205D01*
D02*
G37*
G36*
X516500Y266464D02*
Y263500D01*
X519464D01*
X519410Y263914D01*
X519057Y264765D01*
X518496Y265496D01*
X517765Y266057D01*
X516914Y266410D01*
X516500Y266464D01*
D02*
G37*
G36*
X515500D02*
X515086Y266410D01*
X514235Y266057D01*
X513504Y265496D01*
X512943Y264765D01*
X512590Y263914D01*
X512536Y263500D01*
X515500D01*
Y266464D01*
D02*
G37*
G36*
X393557Y265500D02*
X391500D01*
Y263443D01*
X391679Y263467D01*
X392311Y263729D01*
X392854Y264146D01*
X393271Y264689D01*
X393533Y265321D01*
X393557Y265500D01*
D02*
G37*
G36*
X390500D02*
X388443D01*
X388467Y265321D01*
X388729Y264689D01*
X389146Y264146D01*
X389689Y263729D01*
X390321Y263467D01*
X390500Y263443D01*
Y265500D01*
D02*
G37*
G36*
X353539Y270807D02*
X344453D01*
Y261720D01*
X353539D01*
Y270807D01*
D02*
G37*
G36*
X519464Y262500D02*
X516500D01*
Y259536D01*
X516914Y259590D01*
X517765Y259943D01*
X518496Y260504D01*
X519057Y261235D01*
X519410Y262086D01*
X519464Y262500D01*
D02*
G37*
G36*
X515500D02*
X512536D01*
X512590Y262086D01*
X512943Y261235D01*
X513504Y260504D01*
X514235Y259943D01*
X515086Y259590D01*
X515500Y259536D01*
Y262500D01*
D02*
G37*
G36*
X349496Y255781D02*
Y251764D01*
X353513D01*
X353422Y252450D01*
X352965Y253555D01*
X352236Y254504D01*
X351287Y255232D01*
X350182Y255690D01*
X349496Y255781D01*
D02*
G37*
G36*
X348496Y255781D02*
X347810Y255690D01*
X346705Y255232D01*
X345756Y254504D01*
X345027Y253555D01*
X344570Y252450D01*
X344479Y251764D01*
X348496D01*
Y255781D01*
D02*
G37*
G36*
X353513Y250764D02*
X349496D01*
Y246747D01*
X350182Y246837D01*
X351287Y247295D01*
X352236Y248024D01*
X352965Y248973D01*
X353422Y250078D01*
X353513Y250764D01*
D02*
G37*
G36*
X348496D02*
X344479D01*
X344570Y250078D01*
X345027Y248973D01*
X345756Y248024D01*
X346705Y247295D01*
X347810Y246837D01*
X348496Y246747D01*
Y250764D01*
D02*
G37*
G36*
X671933Y245701D02*
Y242264D01*
X675370D01*
X675299Y242800D01*
X674899Y243765D01*
X674263Y244594D01*
X673434Y245230D01*
X672469Y245630D01*
X671933Y245701D01*
D02*
G37*
G36*
X670933Y245701D02*
X670397Y245630D01*
X669432Y245230D01*
X668603Y244594D01*
X667967Y243765D01*
X667567Y242800D01*
X667496Y242264D01*
X670933D01*
Y245701D01*
D02*
G37*
G36*
Y241264D02*
X667496D01*
X667567Y240728D01*
X667967Y239762D01*
X668603Y238933D01*
X669432Y238297D01*
X670397Y237897D01*
X670933Y237827D01*
Y241264D01*
D02*
G37*
G36*
X675370D02*
X671933D01*
Y237827D01*
X672469Y237897D01*
X673434Y238297D01*
X674263Y238933D01*
X674899Y239762D01*
X675299Y240728D01*
X675370Y241264D01*
D02*
G37*
G36*
X621898Y245686D02*
X620815Y245543D01*
X619805Y245125D01*
X618939Y244460D01*
X618273Y243593D01*
X617855Y242583D01*
X617713Y241500D01*
X617855Y240417D01*
X618273Y239407D01*
X618939Y238540D01*
X619805Y237875D01*
X620815Y237457D01*
X621898Y237314D01*
X622982Y237457D01*
X623991Y237875D01*
X624858Y238540D01*
X625523Y239407D01*
X625942Y240417D01*
X626084Y241500D01*
X625942Y242583D01*
X625523Y243593D01*
X624858Y244460D01*
X623991Y245125D01*
X622982Y245543D01*
X621898Y245686D01*
D02*
G37*
G36*
X583898D02*
X582815Y245543D01*
X581806Y245125D01*
X580939Y244460D01*
X580273Y243593D01*
X579855Y242583D01*
X579713Y241500D01*
X579855Y240417D01*
X580273Y239407D01*
X580939Y238540D01*
X581806Y237875D01*
X582815Y237457D01*
X583898Y237314D01*
X584982Y237457D01*
X585991Y237875D01*
X586858Y238540D01*
X587523Y239407D01*
X587942Y240417D01*
X588084Y241500D01*
X587942Y242583D01*
X587523Y243593D01*
X586858Y244460D01*
X585991Y245125D01*
X584982Y245543D01*
X583898Y245686D01*
D02*
G37*
G36*
X545898D02*
X544815Y245543D01*
X543806Y245125D01*
X542939Y244460D01*
X542273Y243593D01*
X541855Y242583D01*
X541713Y241500D01*
X541855Y240417D01*
X542273Y239407D01*
X542939Y238540D01*
X543806Y237875D01*
X544815Y237457D01*
X545898Y237314D01*
X546982Y237457D01*
X547991Y237875D01*
X548858Y238540D01*
X549523Y239407D01*
X549942Y240417D01*
X550084Y241500D01*
X549942Y242583D01*
X549523Y243593D01*
X548858Y244460D01*
X547991Y245125D01*
X546982Y245543D01*
X545898Y245686D01*
D02*
G37*
G36*
X516500Y235464D02*
Y232500D01*
X519464D01*
X519410Y232914D01*
X519057Y233765D01*
X518496Y234496D01*
X517765Y235057D01*
X516914Y235410D01*
X516500Y235464D01*
D02*
G37*
G36*
X515500D02*
X515086Y235410D01*
X514235Y235057D01*
X513504Y234496D01*
X512943Y233765D01*
X512590Y232914D01*
X512536Y232500D01*
X515500D01*
Y235464D01*
D02*
G37*
G36*
X348996Y240846D02*
X347810Y240690D01*
X346705Y240232D01*
X345756Y239504D01*
X345027Y238555D01*
X344570Y237450D01*
X344414Y236264D01*
X344570Y235078D01*
X345027Y233973D01*
X345756Y233024D01*
X346705Y232295D01*
X347810Y231837D01*
X348996Y231681D01*
X350182Y231837D01*
X351287Y232295D01*
X352236Y233024D01*
X352965Y233973D01*
X353422Y235078D01*
X353579Y236264D01*
X353422Y237450D01*
X352965Y238555D01*
X352236Y239504D01*
X351287Y240232D01*
X350182Y240690D01*
X348996Y240846D01*
D02*
G37*
G36*
X519464Y231500D02*
X516500D01*
Y228536D01*
X516914Y228590D01*
X517765Y228943D01*
X518496Y229504D01*
X519057Y230235D01*
X519410Y231086D01*
X519464Y231500D01*
D02*
G37*
G36*
X515500D02*
X512536D01*
X512590Y231086D01*
X512943Y230235D01*
X513504Y229504D01*
X514235Y228943D01*
X515086Y228590D01*
X515500Y228536D01*
Y231500D01*
D02*
G37*
G36*
X671433Y235924D02*
X670397Y235788D01*
X669432Y235388D01*
X668603Y234752D01*
X667967Y233923D01*
X667567Y232957D01*
X667430Y231921D01*
X667567Y230885D01*
X667967Y229920D01*
X668603Y229091D01*
X669432Y228455D01*
X670397Y228055D01*
X671433Y227919D01*
X672469Y228055D01*
X673434Y228455D01*
X674263Y229091D01*
X674899Y229920D01*
X675299Y230885D01*
X675436Y231921D01*
X675299Y232957D01*
X674899Y233923D01*
X674263Y234752D01*
X673434Y235388D01*
X672469Y235788D01*
X671433Y235924D01*
D02*
G37*
G36*
Y226081D02*
X670397Y225945D01*
X669432Y225545D01*
X668603Y224909D01*
X667967Y224080D01*
X667567Y223115D01*
X667430Y222079D01*
X667567Y221043D01*
X667967Y220077D01*
X668603Y219248D01*
X669432Y218612D01*
X670397Y218212D01*
X671433Y218076D01*
X672469Y218212D01*
X673434Y218612D01*
X674263Y219248D01*
X674899Y220077D01*
X675299Y221043D01*
X675436Y222079D01*
X675299Y223115D01*
X674899Y224080D01*
X674263Y224909D01*
X673434Y225545D01*
X672469Y225945D01*
X671433Y226081D01*
D02*
G37*
G36*
X348996Y225846D02*
X347810Y225690D01*
X346705Y225232D01*
X345756Y224504D01*
X345027Y223555D01*
X344570Y222450D01*
X344414Y221264D01*
X344570Y220078D01*
X345027Y218972D01*
X345756Y218023D01*
X346705Y217295D01*
X347810Y216837D01*
X348996Y216681D01*
X350182Y216837D01*
X351287Y217295D01*
X352236Y218023D01*
X352965Y218972D01*
X353422Y220078D01*
X353579Y221264D01*
X353422Y222450D01*
X352965Y223555D01*
X352236Y224504D01*
X351287Y225232D01*
X350182Y225690D01*
X348996Y225846D01*
D02*
G37*
G36*
X615102Y216953D02*
X611650D01*
Y213500D01*
X615102D01*
Y216953D01*
D02*
G37*
G36*
X610650D02*
X607197D01*
Y213500D01*
X610650D01*
Y216953D01*
D02*
G37*
G36*
X577102D02*
X573650D01*
Y213500D01*
X577102D01*
Y216953D01*
D02*
G37*
G36*
X572650D02*
X569197D01*
Y213500D01*
X572650D01*
Y216953D01*
D02*
G37*
G36*
X539102D02*
X535650D01*
Y213500D01*
X539102D01*
Y216953D01*
D02*
G37*
G36*
X534650D02*
X531197D01*
Y213500D01*
X534650D01*
Y216953D01*
D02*
G37*
G36*
X615102Y212500D02*
X611650D01*
Y209047D01*
X615102D01*
Y212500D01*
D02*
G37*
G36*
X610650D02*
X607197D01*
Y209047D01*
X610650D01*
Y212500D01*
D02*
G37*
G36*
X577102D02*
X573650D01*
Y209047D01*
X577102D01*
Y212500D01*
D02*
G37*
G36*
X572650D02*
X569197D01*
Y209047D01*
X572650D01*
Y212500D01*
D02*
G37*
G36*
X539102D02*
X535650D01*
Y209047D01*
X539102D01*
Y212500D01*
D02*
G37*
G36*
X534650D02*
X531197D01*
Y209047D01*
X534650D01*
Y212500D01*
D02*
G37*
G36*
X631150Y216987D02*
X630118Y216851D01*
X629156Y216453D01*
X628331Y215819D01*
X627697Y214993D01*
X627299Y214032D01*
X627163Y213000D01*
X627299Y211968D01*
X627697Y211007D01*
X628331Y210181D01*
X629156Y209547D01*
X630118Y209149D01*
X631150Y209013D01*
X632182Y209149D01*
X633143Y209547D01*
X633969Y210181D01*
X634602Y211007D01*
X635001Y211968D01*
X635137Y213000D01*
X635001Y214032D01*
X634602Y214993D01*
X633969Y215819D01*
X633143Y216453D01*
X632182Y216851D01*
X631150Y216987D01*
D02*
G37*
G36*
X621150D02*
X620118Y216851D01*
X619156Y216453D01*
X618330Y215819D01*
X617697Y214993D01*
X617299Y214032D01*
X617163Y213000D01*
X617299Y211968D01*
X617697Y211007D01*
X618330Y210181D01*
X619156Y209547D01*
X620118Y209149D01*
X621150Y209013D01*
X622182Y209149D01*
X623143Y209547D01*
X623969Y210181D01*
X624602Y211007D01*
X625001Y211968D01*
X625137Y213000D01*
X625001Y214032D01*
X624602Y214993D01*
X623969Y215819D01*
X623143Y216453D01*
X622182Y216851D01*
X621150Y216987D01*
D02*
G37*
G36*
X593150D02*
X592118Y216851D01*
X591156Y216453D01*
X590331Y215819D01*
X589697Y214993D01*
X589299Y214032D01*
X589163Y213000D01*
X589299Y211968D01*
X589697Y211007D01*
X590331Y210181D01*
X591156Y209547D01*
X592118Y209149D01*
X593150Y209013D01*
X594181Y209149D01*
X595143Y209547D01*
X595969Y210181D01*
X596602Y211007D01*
X597001Y211968D01*
X597136Y213000D01*
X597001Y214032D01*
X596602Y214993D01*
X595969Y215819D01*
X595143Y216453D01*
X594181Y216851D01*
X593150Y216987D01*
D02*
G37*
G36*
X583150D02*
X582118Y216851D01*
X581156Y216453D01*
X580331Y215819D01*
X579697Y214993D01*
X579299Y214032D01*
X579163Y213000D01*
X579299Y211968D01*
X579697Y211007D01*
X580331Y210181D01*
X581156Y209547D01*
X582118Y209149D01*
X583150Y209013D01*
X584181Y209149D01*
X585143Y209547D01*
X585969Y210181D01*
X586602Y211007D01*
X587001Y211968D01*
X587137Y213000D01*
X587001Y214032D01*
X586602Y214993D01*
X585969Y215819D01*
X585143Y216453D01*
X584181Y216851D01*
X583150Y216987D01*
D02*
G37*
G36*
X555150D02*
X554118Y216851D01*
X553156Y216453D01*
X552330Y215819D01*
X551697Y214993D01*
X551299Y214032D01*
X551163Y213000D01*
X551299Y211968D01*
X551697Y211007D01*
X552330Y210181D01*
X553156Y209547D01*
X554118Y209149D01*
X555150Y209013D01*
X556181Y209149D01*
X557143Y209547D01*
X557969Y210181D01*
X558602Y211007D01*
X559001Y211968D01*
X559136Y213000D01*
X559001Y214032D01*
X558602Y214993D01*
X557969Y215819D01*
X557143Y216453D01*
X556181Y216851D01*
X555150Y216987D01*
D02*
G37*
G36*
X545150D02*
X544118Y216851D01*
X543156Y216453D01*
X542331Y215819D01*
X541697Y214993D01*
X541299Y214032D01*
X541163Y213000D01*
X541299Y211968D01*
X541697Y211007D01*
X542331Y210181D01*
X543156Y209547D01*
X544118Y209149D01*
X545150Y209013D01*
X546181Y209149D01*
X547143Y209547D01*
X547969Y210181D01*
X548602Y211007D01*
X549001Y211968D01*
X549136Y213000D01*
X549001Y214032D01*
X548602Y214993D01*
X547969Y215819D01*
X547143Y216453D01*
X546181Y216851D01*
X545150Y216987D01*
D02*
G37*
G36*
X675402Y216205D02*
X667465D01*
Y208268D01*
X675402D01*
Y216205D01*
D02*
G37*
G36*
X498736Y183513D02*
Y179496D01*
X502753D01*
X502663Y180182D01*
X502205Y181287D01*
X501476Y182236D01*
X500527Y182965D01*
X499422Y183422D01*
X498736Y183513D01*
D02*
G37*
G36*
X497736D02*
X497050Y183422D01*
X495945Y182965D01*
X494996Y182236D01*
X494268Y181287D01*
X493810Y180182D01*
X493719Y179496D01*
X497736D01*
Y183513D01*
D02*
G37*
G36*
X502753Y178496D02*
X498736D01*
Y174479D01*
X499422Y174570D01*
X500527Y175028D01*
X501476Y175756D01*
X502205Y176705D01*
X502663Y177810D01*
X502753Y178496D01*
D02*
G37*
G36*
X497736D02*
X493719D01*
X493810Y177810D01*
X494268Y176705D01*
X494996Y175756D01*
X495945Y175028D01*
X497050Y174570D01*
X497736Y174479D01*
Y178496D01*
D02*
G37*
G36*
X618193Y183539D02*
X609106D01*
Y174453D01*
X618193D01*
Y183539D01*
D02*
G37*
G36*
X580193D02*
X571106D01*
Y174453D01*
X580193D01*
Y183539D01*
D02*
G37*
G36*
X542193D02*
X533106D01*
Y174453D01*
X542193D01*
Y183539D01*
D02*
G37*
G36*
X457780D02*
X448693D01*
Y174453D01*
X457780D01*
Y183539D01*
D02*
G37*
G36*
X628650Y183579D02*
X627464Y183422D01*
X626358Y182965D01*
X625409Y182236D01*
X624681Y181287D01*
X624223Y180182D01*
X624067Y178996D01*
X624223Y177810D01*
X624681Y176705D01*
X625409Y175756D01*
X626358Y175028D01*
X627464Y174570D01*
X628650Y174414D01*
X629836Y174570D01*
X630941Y175028D01*
X631890Y175756D01*
X632618Y176705D01*
X633076Y177810D01*
X633232Y178996D01*
X633076Y180182D01*
X632618Y181287D01*
X631890Y182236D01*
X630941Y182965D01*
X629836Y183422D01*
X628650Y183579D01*
D02*
G37*
G36*
X590650D02*
X589464Y183422D01*
X588358Y182965D01*
X587409Y182236D01*
X586681Y181287D01*
X586223Y180182D01*
X586067Y178996D01*
X586223Y177810D01*
X586681Y176705D01*
X587409Y175756D01*
X588358Y175028D01*
X589464Y174570D01*
X590650Y174414D01*
X591836Y174570D01*
X592941Y175028D01*
X593890Y175756D01*
X594618Y176705D01*
X595076Y177810D01*
X595232Y178996D01*
X595076Y180182D01*
X594618Y181287D01*
X593890Y182236D01*
X592941Y182965D01*
X591836Y183422D01*
X590650Y183579D01*
D02*
G37*
G36*
X552650D02*
X551464Y183422D01*
X550358Y182965D01*
X549409Y182236D01*
X548681Y181287D01*
X548223Y180182D01*
X548067Y178996D01*
X548223Y177810D01*
X548681Y176705D01*
X549409Y175756D01*
X550358Y175028D01*
X551464Y174570D01*
X552650Y174414D01*
X553836Y174570D01*
X554941Y175028D01*
X555890Y175756D01*
X556618Y176705D01*
X557076Y177810D01*
X557232Y178996D01*
X557076Y180182D01*
X556618Y181287D01*
X555890Y182236D01*
X554941Y182965D01*
X553836Y183422D01*
X552650Y183579D01*
D02*
G37*
G36*
X468236D02*
X467050Y183422D01*
X465945Y182965D01*
X464996Y182236D01*
X464268Y181287D01*
X463810Y180182D01*
X463654Y178996D01*
X463810Y177810D01*
X464268Y176705D01*
X464996Y175756D01*
X465945Y175028D01*
X467050Y174570D01*
X468236Y174414D01*
X469422Y174570D01*
X470528Y175028D01*
X471477Y175756D01*
X472205Y176705D01*
X472663Y177810D01*
X472819Y178996D01*
X472663Y180182D01*
X472205Y181287D01*
X471477Y182236D01*
X470528Y182965D01*
X469422Y183422D01*
X468236Y183579D01*
D02*
G37*
%LPD*%
G36*
X605971Y407367D02*
Y401846D01*
X605509Y401654D01*
X604081Y403081D01*
X603585Y403413D01*
X603000Y403529D01*
X600104D01*
X599854Y403854D01*
X599382Y404217D01*
X599343Y404500D01*
X599382Y404783D01*
X599854Y405146D01*
X600271Y405689D01*
X600533Y406321D01*
X600622Y407000D01*
X600533Y407679D01*
X600271Y408311D01*
X599854Y408854D01*
X599382Y409217D01*
X599343Y409500D01*
X599382Y409783D01*
X599854Y410146D01*
X600104Y410471D01*
X602867D01*
X605971Y407367D01*
D02*
G37*
G36*
X595435Y401565D02*
X595467Y401321D01*
X595729Y400689D01*
X596146Y400146D01*
X596618Y399783D01*
X596657Y399500D01*
X596618Y399217D01*
X596146Y398854D01*
X595729Y398311D01*
X595467Y397679D01*
X595378Y397000D01*
X595431Y396594D01*
X593366Y394529D01*
X588346D01*
X588154Y394991D01*
X594907Y401744D01*
X595435Y401565D01*
D02*
G37*
G36*
X603971Y398867D02*
Y394133D01*
X601866Y392029D01*
X595846D01*
X595654Y392491D01*
X597594Y394431D01*
X598000Y394378D01*
X598679Y394467D01*
X599311Y394729D01*
X599854Y395146D01*
X600271Y395689D01*
X600533Y396321D01*
X600622Y397000D01*
X600533Y397679D01*
X600271Y398311D01*
X599854Y398854D01*
X599382Y399217D01*
X599343Y399500D01*
X599382Y399783D01*
X599854Y400146D01*
X600104Y400471D01*
X602366D01*
X603971Y398867D01*
D02*
G37*
G36*
X557846Y388509D02*
X546367Y377029D01*
X538373D01*
X538203Y377529D01*
X538354Y377646D01*
X538771Y378189D01*
X539033Y378821D01*
X539122Y379500D01*
X539033Y380179D01*
X538771Y380811D01*
X538354Y381354D01*
X537811Y381771D01*
X537179Y382033D01*
X536500Y382122D01*
X535821Y382033D01*
X535189Y381771D01*
X534646Y381354D01*
X534396Y381029D01*
X484500D01*
X483915Y380913D01*
X483518Y380648D01*
X483199Y381036D01*
X491133Y388971D01*
X557654D01*
X557846Y388509D01*
D02*
G37*
G36*
X534646Y377646D02*
X534797Y377529D01*
X534627Y377029D01*
X485000D01*
X484874Y377004D01*
X484628Y377465D01*
X485134Y377971D01*
X534396D01*
X534646Y377646D01*
D02*
G37*
G36*
X487264Y373509D02*
X482378Y368622D01*
X481881Y367878D01*
X481706Y367000D01*
Y358256D01*
X481490Y357734D01*
X447546Y323791D01*
X447073Y324024D01*
X447135Y324500D01*
X446994Y325570D01*
X446581Y326568D01*
X445924Y327424D01*
X445068Y328081D01*
X444070Y328495D01*
X443000Y328635D01*
X441930Y328495D01*
X440932Y328081D01*
X440076Y327424D01*
X439419Y326568D01*
X439006Y325570D01*
X438865Y324500D01*
X439006Y323430D01*
X439419Y322432D01*
X440076Y321576D01*
X440932Y320919D01*
X441930Y320505D01*
X443000Y320365D01*
X443476Y320427D01*
X443709Y319954D01*
X436378Y312622D01*
X436029Y312101D01*
X435529Y312252D01*
Y323867D01*
X485634Y373971D01*
X487073D01*
X487264Y373509D01*
D02*
G37*
G36*
X485346Y393509D02*
X399125Y307288D01*
X398688Y307482D01*
X398617Y307955D01*
X484633Y393971D01*
X485154D01*
X485346Y393509D01*
D02*
G37*
G36*
X488846Y391009D02*
X399366Y301529D01*
X397845D01*
X397796Y302029D01*
X398085Y302087D01*
X398581Y302419D01*
X487634Y391471D01*
X488654D01*
X488846Y391009D01*
D02*
G37*
G36*
X379689Y305229D02*
X380321Y304967D01*
X381000Y304878D01*
X381406Y304931D01*
X387419Y298919D01*
X387915Y298587D01*
X388205Y298529D01*
X388155Y298029D01*
X380134D01*
X379029Y299133D01*
Y305105D01*
X379529Y305351D01*
X379689Y305229D01*
D02*
G37*
G36*
X428852Y325982D02*
X428587Y325585D01*
X428471Y325000D01*
Y271133D01*
X426491Y269154D01*
X426029Y269346D01*
Y291500D01*
X425913Y292085D01*
X425581Y292581D01*
X420581Y297581D01*
X420085Y297913D01*
X419500Y298029D01*
X400345D01*
X400295Y298529D01*
X400585Y298587D01*
X401081Y298919D01*
X428464Y326301D01*
X428852Y325982D01*
D02*
G37*
D37*
X419500Y296500D02*
X424500Y291500D01*
X379500Y296500D02*
X419500D01*
X377500Y298500D02*
X379500Y296500D01*
X377500Y298500D02*
Y309000D01*
X379500Y311000D01*
X394500D01*
X481500Y398000D01*
X507500D01*
X511000Y401500D02*
Y417000D01*
X507500Y398000D02*
X511000Y401500D01*
X381000Y307500D02*
X388500Y300000D01*
X386000Y307500D02*
X390000Y303500D01*
X388500Y300000D02*
X400000D01*
X490500Y390500D01*
X434000Y219000D02*
Y324500D01*
X586500Y395500D02*
X598000Y407000D01*
X484000Y395500D02*
X586500D01*
X396000Y307500D02*
X484000Y395500D01*
X594000Y393000D02*
X598000Y397000D01*
X487000Y393000D02*
X594000D01*
X397500Y303500D02*
X487000Y393000D01*
X607500Y392672D02*
Y408000D01*
X603500Y412000D02*
X607500Y408000D01*
X598000Y412000D02*
X603500D01*
X547000Y375500D02*
X560000Y388500D01*
X485000Y375500D02*
X547000D01*
X434000Y324500D02*
X485000Y375500D01*
X428500Y213500D02*
X434000Y219000D01*
X560000Y388500D02*
X603328D01*
X607500Y392672D01*
X484500Y379500D02*
X536500D01*
X490500Y390500D02*
X602500D01*
X430000Y270500D02*
Y325000D01*
X390000Y303500D02*
X397500D01*
X430000Y325000D02*
X484500Y379500D01*
X605500Y393500D02*
Y399500D01*
X602500Y390500D02*
X605500Y393500D01*
X603000Y402000D02*
X605500Y399500D01*
X598000Y402000D02*
X603000D01*
X427000Y267500D02*
X430000Y270500D01*
X427000Y265000D02*
Y267500D01*
X423900Y266284D02*
X424500Y266884D01*
Y291500D01*
X423900Y248100D02*
Y266284D01*
Y248100D02*
X428500Y243500D01*
D38*
X688000Y331500D02*
Y419000D01*
X685000Y422000D02*
X688000Y419000D01*
X680500Y422000D02*
X685000D01*
X684972Y328472D02*
X688000Y331500D01*
X548139Y372750D02*
X561139Y385750D01*
X604467D01*
X484000Y357000D02*
Y367000D01*
X489750Y372750D01*
X548139D01*
X671000Y422000D02*
X680500D01*
X628500Y442000D02*
X651000D01*
X671000Y422000D01*
X438000Y224232D02*
X483236Y178996D01*
X438000Y224232D02*
Y311000D01*
X484000Y357000D01*
X615197Y340303D02*
Y365697D01*
Y340303D02*
X627028Y328472D01*
X675567D01*
X604467Y385750D02*
X615197Y375021D01*
Y365697D02*
Y375021D01*
X675567Y328472D02*
X684972D01*
D39*
X473000Y324500D02*
D03*
X443000D02*
D03*
D40*
X416995Y456583D02*
D03*
X424995Y448583D02*
D03*
Y444583D02*
D03*
X408995Y468583D02*
D03*
X420995Y464583D02*
D03*
X408995D02*
D03*
X416995D02*
D03*
X420995Y460583D02*
D03*
X408995Y444583D02*
D03*
Y456583D02*
D03*
X416995Y468583D02*
D03*
X412995Y444583D02*
D03*
X424995Y468583D02*
D03*
X416995Y460583D02*
D03*
Y448583D02*
D03*
X420995Y444583D02*
D03*
X416995D02*
D03*
X420995Y456583D02*
D03*
Y452583D02*
D03*
X416995D02*
D03*
X408995D02*
D03*
Y448583D02*
D03*
X420995D02*
D03*
X412995Y464583D02*
D03*
Y448583D02*
D03*
X408995Y460583D02*
D03*
X420995Y468583D02*
D03*
X424995Y452583D02*
D03*
Y456583D02*
D03*
Y460583D02*
D03*
X412995Y468583D02*
D03*
Y452583D02*
D03*
Y456583D02*
D03*
Y460583D02*
D03*
X424995Y464583D02*
D03*
X542580Y432320D02*
D03*
X548090D02*
D03*
X553600D02*
D03*
X542580Y426810D02*
D03*
X548090D02*
D03*
X553600D02*
D03*
Y421300D02*
D03*
X548090D02*
D03*
X542580D02*
D03*
D41*
X621898Y311500D02*
D03*
Y301500D02*
D03*
Y271500D02*
D03*
Y241500D02*
D03*
X545898Y311500D02*
D03*
Y301500D02*
D03*
Y271500D02*
D03*
Y241500D02*
D03*
X583898Y311500D02*
D03*
Y301500D02*
D03*
Y271500D02*
D03*
Y241500D02*
D03*
D42*
X628650Y178996D02*
D03*
X590650D02*
D03*
X552650D02*
D03*
X348496Y298264D02*
D03*
Y313264D02*
D03*
Y328264D02*
D03*
X348996Y221264D02*
D03*
Y236264D02*
D03*
Y251264D02*
D03*
X498236Y178996D02*
D03*
X483236D02*
D03*
X468236D02*
D03*
D43*
X613650D02*
D03*
X575650D02*
D03*
X537650D02*
D03*
X453236D02*
D03*
D44*
X631150Y213000D02*
D03*
X621150D02*
D03*
X555150D02*
D03*
X545150D02*
D03*
X593150D02*
D03*
X583150D02*
D03*
X680500Y442000D02*
D03*
Y432000D02*
D03*
Y422000D02*
D03*
X628500Y412000D02*
D03*
Y422000D02*
D03*
Y432000D02*
D03*
D45*
X611150Y213000D02*
D03*
X535150D02*
D03*
X573150D02*
D03*
D46*
X348496Y343264D02*
D03*
X348996Y266264D02*
D03*
D47*
X679000Y164000D02*
D03*
Y469000D02*
D03*
X333000D02*
D03*
Y164000D02*
D03*
D48*
X675567Y328472D02*
D03*
Y338315D02*
D03*
Y348158D02*
D03*
Y377685D02*
D03*
Y358000D02*
D03*
Y367843D02*
D03*
X671433Y222079D02*
D03*
Y241764D02*
D03*
Y231921D02*
D03*
Y280079D02*
D03*
Y299764D02*
D03*
Y289921D02*
D03*
D49*
X675567Y387528D02*
D03*
X671433Y212236D02*
D03*
Y270236D02*
D03*
D50*
X680500Y412000D02*
D03*
X628500Y442000D02*
D03*
D51*
X381000Y307500D02*
D03*
X386000D02*
D03*
X428500Y213500D02*
D03*
X598000Y412000D02*
D03*
X536500Y379500D02*
D03*
X511000Y417000D02*
D03*
X396000Y307500D02*
D03*
X428500Y243500D02*
D03*
X598000Y407000D02*
D03*
Y402000D02*
D03*
Y397000D02*
D03*
X484000Y357000D02*
D03*
X615197Y365697D02*
D03*
X391000Y266000D02*
D03*
X520000Y328000D02*
D03*
X427000Y265000D02*
D03*
D52*
X631000Y393500D02*
D03*
X516000Y263000D02*
D03*
Y232000D02*
D03*
X551000Y334000D02*
D03*
X468000Y474000D02*
D03*
X483000Y331000D02*
D03*
M02*
