G04 Layer_Physical_Order=1*
G04 Layer_Color=255*
%FSLAX25Y25*%
%MOIN*%
G70*
G01*
G75*
%ADD10R,0.03500X0.03500*%
%ADD11R,0.05900X0.03500*%
%ADD12R,0.03500X0.05900*%
%ADD13R,0.04724X0.05512*%
%ADD14R,0.04331X0.03937*%
%ADD15R,0.05512X0.04724*%
%ADD16R,0.05709X0.02165*%
%ADD17R,0.07900X0.05900*%
%ADD18R,0.03200X0.06000*%
%ADD19R,0.16535X0.06299*%
%ADD20R,0.04134X0.12598*%
%ADD21R,0.41142X0.32677*%
%ADD22R,0.09055X0.09055*%
%ADD23R,0.07000X0.13800*%
%ADD24R,0.13800X0.40200*%
%ADD25R,0.10630X0.05118*%
%ADD26O,0.08661X0.02362*%
%ADD27R,0.03937X0.09843*%
%ADD28R,0.06299X0.16535*%
%ADD29R,0.05118X0.05906*%
%ADD30R,0.12992X0.09449*%
%ADD31R,0.03937X0.09449*%
%ADD32R,0.12992X0.09449*%
%ADD33C,0.01000*%
%ADD34C,0.02500*%
%ADD35C,0.02800*%
%ADD36C,0.07087*%
%ADD37R,0.07087X0.07087*%
%ADD38C,0.05906*%
%ADD39R,0.05906X0.05906*%
%ADD40C,0.21654*%
%ADD41C,0.03200*%
G36*
X676675Y300826D02*
X560700D01*
X560601Y301825D01*
X560878Y301881D01*
X561622Y302378D01*
X566244Y307000D01*
X567244Y306769D01*
Y306095D01*
X574756D01*
Y307163D01*
X581244D01*
Y306095D01*
X588756D01*
Y307163D01*
X595244D01*
Y306095D01*
X602756D01*
Y307163D01*
X609244D01*
Y306095D01*
X616756D01*
Y307360D01*
X623685D01*
Y306095D01*
X636315D01*
Y313213D01*
X623685D01*
Y311948D01*
X617463D01*
X616756Y312655D01*
X616756Y313819D01*
Y319905D01*
X614529D01*
Y320500D01*
X614413Y321085D01*
X614081Y321581D01*
X613081Y322581D01*
X612585Y322913D01*
X612000Y323029D01*
X610417D01*
X609991Y323526D01*
X610427Y324526D01*
X611098D01*
X611949Y324695D01*
X612671Y325178D01*
X612700Y325221D01*
X622930D01*
X623685Y324630D01*
X623685Y324221D01*
Y321571D01*
X630000D01*
X636315D01*
Y324630D01*
X634077D01*
X633774Y325630D01*
X633831Y325669D01*
X641081Y332919D01*
X641413Y333415D01*
X641529Y334000D01*
Y396000D01*
X641413Y396585D01*
X641081Y397081D01*
X630826Y407337D01*
X630329Y407669D01*
X629744Y407785D01*
X592400D01*
Y413460D01*
Y418460D01*
Y423460D01*
Y429471D01*
X603094D01*
Y427244D01*
X604987D01*
X605044Y426958D01*
X605375Y426462D01*
X606375Y425462D01*
X606871Y425130D01*
X607457Y425014D01*
X624823D01*
X658268Y391569D01*
X658135Y390506D01*
X658007Y390453D01*
X657181Y389819D01*
X656547Y388993D01*
X656149Y388032D01*
X656013Y387000D01*
X656149Y385968D01*
X656547Y385007D01*
X657181Y384181D01*
X658007Y383547D01*
X658968Y383149D01*
X660000Y383013D01*
X661032Y383149D01*
X661993Y383547D01*
X662819Y384181D01*
X663453Y385007D01*
X663851Y385968D01*
X663987Y387000D01*
X663851Y388032D01*
X663453Y388993D01*
X662819Y389819D01*
X661993Y390453D01*
X661529Y390645D01*
Y392000D01*
X661413Y392585D01*
X661081Y393081D01*
X652692Y401471D01*
X653106Y402471D01*
X663500D01*
X664085Y402587D01*
X664581Y402919D01*
X665547Y403884D01*
X666471Y403501D01*
Y380633D01*
X664569Y378732D01*
X663506Y378866D01*
X663453Y378993D01*
X662819Y379819D01*
X661993Y380453D01*
X661032Y380851D01*
X660000Y380987D01*
X658968Y380851D01*
X658007Y380453D01*
X657181Y379819D01*
X656547Y378993D01*
X656149Y378032D01*
X656013Y377000D01*
X656149Y375968D01*
X656547Y375007D01*
X657181Y374181D01*
X658007Y373547D01*
X658968Y373149D01*
X660000Y373013D01*
X661032Y373149D01*
X661993Y373547D01*
X662819Y374181D01*
X663453Y375007D01*
X663645Y375471D01*
X665000D01*
X665585Y375587D01*
X666081Y375919D01*
X669081Y378919D01*
X669413Y379415D01*
X669529Y380000D01*
Y442000D01*
X669413Y442585D01*
X669081Y443081D01*
X667081Y445081D01*
X666585Y445413D01*
X666000Y445529D01*
X655633D01*
X649081Y452081D01*
X648585Y452413D01*
X648000Y452529D01*
X608000D01*
X607415Y452413D01*
X606919Y452081D01*
X605375Y450538D01*
X605044Y450042D01*
X604987Y449756D01*
X603094D01*
Y447739D01*
X592400D01*
Y453460D01*
Y455710D01*
X588450D01*
X584500D01*
Y453460D01*
Y448460D01*
Y443460D01*
Y438460D01*
Y433460D01*
Y428460D01*
Y423460D01*
Y418460D01*
Y413460D01*
Y408460D01*
Y403460D01*
Y398460D01*
Y393460D01*
Y388460D01*
X586921D01*
Y376050D01*
X587037Y375465D01*
X587369Y374969D01*
X588612Y373725D01*
Y369950D01*
X585192D01*
Y362529D01*
X585192Y362050D01*
X584407Y361529D01*
X581134D01*
X578029Y364633D01*
Y382335D01*
X579250D01*
Y390235D01*
X532000D01*
Y386285D01*
Y382335D01*
X574971D01*
Y364000D01*
X575087Y363415D01*
X575419Y362919D01*
X579419Y358919D01*
X579915Y358587D01*
X580500Y358471D01*
X597000D01*
X597585Y358587D01*
X598081Y358919D01*
X599581Y360419D01*
X599913Y360915D01*
X600029Y361500D01*
Y369367D01*
X601133Y370471D01*
X603094D01*
Y368244D01*
X609181D01*
X609819Y368244D01*
X610817Y368244D01*
X611817Y368240D01*
Y366676D01*
X611110Y365968D01*
X610181Y365968D01*
X609181Y365968D01*
X607154D01*
Y363000D01*
Y360032D01*
X609181D01*
X609819Y360032D01*
X610819Y360032D01*
X616512D01*
Y365968D01*
X614876D01*
Y368244D01*
X616905D01*
Y375756D01*
X610819D01*
X610181Y375756D01*
X609181Y375756D01*
X603094D01*
Y373529D01*
X600500D01*
X599915Y373413D01*
X599418Y373081D01*
X597419Y371081D01*
X597087Y370585D01*
X596971Y370000D01*
Y362134D01*
X596367Y361529D01*
X595876D01*
X595092Y362050D01*
X595092Y362529D01*
Y369950D01*
X591671D01*
Y374358D01*
X591555Y374943D01*
X591223Y375440D01*
X589979Y376683D01*
Y388460D01*
X592400D01*
Y389681D01*
X596157D01*
X596919Y388919D01*
X597415Y388587D01*
X598000Y388471D01*
X603094D01*
Y386047D01*
X604927D01*
Y384756D01*
X603094D01*
Y377244D01*
X609181D01*
X609819Y377244D01*
X610819Y377244D01*
X616905D01*
Y379471D01*
X625366D01*
X625923Y378914D01*
X626146Y377854D01*
X625729Y377311D01*
X625467Y376679D01*
X625378Y376000D01*
X625467Y375321D01*
X625729Y374689D01*
X626146Y374146D01*
X626689Y373729D01*
X627321Y373467D01*
X628000Y373378D01*
X628679Y373467D01*
X629311Y373729D01*
X629854Y374146D01*
X630271Y374689D01*
X630533Y375321D01*
X630622Y376000D01*
X630533Y376679D01*
X630271Y377311D01*
X629854Y377854D01*
X629529Y378104D01*
Y379000D01*
X629413Y379585D01*
X629081Y380081D01*
X627081Y382081D01*
X626585Y382413D01*
X626000Y382529D01*
X616905D01*
Y384756D01*
X610819D01*
X610181Y384756D01*
X609181Y384756D01*
X607986D01*
Y386047D01*
X612847D01*
Y390000D01*
X613346D01*
Y390500D01*
X616905D01*
Y393953D01*
X617562Y394681D01*
X632157D01*
X634471Y392367D01*
Y348634D01*
X633366Y347529D01*
X600500D01*
X599915Y347413D01*
X599419Y347081D01*
X598419Y346081D01*
X598087Y345585D01*
X597978Y345039D01*
X597728Y344886D01*
X597490Y344774D01*
X596971Y344692D01*
X596244Y345419D01*
X602171Y351346D01*
X603094Y350964D01*
Y350244D01*
X609181D01*
X609819Y350244D01*
X610819Y350244D01*
X613043D01*
Y354000D01*
Y357756D01*
X610819D01*
X610181Y357756D01*
X609181Y357756D01*
X603094D01*
Y355529D01*
X602661D01*
X602076Y355413D01*
X601580Y355081D01*
X593447Y346949D01*
X562419D01*
X561834Y346832D01*
X561338Y346501D01*
X559462Y344625D01*
X559130Y344129D01*
X559014Y343543D01*
Y340677D01*
X558867Y340529D01*
X554000D01*
X553415Y340413D01*
X552919Y340081D01*
X551419Y338581D01*
X551087Y338085D01*
X550971Y337500D01*
Y337083D01*
X548520D01*
Y336529D01*
X526874D01*
Y340921D01*
X521794D01*
X520937Y340921D01*
X520794Y341862D01*
Y345000D01*
X520619Y345878D01*
X520122Y346622D01*
X511122Y355622D01*
X510378Y356119D01*
X509500Y356294D01*
X467950D01*
X467240Y357004D01*
X467384Y357220D01*
X467539Y358000D01*
Y359301D01*
X467676Y360244D01*
X468539Y360244D01*
X474401D01*
Y362471D01*
X476983D01*
Y361032D01*
X482676D01*
X483314Y361032D01*
X484314Y361032D01*
X486342D01*
Y364000D01*
Y366968D01*
X484314D01*
X483676Y366968D01*
X482676Y366968D01*
X476983D01*
Y365529D01*
X474401D01*
Y367756D01*
X468539D01*
X467676Y367756D01*
X467539Y368699D01*
Y379725D01*
X471022Y383646D01*
X471193Y383938D01*
X471382Y384220D01*
X471393Y384279D01*
X471424Y384332D01*
X471471Y384668D01*
X471537Y385000D01*
Y396153D01*
X482942Y407558D01*
X483384Y408220D01*
X483539Y409000D01*
Y413293D01*
X483685Y414232D01*
X484539Y414232D01*
X489500D01*
Y417791D01*
Y421350D01*
X484539D01*
X483685Y421350D01*
X483539Y422290D01*
Y424710D01*
X483685Y425650D01*
X496315D01*
Y426608D01*
X497315Y427022D01*
X499927Y424410D01*
Y408756D01*
X498095D01*
Y408756D01*
X497759Y408617D01*
X497647Y408682D01*
X497184Y409575D01*
X497271Y409689D01*
X497533Y410321D01*
X497622Y411000D01*
X497533Y411679D01*
X497271Y412311D01*
X496854Y412854D01*
X496345Y413245D01*
X496313Y413853D01*
X496315Y414232D01*
X496315Y414352D01*
Y417291D01*
X490500D01*
Y414232D01*
X493227D01*
X493645Y413336D01*
X493638Y413232D01*
X493146Y412854D01*
X492729Y412311D01*
X492467Y411679D01*
X492378Y411000D01*
X492467Y410321D01*
X492729Y409689D01*
X493146Y409146D01*
X493471Y408896D01*
Y408500D01*
X493587Y407915D01*
X493919Y407419D01*
X497448Y403889D01*
X497944Y403558D01*
X498095Y403528D01*
Y401953D01*
X498095Y401244D01*
X498095D01*
Y400953D01*
X498095D01*
Y397500D01*
X501653D01*
Y397000D01*
X502153D01*
Y393047D01*
X506817D01*
Y375654D01*
X506933Y375068D01*
X507265Y374572D01*
X509329Y372508D01*
Y369950D01*
X505908D01*
Y362050D01*
X515808D01*
Y369950D01*
X512388D01*
Y373142D01*
X512271Y373727D01*
X511940Y374223D01*
X509876Y376287D01*
Y393047D01*
X511905D01*
Y400953D01*
X511905D01*
Y401244D01*
X511905D01*
Y408756D01*
X509876D01*
Y440213D01*
X514344Y444681D01*
X515600D01*
Y438460D01*
Y433460D01*
Y428460D01*
Y423460D01*
Y418460D01*
Y413460D01*
Y408460D01*
Y403460D01*
Y398460D01*
Y393460D01*
Y388460D01*
X523500D01*
Y393460D01*
Y398460D01*
Y403460D01*
Y408460D01*
Y413460D01*
Y418460D01*
Y423460D01*
Y428460D01*
Y433460D01*
Y438460D01*
Y443460D01*
Y448460D01*
Y453460D01*
Y455710D01*
X515600D01*
Y453504D01*
X496240D01*
X491622Y458122D01*
X490878Y458619D01*
X490000Y458794D01*
X486905D01*
Y460453D01*
X485640D01*
Y462547D01*
X486905D01*
Y470453D01*
X485640D01*
Y472547D01*
X486905D01*
Y480453D01*
X477153D01*
Y476500D01*
Y472547D01*
X481052D01*
Y470453D01*
X477153D01*
Y466500D01*
Y462547D01*
X481052D01*
Y460453D01*
X477153D01*
Y456500D01*
Y452547D01*
X481052D01*
Y447797D01*
X477967Y444711D01*
X474991D01*
Y448142D01*
X459999D01*
Y436693D01*
X465201D01*
Y425307D01*
X464527D01*
Y413858D01*
X464093Y413038D01*
X461842D01*
X461409Y413858D01*
X461409Y414038D01*
Y419083D01*
X458440D01*
X455472D01*
Y414038D01*
X455472Y413858D01*
X455207Y413358D01*
X454130Y413248D01*
X450937Y416441D01*
X450275Y416883D01*
X449495Y417039D01*
X441495D01*
X440715Y416883D01*
X440053Y416441D01*
X440053Y416441D01*
X436650Y413038D01*
X429339Y413038D01*
X429339Y427500D01*
X429184Y428280D01*
X428742Y428942D01*
X428080Y429384D01*
X427300Y429539D01*
X420100Y429539D01*
X419320Y429384D01*
X418658Y428942D01*
X418216Y428280D01*
X418061Y427500D01*
Y426677D01*
X417995D01*
Y419378D01*
X415995D01*
Y426903D01*
X415534Y427125D01*
Y435000D01*
X415379Y435780D01*
X414937Y436442D01*
X414937Y436442D01*
X412937Y438442D01*
X412937Y438442D01*
X412276Y438884D01*
X411495Y439039D01*
X396340Y439039D01*
X390937Y444442D01*
X390276Y444884D01*
X389495Y445039D01*
X371495D01*
X370715Y444884D01*
X370053Y444442D01*
X369611Y443780D01*
X369456Y443000D01*
Y431301D01*
X368837Y430856D01*
X368456Y430767D01*
X368280Y430884D01*
X367500Y431039D01*
X340000Y431039D01*
X338000D01*
X337220Y430884D01*
X336558Y430442D01*
X336116Y429780D01*
X335961Y429000D01*
Y408868D01*
X335000Y408039D01*
X320000D01*
X319220Y407884D01*
X318558Y407442D01*
X318116Y406780D01*
X317961Y406000D01*
Y358000D01*
X318116Y357220D01*
X318558Y356558D01*
X319220Y356116D01*
X320000Y355961D01*
X335000D01*
X335780Y356116D01*
X336442Y356558D01*
X336884Y357220D01*
X336983Y357719D01*
X337948Y358169D01*
X339558Y356558D01*
X340220Y356116D01*
X341000Y355961D01*
X353961D01*
Y334000D01*
X353961Y326000D01*
X353961Y326000D01*
X354116Y325220D01*
X354558Y324558D01*
X354558Y324558D01*
X358558Y320558D01*
X358558Y320558D01*
X359220Y320116D01*
X360000Y319961D01*
X448000Y319961D01*
X448780Y320116D01*
X449442Y320558D01*
X451442Y322558D01*
X451884Y323220D01*
X452039Y324000D01*
Y329511D01*
X453039Y329851D01*
X453496Y329256D01*
X454445Y328527D01*
X455550Y328070D01*
X456236Y327979D01*
Y332496D01*
X457236D01*
Y327979D01*
X457922Y328070D01*
X459027Y328527D01*
X459976Y329256D01*
X460705Y330205D01*
X460706Y330208D01*
X461706Y330009D01*
Y327000D01*
X461881Y326122D01*
X462378Y325378D01*
X465378Y322378D01*
X466122Y321881D01*
X467000Y321706D01*
X484000D01*
X484878Y321881D01*
X485622Y322378D01*
X486736Y323492D01*
X496850Y313378D01*
X497594Y312880D01*
X498472Y312706D01*
X509126D01*
Y309079D01*
X515063D01*
Y320921D01*
X509126D01*
Y317294D01*
X499423D01*
X489120Y327597D01*
X489163Y328631D01*
X489977Y329256D01*
X490705Y330205D01*
X491163Y331310D01*
X491319Y332496D01*
X491163Y333682D01*
X490705Y334787D01*
X489977Y335736D01*
X489028Y336465D01*
X487922Y336922D01*
X486736Y337079D01*
X485550Y336922D01*
X484445Y336465D01*
X483496Y335736D01*
X482768Y334787D01*
X482310Y333682D01*
X482154Y332496D01*
X482310Y331310D01*
X482768Y330205D01*
X483496Y329256D01*
X484309Y328631D01*
X484353Y327597D01*
X483050Y326294D01*
X467950D01*
X466294Y327950D01*
Y331364D01*
X467294Y331430D01*
X467310Y331310D01*
X467768Y330205D01*
X468496Y329256D01*
X469445Y328527D01*
X470550Y328070D01*
X471736Y327914D01*
X472922Y328070D01*
X474027Y328527D01*
X474976Y329256D01*
X475705Y330205D01*
X476163Y331310D01*
X476319Y332496D01*
X476163Y333682D01*
X475705Y334787D01*
X474976Y335736D01*
X474603Y336023D01*
X474530Y337285D01*
X476950Y339706D01*
X495050D01*
X501378Y333378D01*
X502122Y332880D01*
X503000Y332706D01*
X509126D01*
Y329079D01*
X515063D01*
Y340921D01*
X509126D01*
Y337294D01*
X503950D01*
X497622Y343622D01*
X496878Y344120D01*
X496000Y344294D01*
X476950D01*
X471622Y349622D01*
X470878Y350119D01*
X470000Y350294D01*
X403000D01*
X402122Y350119D01*
X401378Y349622D01*
X393114Y341358D01*
X392617Y340614D01*
X392442Y339736D01*
Y335962D01*
X391496Y335236D01*
X390768Y334287D01*
X390310Y333182D01*
X390154Y331996D01*
X390310Y330810D01*
X390768Y329705D01*
X391278Y329039D01*
X390889Y328039D01*
X383583D01*
X383194Y329039D01*
X383705Y329705D01*
X384163Y330810D01*
X384253Y331496D01*
X375219D01*
X375310Y330810D01*
X375768Y329705D01*
X376278Y329039D01*
X375889Y328039D01*
X374039D01*
X374039Y338000D01*
X373884Y338780D01*
X373442Y339442D01*
X373442Y339442D01*
X363039Y349845D01*
X363039Y378000D01*
X362884Y378780D01*
X362442Y379442D01*
X361423Y380461D01*
X361837Y381461D01*
X393500D01*
X394280Y381616D01*
X394942Y382058D01*
X395384Y382720D01*
X395539Y383500D01*
Y400045D01*
X396550Y400888D01*
X397456Y400463D01*
Y399000D01*
X397456Y357000D01*
X397611Y356220D01*
X398053Y355558D01*
X398715Y355116D01*
X399495Y354961D01*
X421000Y354961D01*
X421780Y355116D01*
X422442Y355558D01*
X422884Y356220D01*
X422929Y356448D01*
X423991Y356659D01*
X424058Y356558D01*
X424720Y356116D01*
X425500Y355961D01*
X461972D01*
X462330Y355426D01*
X465378Y352378D01*
X466122Y351881D01*
X467000Y351706D01*
X508550D01*
X516206Y344050D01*
Y308500D01*
X516381Y307622D01*
X516878Y306878D01*
X521378Y302378D01*
X522122Y301881D01*
X522399Y301825D01*
X522300Y300826D01*
X316325D01*
Y485674D01*
X494000D01*
Y460000D01*
X614000D01*
Y485674D01*
X676675D01*
Y300826D01*
D02*
G37*
G36*
X648360Y448478D02*
X648094Y447778D01*
X647893Y447529D01*
X616905D01*
Y449471D01*
X647367D01*
X648360Y448478D01*
D02*
G37*
G36*
X648471Y436867D02*
Y434607D01*
X647471Y434192D01*
X644371Y437291D01*
X643875Y437623D01*
X643290Y437739D01*
X592400D01*
Y439681D01*
X645656D01*
X648471Y436867D01*
D02*
G37*
G36*
X653919Y437919D02*
X654415Y437587D01*
X655000Y437471D01*
X656547D01*
Y435047D01*
X664453D01*
X664471Y434055D01*
Y431961D01*
X663471Y431622D01*
X663319Y431819D01*
X662493Y432453D01*
X661532Y432851D01*
X661000Y432921D01*
Y429000D01*
Y425079D01*
X661532Y425149D01*
X662493Y425547D01*
X663319Y426181D01*
X663471Y426378D01*
X664471Y426039D01*
Y421961D01*
X663471Y421622D01*
X663319Y421819D01*
X662493Y422453D01*
X661532Y422851D01*
X660500Y422987D01*
X659468Y422851D01*
X658507Y422453D01*
X657681Y421819D01*
X657047Y420993D01*
X656855Y420529D01*
X652962D01*
X651529Y421962D01*
Y437500D01*
X651413Y438085D01*
X651081Y438581D01*
X647371Y442291D01*
X646875Y442623D01*
X646290Y442739D01*
X616905D01*
Y444471D01*
X647367D01*
X653919Y437919D01*
D02*
G37*
G36*
X487488Y433768D02*
X487180Y432768D01*
X483685D01*
Y429057D01*
X483543Y428939D01*
X482685Y428614D01*
X482280Y428884D01*
X481500Y429039D01*
X471500D01*
X470789Y428898D01*
X470690Y428902D01*
X469789Y429465D01*
Y436693D01*
X474991D01*
Y440123D01*
X481132D01*
X487488Y433768D01*
D02*
G37*
G36*
X645299Y432038D02*
Y414170D01*
X644375Y413788D01*
X626081Y432082D01*
X625585Y432413D01*
X625000Y432529D01*
X616905D01*
Y434681D01*
X642657D01*
X645299Y432038D01*
D02*
G37*
G36*
X651247Y417919D02*
X651743Y417587D01*
X652328Y417471D01*
X656855D01*
X657047Y417007D01*
X657681Y416181D01*
X658507Y415547D01*
X659468Y415149D01*
X660500Y415013D01*
X661532Y415149D01*
X662493Y415547D01*
X663319Y416181D01*
X663471Y416378D01*
X664471Y416039D01*
Y411961D01*
X663471Y411622D01*
X663319Y411819D01*
X662493Y412453D01*
X661532Y412851D01*
X660500Y412987D01*
X659468Y412851D01*
X658507Y412453D01*
X657681Y411819D01*
X657047Y410993D01*
X656855Y410529D01*
X651133D01*
X648358Y413305D01*
Y419393D01*
X649358Y419808D01*
X651247Y417919D01*
D02*
G37*
G36*
X493668Y449588D02*
X494412Y449090D01*
X495290Y448916D01*
X515600D01*
Y447739D01*
X513710D01*
X513125Y447623D01*
X512629Y447291D01*
X507265Y441928D01*
X506933Y441432D01*
X506817Y440846D01*
Y408756D01*
X505181D01*
Y408756D01*
X504819D01*
Y408756D01*
X502986D01*
Y425043D01*
X502870Y425629D01*
X502538Y426125D01*
X498373Y430290D01*
X497877Y430622D01*
X497291Y430738D01*
X496315D01*
Y432768D01*
X492294D01*
Y434500D01*
X492120Y435378D01*
X491622Y436122D01*
X483744Y444000D01*
X484969Y445224D01*
X485466Y445968D01*
X485640Y446846D01*
Y452547D01*
X486905D01*
Y454206D01*
X489050D01*
X493668Y449588D01*
D02*
G37*
G36*
X630098Y403739D02*
X629683Y402739D01*
X592400D01*
Y404727D01*
X629111D01*
X630098Y403739D01*
D02*
G37*
G36*
X631174Y398663D02*
X630791Y397739D01*
X592400D01*
Y399681D01*
X630157D01*
X631174Y398663D01*
D02*
G37*
G36*
X369500Y427000D02*
X400176D01*
X400542Y426677D01*
Y420378D01*
X403609D01*
Y419378D01*
X404609D01*
Y412079D01*
X405500D01*
Y411000D01*
X393500Y401000D01*
Y383500D01*
X338000D01*
Y429000D01*
X340000D01*
X367500Y429000D01*
X369500Y427000D01*
D02*
G37*
G36*
X427300Y410999D02*
X437495Y410999D01*
X441495Y414999D01*
X449495D01*
X453495Y410999D01*
X469499D01*
X471500Y413000D01*
Y427000D01*
X481500D01*
Y409000D01*
X469498Y396998D01*
Y385000D01*
X465500Y380500D01*
Y367756D01*
X464452D01*
Y364000D01*
Y360244D01*
X465500D01*
Y358000D01*
X425500D01*
Y401500D01*
X420100Y406900D01*
X420100Y427500D01*
X427300Y427500D01*
X427300Y410999D01*
D02*
G37*
G36*
X335000Y358000D02*
X320000D01*
Y406000D01*
X335000D01*
Y358000D01*
D02*
G37*
G36*
X395495Y437000D02*
X411495Y437000D01*
X413495Y435000D01*
Y427125D01*
X413369Y426677D01*
X411302D01*
Y419378D01*
Y412079D01*
X412995D01*
X413495Y411631D01*
Y409505D01*
X421000Y402000D01*
X421000Y357000D01*
X399495Y357000D01*
X399495Y399000D01*
Y403000D01*
X407495Y409000D01*
Y410695D01*
X407531Y410815D01*
X407521Y410908D01*
X407539Y411000D01*
Y412079D01*
X409302D01*
Y419378D01*
Y426677D01*
X407495D01*
Y429000D01*
X400373D01*
X400176Y429039D01*
X371495D01*
Y431000D01*
Y443000D01*
X389495D01*
X395495Y437000D01*
D02*
G37*
G36*
X584040Y342890D02*
X583847Y342601D01*
X583777Y342250D01*
X589051D01*
Y341250D01*
X583777D01*
X583847Y340899D01*
X584329Y340177D01*
X584902Y339795D01*
X584984Y339250D01*
X584902Y338705D01*
X584329Y338322D01*
X584300Y338279D01*
X582750D01*
X582165Y338163D01*
X581669Y337831D01*
X575366Y331529D01*
X564000D01*
X563415Y331413D01*
X562919Y331081D01*
X560919Y329081D01*
X560587Y328585D01*
X560471Y328000D01*
Y327083D01*
X557772D01*
Y322917D01*
X560471D01*
Y320024D01*
X559709Y319498D01*
X559471Y319436D01*
X559000Y319529D01*
X535000D01*
X534415Y319413D01*
X533919Y319081D01*
X531366Y316529D01*
X526874D01*
Y320921D01*
X520937D01*
X520794Y321862D01*
Y328138D01*
X520937Y329079D01*
X521794Y329079D01*
X526874D01*
Y333471D01*
X548520D01*
Y332917D01*
X550845D01*
Y327083D01*
X548520D01*
Y322917D01*
X556228D01*
Y327083D01*
X553903D01*
Y332917D01*
X556228D01*
Y336824D01*
X557000Y337263D01*
X557772Y336824D01*
Y335500D01*
X561126D01*
Y337089D01*
X560894Y337442D01*
X560746Y338083D01*
X561625Y338962D01*
X561956Y339458D01*
X562073Y340043D01*
Y342910D01*
X563053Y343890D01*
X583515D01*
X584040Y342890D01*
D02*
G37*
G36*
X472756Y342000D02*
X470114Y339358D01*
X469617Y338614D01*
X469442Y337736D01*
Y336462D01*
X468496Y335736D01*
X467768Y334787D01*
X467310Y333682D01*
X467294Y333562D01*
X466294Y333628D01*
Y336000D01*
X466119Y336878D01*
X465622Y337622D01*
X459622Y343622D01*
X458878Y344120D01*
X458000Y344294D01*
X415000D01*
X414122Y344120D01*
X413378Y343622D01*
X408114Y338358D01*
X407617Y337614D01*
X407442Y336736D01*
Y335962D01*
X406496Y335236D01*
X405768Y334287D01*
X405310Y333182D01*
X405154Y331996D01*
X405310Y330810D01*
X405768Y329705D01*
X406278Y329039D01*
X405889Y328039D01*
X398583D01*
X398194Y329039D01*
X398705Y329705D01*
X399163Y330810D01*
X399319Y331996D01*
X399163Y333182D01*
X398705Y334287D01*
X397976Y335236D01*
X397030Y335962D01*
Y338786D01*
X403950Y345706D01*
X469050D01*
X472756Y342000D01*
D02*
G37*
G36*
X638471Y341001D02*
Y334633D01*
X632117Y328279D01*
X612700D01*
X612671Y328323D01*
X612098Y328705D01*
X612016Y329250D01*
X612098Y329795D01*
X612671Y330177D01*
X613153Y330899D01*
X613322Y331750D01*
X613153Y332601D01*
X612671Y333323D01*
X612098Y333705D01*
X612016Y334250D01*
X612098Y334795D01*
X612671Y335177D01*
X613153Y335899D01*
X613322Y336750D01*
X613153Y337601D01*
X612671Y338322D01*
X612098Y338705D01*
X612016Y339250D01*
X612098Y339795D01*
X612671Y340177D01*
X612700Y340221D01*
X614366D01*
X616471Y338117D01*
Y337104D01*
X616146Y336854D01*
X615729Y336311D01*
X615467Y335679D01*
X615378Y335000D01*
X615467Y334321D01*
X615729Y333689D01*
X616146Y333146D01*
X616689Y332729D01*
X617321Y332467D01*
X618000Y332378D01*
X618679Y332467D01*
X619311Y332729D01*
X619854Y333146D01*
X620271Y333689D01*
X620533Y334321D01*
X620622Y335000D01*
X620533Y335679D01*
X620271Y336311D01*
X619854Y336854D01*
X619529Y337104D01*
Y338750D01*
X619436Y339221D01*
X619498Y339459D01*
X620024Y340221D01*
X635750D01*
X636335Y340337D01*
X636831Y340669D01*
X637547Y341384D01*
X638471Y341001D01*
D02*
G37*
G36*
X433822Y338706D02*
X432558Y337442D01*
X432116Y336780D01*
X431961Y336000D01*
Y328039D01*
X413583D01*
X413194Y329039D01*
X413705Y329705D01*
X414163Y330810D01*
X414319Y331996D01*
X414163Y333182D01*
X413705Y334287D01*
X412977Y335236D01*
X412732Y335424D01*
X412666Y336422D01*
X415950Y339706D01*
X433408D01*
X433822Y338706D01*
D02*
G37*
G36*
X361000Y378000D02*
X361000Y349000D01*
X372000Y338000D01*
X372000Y326000D01*
X434000D01*
Y336000D01*
X436000Y338000D01*
X448000D01*
X450000Y336000D01*
Y324000D01*
X448000Y322000D01*
X360000Y322000D01*
X356000Y326000D01*
X356000Y334000D01*
Y358000D01*
X341000D01*
X338000Y361000D01*
Y378000D01*
X340000Y380000D01*
X359000D01*
X361000Y378000D01*
D02*
G37*
G36*
X569471Y322366D02*
Y319905D01*
X567244D01*
Y313181D01*
X567244D01*
Y312819D01*
X567244D01*
Y311751D01*
X565457D01*
X564579Y311576D01*
X563834Y311079D01*
X559050Y306294D01*
X553903D01*
Y312917D01*
X556228D01*
Y316471D01*
X557772D01*
Y312917D01*
X565480D01*
Y317083D01*
X563529D01*
Y322917D01*
X565480D01*
Y323471D01*
X568366D01*
X569471Y322366D01*
D02*
G37*
G36*
X603800Y329795D02*
X603881Y329250D01*
X603800Y328705D01*
X603227Y328323D01*
X602745Y327601D01*
X602575Y326750D01*
X602745Y325899D01*
X603227Y325178D01*
X603948Y324695D01*
X604799Y324526D01*
X606419D01*
Y323051D01*
X606536Y322466D01*
X606867Y321970D01*
X608419Y320419D01*
X608915Y320087D01*
X609244Y319905D01*
Y313819D01*
X609244Y313181D01*
X609244Y312458D01*
X608537Y311751D01*
X603463D01*
X602756Y312458D01*
Y312819D01*
X602756Y313819D01*
Y319905D01*
X600529D01*
Y328366D01*
X602277Y330114D01*
X603227Y330177D01*
X603800Y329795D01*
D02*
G37*
G36*
X599669Y335669D02*
X600165Y335337D01*
X600750Y335221D01*
X603198D01*
X603227Y335177D01*
X603800Y334795D01*
X603881Y334250D01*
X603800Y333705D01*
X603227Y333323D01*
X603198Y333279D01*
X601750D01*
X601165Y333163D01*
X600669Y332831D01*
X597919Y330081D01*
X597587Y329585D01*
X597471Y329000D01*
Y319905D01*
X595244D01*
Y313819D01*
X595244Y313181D01*
X595244Y312458D01*
X594537Y311751D01*
X589463D01*
X588756Y312458D01*
Y312819D01*
X588756Y313819D01*
Y319905D01*
X587931D01*
X587650Y320239D01*
X587361Y320905D01*
X587533Y321321D01*
X587622Y322000D01*
X587533Y322679D01*
X587271Y323311D01*
X587106Y323526D01*
X587538Y324526D01*
X592201D01*
X593052Y324695D01*
X593773Y325178D01*
X594255Y325899D01*
X594425Y326750D01*
X594255Y327601D01*
X593773Y328323D01*
X593200Y328705D01*
X593119Y329250D01*
X593200Y329795D01*
X593773Y330177D01*
X593802Y330221D01*
X594250D01*
X594835Y330337D01*
X595331Y330669D01*
X597081Y332419D01*
X597413Y332915D01*
X597529Y333500D01*
Y336449D01*
X598073Y336736D01*
X598529Y336808D01*
X599669Y335669D01*
D02*
G37*
G36*
X584329Y335177D02*
X584902Y334795D01*
X584984Y334250D01*
X584902Y333705D01*
X584329Y333323D01*
X583847Y332601D01*
X583678Y331750D01*
X583847Y330899D01*
X584329Y330177D01*
X584902Y329795D01*
X584984Y329250D01*
X584902Y328705D01*
X584329Y328323D01*
X584300Y328279D01*
X582250D01*
X581665Y328163D01*
X581169Y327831D01*
X577419Y324081D01*
X577087Y323585D01*
X576971Y323000D01*
Y311751D01*
X574756D01*
Y312819D01*
X574756D01*
Y313181D01*
X574756D01*
Y319905D01*
X572529D01*
Y323000D01*
X572413Y323585D01*
X572081Y324081D01*
X570081Y326081D01*
X569585Y326413D01*
X569000Y326529D01*
X565480D01*
Y327083D01*
X565379D01*
X564876Y328083D01*
X565164Y328471D01*
X576000D01*
X576585Y328587D01*
X577081Y328919D01*
X583362Y335200D01*
X584329Y335177D01*
D02*
G37*
G36*
X548520Y312917D02*
X550845D01*
Y306294D01*
X523950D01*
X522089Y308155D01*
X522472Y309079D01*
X526874D01*
Y313471D01*
X532000D01*
X532585Y313587D01*
X533081Y313919D01*
X535634Y316471D01*
X548520D01*
Y312917D01*
D02*
G37*
%LPC*%
G36*
X476154Y480453D02*
X473095D01*
Y477000D01*
X476154D01*
Y480453D01*
D02*
G37*
G36*
Y476000D02*
X473095D01*
Y472547D01*
X476154D01*
Y476000D01*
D02*
G37*
G36*
Y470453D02*
X473095D01*
Y467000D01*
X476154D01*
Y470453D01*
D02*
G37*
G36*
X388991Y468405D02*
X381995D01*
Y463181D01*
X388991D01*
Y468405D01*
D02*
G37*
G36*
X380995D02*
X373999D01*
Y463181D01*
X380995D01*
Y468405D01*
D02*
G37*
G36*
X476154Y466000D02*
X473095D01*
Y462547D01*
X476154D01*
Y466000D01*
D02*
G37*
G36*
X660000Y480863D02*
X658144Y480717D01*
X656334Y480283D01*
X654614Y479570D01*
X653027Y478598D01*
X651611Y477389D01*
X650402Y475973D01*
X649430Y474386D01*
X648717Y472666D01*
X648283Y470856D01*
X648137Y469000D01*
X648283Y467144D01*
X648717Y465334D01*
X649430Y463614D01*
X650402Y462027D01*
X651611Y460611D01*
X653027Y459402D01*
X654614Y458430D01*
X656334Y457717D01*
X658144Y457283D01*
X660000Y457137D01*
X661856Y457283D01*
X663666Y457717D01*
X665386Y458430D01*
X666973Y459402D01*
X668389Y460611D01*
X669598Y462027D01*
X670570Y463614D01*
X671283Y465334D01*
X671717Y467144D01*
X671863Y469000D01*
X671717Y470856D01*
X671283Y472666D01*
X670570Y474386D01*
X669598Y475973D01*
X668389Y477389D01*
X666973Y478598D01*
X665386Y479570D01*
X663666Y480283D01*
X661856Y480717D01*
X660000Y480863D01*
D02*
G37*
G36*
X333000D02*
X331144Y480717D01*
X329334Y480283D01*
X327614Y479570D01*
X326027Y478598D01*
X324611Y477389D01*
X323402Y475973D01*
X322430Y474386D01*
X321717Y472666D01*
X321283Y470856D01*
X321137Y469000D01*
X321283Y467144D01*
X321717Y465334D01*
X322430Y463614D01*
X323402Y462027D01*
X324611Y460611D01*
X326027Y459402D01*
X327614Y458430D01*
X329334Y457717D01*
X331144Y457283D01*
X333000Y457137D01*
X334856Y457283D01*
X336666Y457717D01*
X338386Y458430D01*
X339973Y459402D01*
X341389Y460611D01*
X342598Y462027D01*
X343570Y463614D01*
X344283Y465334D01*
X344717Y467144D01*
X344863Y469000D01*
X344717Y470856D01*
X344283Y472666D01*
X343570Y474386D01*
X342598Y475973D01*
X341389Y477389D01*
X339973Y478598D01*
X338386Y479570D01*
X336666Y480283D01*
X334856Y480717D01*
X333000Y480863D01*
D02*
G37*
G36*
X476154Y460453D02*
X473095D01*
Y457000D01*
X476154D01*
Y460453D01*
D02*
G37*
G36*
X388991Y462181D02*
X381995D01*
Y456957D01*
X388991D01*
Y462181D01*
D02*
G37*
G36*
X380995D02*
X373999D01*
Y456957D01*
X380995D01*
Y462181D01*
D02*
G37*
G36*
X592400Y458960D02*
X588950D01*
Y456710D01*
X592400D01*
Y458960D01*
D02*
G37*
G36*
X523500D02*
X520050D01*
Y456710D01*
X523500D01*
Y458960D01*
D02*
G37*
G36*
X519050D02*
X515600D01*
Y456710D01*
X519050D01*
Y458960D01*
D02*
G37*
G36*
X587950D02*
X584500D01*
Y456710D01*
X587950D01*
Y458960D01*
D02*
G37*
G36*
X476154Y456000D02*
X473095D01*
Y452547D01*
X476154D01*
Y456000D01*
D02*
G37*
G36*
X554100Y434070D02*
Y431820D01*
X556350D01*
Y434070D01*
X554100D01*
D02*
G37*
G36*
X542080D02*
X539830D01*
Y431820D01*
X542080D01*
Y434070D01*
D02*
G37*
G36*
X448095Y427800D02*
X445995D01*
Y424300D01*
X448095D01*
Y427800D01*
D02*
G37*
G36*
X444995D02*
X442895D01*
Y424300D01*
X444995D01*
Y427800D01*
D02*
G37*
G36*
X461409Y425307D02*
X458940D01*
Y420083D01*
X461409D01*
Y425307D01*
D02*
G37*
G36*
X457940D02*
X455472D01*
Y420083D01*
X457940D01*
Y425307D01*
D02*
G37*
G36*
X448095Y423300D02*
X445995D01*
Y419800D01*
X448095D01*
Y423300D01*
D02*
G37*
G36*
X444995D02*
X442895D01*
Y419800D01*
X444995D01*
Y423300D01*
D02*
G37*
G36*
X334165Y423906D02*
X329137D01*
Y418878D01*
X334165D01*
Y423906D01*
D02*
G37*
G36*
X328137D02*
X323109D01*
Y418878D01*
X328137D01*
Y423906D01*
D02*
G37*
G36*
X490500Y421350D02*
Y418291D01*
X496315D01*
Y421350D01*
X490500D01*
D02*
G37*
G36*
X556350Y419800D02*
X554100D01*
Y417550D01*
X556350D01*
Y419800D01*
D02*
G37*
G36*
X542080D02*
X539830D01*
Y417550D01*
X542080D01*
Y419800D01*
D02*
G37*
G36*
X545340Y434070D02*
X544340Y434070D01*
X543080D01*
Y431320D01*
X542580D01*
Y430820D01*
X539830D01*
Y429560D01*
X539830Y428570D01*
X539830Y427570D01*
Y426310D01*
X542580D01*
Y425310D01*
X539830D01*
Y424050D01*
X539830Y423060D01*
X539830Y422060D01*
Y420800D01*
X542580D01*
Y420300D01*
X543080D01*
Y417550D01*
X544340D01*
X545330Y417550D01*
X546330Y417550D01*
X547590D01*
Y420300D01*
X548590D01*
Y417550D01*
X549850D01*
X550840Y417550D01*
X551840Y417550D01*
X553100D01*
Y420300D01*
X553600D01*
Y420800D01*
X556350D01*
Y422060D01*
X556350Y423050D01*
X556350Y424050D01*
Y425310D01*
X553600D01*
Y426310D01*
X556350D01*
Y427570D01*
X556350Y428560D01*
X556350Y429560D01*
Y430820D01*
X553600D01*
Y431320D01*
X553100D01*
Y434070D01*
X551840D01*
X550850Y434070D01*
X549850Y434070D01*
X548590D01*
Y431320D01*
X547590D01*
Y434070D01*
X545340D01*
D02*
G37*
G36*
X334165Y417878D02*
X329137D01*
Y412850D01*
X334165D01*
Y417878D01*
D02*
G37*
G36*
X328137D02*
X323109D01*
Y412850D01*
X328137D01*
Y417878D01*
D02*
G37*
G36*
X501154Y396500D02*
X498095D01*
Y393047D01*
X501154D01*
Y396500D01*
D02*
G37*
G36*
X491260Y393150D02*
X482492D01*
Y389500D01*
X491260D01*
Y393150D01*
D02*
G37*
G36*
X630500Y391557D02*
Y389500D01*
X632557D01*
X632533Y389679D01*
X632271Y390311D01*
X631854Y390854D01*
X631311Y391271D01*
X630679Y391533D01*
X630500Y391557D01*
D02*
G37*
G36*
X629500D02*
X629321Y391533D01*
X628689Y391271D01*
X628146Y390854D01*
X627729Y390311D01*
X627467Y389679D01*
X627443Y389500D01*
X629500D01*
Y391557D01*
D02*
G37*
G36*
X481492Y393150D02*
X472724D01*
Y389500D01*
X481492D01*
Y393150D01*
D02*
G37*
G36*
X531000Y390235D02*
X528750D01*
Y386785D01*
X531000D01*
Y390235D01*
D02*
G37*
G36*
X632557Y388500D02*
X630500D01*
Y386443D01*
X630679Y386467D01*
X631311Y386729D01*
X631854Y387146D01*
X632271Y387689D01*
X632533Y388321D01*
X632557Y388500D01*
D02*
G37*
G36*
X629500D02*
X627443D01*
X627467Y388321D01*
X627729Y387689D01*
X628146Y387146D01*
X628689Y386729D01*
X629321Y386467D01*
X629500Y386443D01*
Y388500D01*
D02*
G37*
G36*
X616905Y389500D02*
X613846D01*
Y386047D01*
X616905D01*
Y389500D01*
D02*
G37*
G36*
X491260Y388500D02*
X482492D01*
Y384850D01*
X491260D01*
Y388500D01*
D02*
G37*
G36*
X481492D02*
X472724D01*
Y384850D01*
X481492D01*
Y388500D01*
D02*
G37*
G36*
X531000Y385785D02*
X528750D01*
Y382335D01*
X531000D01*
Y385785D01*
D02*
G37*
G36*
X379645Y379701D02*
X375995D01*
Y370933D01*
X379645D01*
Y379701D01*
D02*
G37*
G36*
X374995D02*
X371346D01*
Y370933D01*
X374995D01*
Y379701D01*
D02*
G37*
G36*
X548092Y369950D02*
X543642D01*
Y366500D01*
X548092D01*
Y369950D01*
D02*
G37*
G36*
X562808D02*
X558358D01*
Y366500D01*
X562808D01*
Y369950D01*
D02*
G37*
G36*
X557358D02*
X552908D01*
Y366500D01*
X557358D01*
Y369950D01*
D02*
G37*
G36*
X542642D02*
X538192D01*
Y366500D01*
X542642D01*
Y369950D01*
D02*
G37*
G36*
X487342Y366968D02*
Y364500D01*
X490007D01*
Y366968D01*
X487342D01*
D02*
G37*
G36*
X606153Y365968D02*
X603488D01*
Y363500D01*
X606153D01*
Y365968D01*
D02*
G37*
G36*
X660000Y370987D02*
X658968Y370851D01*
X658007Y370453D01*
X657181Y369819D01*
X656547Y368993D01*
X656149Y368032D01*
X656013Y367000D01*
X656149Y365968D01*
X656547Y365007D01*
X657181Y364181D01*
X658007Y363547D01*
X658968Y363149D01*
X660000Y363013D01*
X661032Y363149D01*
X661993Y363547D01*
X662819Y364181D01*
X663453Y365007D01*
X663851Y365968D01*
X663987Y367000D01*
X663851Y368032D01*
X663453Y368993D01*
X662819Y369819D01*
X661993Y370453D01*
X661032Y370851D01*
X660000Y370987D01*
D02*
G37*
G36*
X562808Y365500D02*
X558358D01*
Y362050D01*
X562808D01*
Y365500D01*
D02*
G37*
G36*
X557358D02*
X552908D01*
Y362050D01*
X557358D01*
Y365500D01*
D02*
G37*
G36*
X548092D02*
X543642D01*
Y362050D01*
X548092D01*
Y365500D01*
D02*
G37*
G36*
X542642D02*
X538192D01*
Y362050D01*
X542642D01*
Y365500D01*
D02*
G37*
G36*
X379645Y369933D02*
X375995D01*
Y361165D01*
X379645D01*
Y369933D01*
D02*
G37*
G36*
X374995D02*
X371346D01*
Y361165D01*
X374995D01*
Y369933D01*
D02*
G37*
G36*
X490007Y363500D02*
X487342D01*
Y361032D01*
X490007D01*
Y363500D01*
D02*
G37*
G36*
X606153Y362500D02*
X603488D01*
Y360032D01*
X606153D01*
Y362500D01*
D02*
G37*
G36*
X663953Y360953D02*
X660500D01*
Y357500D01*
X663953D01*
Y360953D01*
D02*
G37*
G36*
X659500D02*
X656047D01*
Y357500D01*
X659500D01*
Y360953D01*
D02*
G37*
G36*
X614043Y357756D02*
Y354500D01*
X616905D01*
Y357756D01*
X614043D01*
D02*
G37*
G36*
X663953Y356500D02*
X660500D01*
Y353047D01*
X663953D01*
Y356500D01*
D02*
G37*
G36*
X659500D02*
X656047D01*
Y353047D01*
X659500D01*
Y356500D01*
D02*
G37*
G36*
X616905Y353500D02*
X614043D01*
Y350244D01*
X616905D01*
Y353500D01*
D02*
G37*
G36*
X380236Y336513D02*
Y332496D01*
X384253D01*
X384163Y333182D01*
X383705Y334287D01*
X382977Y335236D01*
X382028Y335965D01*
X380922Y336422D01*
X380236Y336513D01*
D02*
G37*
G36*
X379236D02*
X378550Y336422D01*
X377445Y335965D01*
X376496Y335236D01*
X375768Y334287D01*
X375310Y333182D01*
X375219Y332496D01*
X379236D01*
Y336513D01*
D02*
G37*
G36*
X636315Y320571D02*
X630500D01*
Y317512D01*
X636315D01*
Y320571D01*
D02*
G37*
G36*
X629500D02*
X623685D01*
Y317512D01*
X629500D01*
Y320571D01*
D02*
G37*
G36*
X660000Y329363D02*
X658144Y329217D01*
X656334Y328783D01*
X654614Y328070D01*
X653027Y327098D01*
X651611Y325889D01*
X650402Y324473D01*
X649430Y322886D01*
X648717Y321166D01*
X648283Y319356D01*
X648137Y317500D01*
X648283Y315644D01*
X648717Y313834D01*
X649430Y312114D01*
X650402Y310527D01*
X651611Y309111D01*
X653027Y307902D01*
X654614Y306930D01*
X656334Y306217D01*
X658144Y305783D01*
X660000Y305637D01*
X661856Y305783D01*
X663666Y306217D01*
X665386Y306930D01*
X666973Y307902D01*
X668389Y309111D01*
X669598Y310527D01*
X670570Y312114D01*
X671283Y313834D01*
X671717Y315644D01*
X671863Y317500D01*
X671717Y319356D01*
X671283Y321166D01*
X670570Y322886D01*
X669598Y324473D01*
X668389Y325889D01*
X666973Y327098D01*
X665386Y328070D01*
X663666Y328783D01*
X661856Y329217D01*
X660000Y329363D01*
D02*
G37*
G36*
X333000D02*
X331144Y329217D01*
X329334Y328783D01*
X327614Y328070D01*
X326027Y327098D01*
X324611Y325889D01*
X323402Y324473D01*
X322430Y322886D01*
X321717Y321166D01*
X321283Y319356D01*
X321137Y317500D01*
X321283Y315644D01*
X321717Y313834D01*
X322430Y312114D01*
X323402Y310527D01*
X324611Y309111D01*
X326027Y307902D01*
X327614Y306930D01*
X329334Y306217D01*
X331144Y305783D01*
X333000Y305637D01*
X334856Y305783D01*
X336666Y306217D01*
X338386Y306930D01*
X339973Y307902D01*
X341389Y309111D01*
X342598Y310527D01*
X343570Y312114D01*
X344283Y313834D01*
X344717Y315644D01*
X344863Y317500D01*
X344717Y319356D01*
X344283Y321166D01*
X343570Y322886D01*
X342598Y324473D01*
X341389Y325889D01*
X339973Y327098D01*
X338386Y328070D01*
X336666Y328783D01*
X334856Y329217D01*
X333000Y329363D01*
D02*
G37*
G36*
X660000Y432921D02*
X659468Y432851D01*
X658507Y432453D01*
X657681Y431819D01*
X657047Y430993D01*
X656649Y430032D01*
X656579Y429500D01*
X660000D01*
Y432921D01*
D02*
G37*
G36*
Y428500D02*
X656579D01*
X656649Y427968D01*
X657047Y427007D01*
X657681Y426181D01*
X658507Y425547D01*
X659468Y425149D01*
X660000Y425079D01*
Y428500D01*
D02*
G37*
G36*
X351881Y423906D02*
X347354D01*
Y419378D01*
X351881D01*
Y423906D01*
D02*
G37*
G36*
X345354D02*
X340826D01*
Y419378D01*
X345354D01*
Y423906D01*
D02*
G37*
G36*
X351881Y417378D02*
X347354D01*
Y412850D01*
X351881D01*
Y417378D01*
D02*
G37*
G36*
X345354D02*
X340826D01*
Y412850D01*
X345354D01*
Y417378D01*
D02*
G37*
G36*
X402609Y418378D02*
X400542D01*
Y412079D01*
X402609D01*
Y418378D01*
D02*
G37*
G36*
X379645Y408835D02*
X376495D01*
Y400567D01*
X379645D01*
Y408835D01*
D02*
G37*
G36*
X374495D02*
X371346D01*
Y400567D01*
X374495D01*
Y408835D01*
D02*
G37*
G36*
X351295Y401900D02*
X347795D01*
Y395000D01*
X351295D01*
Y401900D01*
D02*
G37*
G36*
X345795D02*
X342295D01*
Y395000D01*
X345795D01*
Y401900D01*
D02*
G37*
G36*
X379645Y398567D02*
X376495D01*
Y390299D01*
X379645D01*
Y398567D01*
D02*
G37*
G36*
X374495D02*
X371346D01*
Y390299D01*
X374495D01*
Y398567D01*
D02*
G37*
G36*
X351295Y393000D02*
X347795D01*
Y386100D01*
X351295D01*
Y393000D01*
D02*
G37*
G36*
X345795D02*
X342295D01*
Y386100D01*
X345795D01*
Y393000D01*
D02*
G37*
G36*
X426755Y426677D02*
X424688D01*
Y420378D01*
X426755D01*
Y426677D01*
D02*
G37*
G36*
X422688D02*
X420621D01*
Y420378D01*
X422688D01*
Y426677D01*
D02*
G37*
G36*
X479519Y425307D02*
X477050D01*
Y420083D01*
X479519D01*
Y425307D01*
D02*
G37*
G36*
X476050D02*
X473582D01*
Y420083D01*
X476050D01*
Y425307D01*
D02*
G37*
G36*
X479519Y419083D02*
X477050D01*
Y413858D01*
X479519D01*
Y419083D01*
D02*
G37*
G36*
X476050D02*
X473582D01*
Y413858D01*
X476050D01*
Y419083D01*
D02*
G37*
G36*
X426755Y418378D02*
X424688D01*
Y412079D01*
X426755D01*
Y418378D01*
D02*
G37*
G36*
X422688D02*
X420621D01*
Y412079D01*
X422688D01*
Y418378D01*
D02*
G37*
G36*
X448095Y414200D02*
X445995D01*
Y410700D01*
X448095D01*
Y414200D01*
D02*
G37*
G36*
X444995D02*
X442895D01*
Y410700D01*
X444995D01*
Y414200D01*
D02*
G37*
G36*
X448095Y409700D02*
X445995D01*
Y406200D01*
X448095D01*
Y409700D01*
D02*
G37*
G36*
X444995D02*
X442895D01*
Y406200D01*
X444995D01*
Y409700D01*
D02*
G37*
G36*
X465276Y393150D02*
X456508D01*
Y389500D01*
X465276D01*
Y393150D01*
D02*
G37*
G36*
X455508D02*
X446740D01*
Y389500D01*
X455508D01*
Y393150D01*
D02*
G37*
G36*
X465276Y388500D02*
X456508D01*
Y384850D01*
X465276D01*
Y388500D01*
D02*
G37*
G36*
X455508D02*
X446740D01*
Y384850D01*
X455508D01*
Y388500D01*
D02*
G37*
G36*
X444395Y402100D02*
X436995D01*
Y381500D01*
X444395D01*
Y402100D01*
D02*
G37*
G36*
X435995D02*
X428595D01*
Y381500D01*
X435995D01*
Y402100D01*
D02*
G37*
G36*
X463452Y367756D02*
X460590D01*
Y364500D01*
X463452D01*
Y367756D01*
D02*
G37*
G36*
Y363500D02*
X460590D01*
Y360244D01*
X463452D01*
Y363500D01*
D02*
G37*
G36*
X444395Y380500D02*
X436995D01*
Y359900D01*
X444395D01*
Y380500D01*
D02*
G37*
G36*
X435995D02*
X428595D01*
Y359900D01*
X435995D01*
Y380500D01*
D02*
G37*
G36*
X330705Y401900D02*
X326705D01*
Y394500D01*
X330705D01*
Y401900D01*
D02*
G37*
G36*
X325705D02*
X321705D01*
Y394500D01*
X325705D01*
Y401900D01*
D02*
G37*
G36*
X330705Y393500D02*
X326705D01*
Y386100D01*
X330705D01*
Y393500D01*
D02*
G37*
G36*
X325705D02*
X321705D01*
Y386100D01*
X325705D01*
Y393500D01*
D02*
G37*
G36*
X333169Y376028D02*
X328142D01*
Y371000D01*
X333169D01*
Y376028D01*
D02*
G37*
G36*
X327142D02*
X322114D01*
Y371000D01*
X327142D01*
Y376028D01*
D02*
G37*
G36*
X333169Y370000D02*
X328142D01*
Y364972D01*
X333169D01*
Y370000D01*
D02*
G37*
G36*
X327142D02*
X322114D01*
Y364972D01*
X327142D01*
Y370000D01*
D02*
G37*
G36*
X388991Y441043D02*
X382495D01*
Y436319D01*
X388991D01*
Y441043D01*
D02*
G37*
G36*
X380495D02*
X373999D01*
Y436319D01*
X380495D01*
Y441043D01*
D02*
G37*
G36*
X388991Y434319D02*
X382495D01*
Y429595D01*
X388991D01*
Y434319D01*
D02*
G37*
G36*
X380495D02*
X373999D01*
Y429595D01*
X380495D01*
Y434319D01*
D02*
G37*
G36*
X418395Y402100D02*
X411495D01*
Y382000D01*
X418395D01*
Y402100D01*
D02*
G37*
G36*
X409495D02*
X402595D01*
Y382000D01*
X409495D01*
Y402100D01*
D02*
G37*
G36*
X418395Y380000D02*
X411495D01*
Y359900D01*
X418395D01*
Y380000D01*
D02*
G37*
G36*
X409495D02*
X402595D01*
Y359900D01*
X409495D01*
Y380000D01*
D02*
G37*
G36*
X572500Y340557D02*
Y338500D01*
X574557D01*
X574533Y338679D01*
X574271Y339311D01*
X573854Y339854D01*
X573311Y340271D01*
X572679Y340533D01*
X572500Y340557D01*
D02*
G37*
G36*
X571500D02*
X571321Y340533D01*
X570689Y340271D01*
X570146Y339854D01*
X569729Y339311D01*
X569467Y338679D01*
X569443Y338500D01*
X571500D01*
Y340557D01*
D02*
G37*
G36*
X565480Y337083D02*
X562126D01*
Y335500D01*
X565480D01*
Y337083D01*
D02*
G37*
G36*
X574557Y337500D02*
X572500D01*
Y335443D01*
X572679Y335467D01*
X573311Y335729D01*
X573854Y336146D01*
X574271Y336689D01*
X574533Y337321D01*
X574557Y337500D01*
D02*
G37*
G36*
X571500D02*
X569443D01*
X569467Y337321D01*
X569729Y336689D01*
X570146Y336146D01*
X570689Y335729D01*
X571321Y335467D01*
X571500Y335443D01*
Y337500D01*
D02*
G37*
G36*
X565480Y334500D02*
X562126D01*
Y332917D01*
X565480D01*
Y334500D01*
D02*
G37*
G36*
X561126D02*
X557772D01*
Y332917D01*
X561126D01*
Y334500D01*
D02*
G37*
G36*
X350886Y376028D02*
X345858D01*
Y371000D01*
X350886D01*
Y376028D01*
D02*
G37*
G36*
X344858D02*
X339831D01*
Y371000D01*
X344858D01*
Y376028D01*
D02*
G37*
G36*
X350886Y370000D02*
X345858D01*
Y364972D01*
X350886D01*
Y370000D01*
D02*
G37*
G36*
X344858D02*
X339831D01*
Y364972D01*
X344858D01*
Y370000D01*
D02*
G37*
G36*
X446279Y337039D02*
X442236D01*
Y332996D01*
X446279D01*
Y337039D01*
D02*
G37*
G36*
X441236D02*
X437193D01*
Y332996D01*
X441236D01*
Y337039D01*
D02*
G37*
G36*
X369280Y336539D02*
X365236D01*
Y332496D01*
X369280D01*
Y336539D01*
D02*
G37*
G36*
X364236D02*
X360193D01*
Y332496D01*
X364236D01*
Y336539D01*
D02*
G37*
G36*
X446279Y331996D02*
X442236D01*
Y327953D01*
X446279D01*
Y331996D01*
D02*
G37*
G36*
X441236D02*
X437193D01*
Y327953D01*
X441236D01*
Y331996D01*
D02*
G37*
G36*
X369280Y331496D02*
X365236D01*
Y327453D01*
X369280D01*
Y331496D01*
D02*
G37*
G36*
X364236D02*
X360193D01*
Y327453D01*
X364236D01*
Y331496D01*
D02*
G37*
%LPD*%
D10*
X548090Y425810D02*
D03*
Y431320D02*
D03*
X553600D02*
D03*
Y425810D02*
D03*
Y420300D02*
D03*
X548090D02*
D03*
X542580D02*
D03*
Y425810D02*
D03*
Y431320D02*
D03*
D11*
X588450Y456210D02*
D03*
Y451210D02*
D03*
Y446210D02*
D03*
Y441210D02*
D03*
Y436210D02*
D03*
Y431210D02*
D03*
Y426210D02*
D03*
Y421210D02*
D03*
Y416210D02*
D03*
Y411210D02*
D03*
Y406210D02*
D03*
Y401210D02*
D03*
Y396210D02*
D03*
Y391210D02*
D03*
X519550D02*
D03*
Y396210D02*
D03*
Y401210D02*
D03*
Y406210D02*
D03*
Y411210D02*
D03*
Y416210D02*
D03*
Y421210D02*
D03*
Y426210D02*
D03*
Y431210D02*
D03*
Y436210D02*
D03*
Y441210D02*
D03*
Y446210D02*
D03*
Y451210D02*
D03*
Y456210D02*
D03*
D12*
X576500Y386285D02*
D03*
X571500D02*
D03*
X566500D02*
D03*
X561500D02*
D03*
X556500D02*
D03*
X551500D02*
D03*
X546500D02*
D03*
X541500D02*
D03*
X536500D02*
D03*
X531500D02*
D03*
D13*
X613543Y372000D02*
D03*
X606457D02*
D03*
X471039Y364000D02*
D03*
X463952D02*
D03*
X606457Y431000D02*
D03*
X613543D02*
D03*
X606457Y446000D02*
D03*
X613543D02*
D03*
X613543Y354000D02*
D03*
X606457D02*
D03*
X606457Y381000D02*
D03*
X613543D02*
D03*
X508543Y405000D02*
D03*
X501457D02*
D03*
D14*
X606653Y363000D02*
D03*
X613346D02*
D03*
X486842Y364000D02*
D03*
X480149D02*
D03*
D15*
X571000Y316543D02*
D03*
Y309457D02*
D03*
X599000Y316543D02*
D03*
Y309457D02*
D03*
X585000Y316543D02*
D03*
Y309457D02*
D03*
X613000Y316543D02*
D03*
Y309457D02*
D03*
D16*
X561626Y325000D02*
D03*
X552374D02*
D03*
X561626Y315000D02*
D03*
X552374D02*
D03*
X561626Y335000D02*
D03*
X552374D02*
D03*
D17*
X557858Y366000D02*
D03*
X590142D02*
D03*
X543142D02*
D03*
X510858D02*
D03*
D18*
X445495Y410200D02*
D03*
Y423800D02*
D03*
D19*
X456008Y389000D02*
D03*
X481992D02*
D03*
D20*
X403609Y419378D02*
D03*
X410302D02*
D03*
X416995D02*
D03*
X423688D02*
D03*
X430381D02*
D03*
D21*
X416995Y456583D02*
D03*
D22*
X346354Y418378D02*
D03*
X328637D02*
D03*
X345358Y370500D02*
D03*
X327642D02*
D03*
D23*
X326205Y394000D02*
D03*
X346795D02*
D03*
D24*
X436495Y381000D02*
D03*
X410495D02*
D03*
D25*
X630000Y321071D02*
D03*
Y309653D02*
D03*
X490000Y417791D02*
D03*
Y429209D02*
D03*
D26*
X607949Y326750D02*
D03*
Y331750D02*
D03*
Y336750D02*
D03*
Y341750D02*
D03*
X589051Y326750D02*
D03*
Y331750D02*
D03*
Y336750D02*
D03*
Y341750D02*
D03*
D27*
X512094Y315000D02*
D03*
X523906D02*
D03*
X512094Y335000D02*
D03*
X523906D02*
D03*
D28*
X375495Y370433D02*
D03*
Y399567D02*
D03*
D29*
X613346Y390000D02*
D03*
X606653D02*
D03*
X501653Y397000D02*
D03*
X508347D02*
D03*
X476653Y476500D02*
D03*
X483347D02*
D03*
X476653Y466500D02*
D03*
X483347D02*
D03*
X476653Y456500D02*
D03*
X483347D02*
D03*
D30*
X381495Y435319D02*
D03*
Y462681D02*
D03*
D31*
X458440Y419583D02*
D03*
X467495D02*
D03*
X476550D02*
D03*
D32*
X467495Y442417D02*
D03*
D33*
X588450Y406210D02*
Y406256D01*
X548090Y425810D02*
X553600D01*
X542580D02*
X548090D01*
Y420300D02*
Y425810D01*
Y431320D01*
X480149Y364000D02*
X480149Y364000D01*
X471039Y364000D02*
X480149D01*
X589051Y326750D02*
X589244Y326557D01*
X535000Y318000D02*
X559000D01*
X562000Y315000D01*
Y328000D02*
X564000Y330000D01*
X576000D01*
X582750Y336750D01*
X589051D01*
X561626Y325000D02*
X562000D01*
Y315000D02*
Y325000D01*
Y328000D01*
Y325000D02*
X569000D01*
X571000Y316543D02*
Y323000D01*
X552500Y337500D02*
X554000Y339000D01*
X559500D01*
X560543Y340043D01*
X589051Y331750D02*
X594250D01*
X596000Y333500D01*
X607949Y331750D02*
Y336750D01*
X596000Y333500D02*
Y343500D01*
X599500Y345000D02*
X600500Y346000D01*
X599500Y338000D02*
Y345000D01*
Y338000D02*
X600750Y336750D01*
X607949D01*
X562419Y345419D02*
X594081D01*
X560543Y343543D02*
X562419Y345419D01*
X560543Y340043D02*
Y343543D01*
X569000Y325000D02*
X571000Y323000D01*
X523906Y315000D02*
X532000D01*
X535000Y318000D01*
X552374Y325000D02*
Y335000D01*
X552500D02*
Y337500D01*
X523906Y335000D02*
X552374D01*
X552500D01*
X599000Y316543D02*
Y329000D01*
X601750Y331750D01*
X607949D01*
X606457Y381000D02*
Y389803D01*
X606653Y390000D01*
X588450Y376050D02*
Y391210D01*
Y376050D02*
X590142Y374358D01*
Y366000D02*
Y374358D01*
X576500Y364000D02*
Y386285D01*
Y364000D02*
X580500Y360000D01*
X613346Y363000D02*
Y371803D01*
X613543Y372000D01*
X602661Y354000D02*
X606457D01*
X594081Y345419D02*
X596000Y343500D01*
X594081Y345419D02*
X602661Y354000D01*
X588450Y391210D02*
X596790D01*
X598000Y390000D01*
X606653D01*
X580500Y360000D02*
X597000D01*
X598500Y361500D01*
Y370000D01*
X600500Y372000D01*
X606457D01*
X588450Y446210D02*
X606247D01*
X606457Y446000D01*
X660000Y377000D02*
X665000D01*
X668000Y380000D01*
X588450Y441210D02*
X646290D01*
X652328Y419000D02*
X660500D01*
X588450Y436210D02*
X643290D01*
X646828Y432672D01*
X650000Y421328D02*
X652328Y419000D01*
X650000Y421328D02*
Y437500D01*
X646290Y441210D02*
X650000Y437500D01*
X552374Y304126D02*
Y315000D01*
Y304126D02*
X552500Y304000D01*
X578500Y309457D02*
Y323000D01*
X582250Y326750D01*
X589051D01*
X585000Y316543D02*
Y322000D01*
X585000Y322000D02*
X585000Y322000D01*
X618000Y335000D02*
Y338750D01*
X615000Y341750D02*
X618000Y338750D01*
X607949Y341750D02*
X615000D01*
X613000Y316543D02*
Y320500D01*
X612000Y321500D02*
X613000Y320500D01*
X609500Y321500D02*
X612000D01*
X607949Y323051D02*
X609500Y321500D01*
X607949Y323051D02*
Y326750D01*
X513710Y446210D02*
X519550D01*
X510858Y366000D02*
Y373142D01*
X508347Y375654D02*
X510858Y373142D01*
X508347Y375654D02*
Y440846D01*
X513710Y446210D01*
X490000Y429209D02*
X497291D01*
X501457Y425043D01*
X613543Y446000D02*
X648000D01*
X655000Y439000D01*
X660500D01*
X613543Y381000D02*
X626000D01*
X628000Y379000D01*
Y376000D02*
Y379000D01*
X588450Y406256D02*
X629744D01*
X640000Y396000D01*
X607949Y326750D02*
X632750D01*
X640000Y334000D01*
X615000Y341750D02*
X635750D01*
X638000Y344000D01*
X640000Y334000D02*
Y396000D01*
X600500Y346000D02*
X634000D01*
X636000Y348000D01*
X588450Y401210D02*
X630790D01*
X638000Y394000D01*
Y344000D02*
Y394000D01*
X588450Y396210D02*
X632790D01*
X636000Y393000D01*
Y348000D02*
Y393000D01*
X495000Y408500D02*
Y411000D01*
Y408500D02*
X498529Y404971D01*
X501457D01*
Y425043D01*
X660500Y439000D02*
X664172D01*
X666000Y437172D01*
X606457Y446000D02*
Y449457D01*
X608000Y451000D01*
X648000D01*
X655000Y444000D01*
X666000D01*
X668000Y442000D01*
Y380000D02*
Y442000D01*
X588450Y431210D02*
X588660Y431000D01*
X606457D01*
Y427543D02*
Y431000D01*
Y427543D02*
X607457Y426543D01*
X625457D01*
X660000Y392000D01*
Y387000D02*
Y392000D01*
X646828Y412672D02*
Y432672D01*
Y412672D02*
X650500Y409000D01*
X660500D01*
X613543Y431000D02*
X625000D01*
X652000Y404000D01*
X663500D01*
X666000Y406500D01*
Y437172D01*
D34*
X458000Y342000D02*
X464000Y336000D01*
Y327000D02*
Y336000D01*
Y327000D02*
X467000Y324000D01*
X484000D01*
X486736Y326736D01*
Y332496D01*
Y326736D02*
X498472Y315000D01*
X512094D01*
X503000Y335000D02*
X512094D01*
X496000Y342000D02*
X503000Y335000D01*
X471736Y332496D02*
Y337736D01*
X476000Y342000D01*
X496000D01*
X470000Y348000D02*
X476000Y342000D01*
X394736Y331996D02*
Y339736D01*
X403000Y348000D01*
X470000D01*
X409736Y331996D02*
Y336736D01*
X415000Y342000D01*
X458000D01*
X613197Y309653D02*
X630000D01*
X613000Y309457D02*
X613197Y309653D01*
X599000Y309457D02*
X613000D01*
X585000D02*
X599000D01*
X463952Y357048D02*
Y364000D01*
Y357048D02*
X467000Y354000D01*
X560000Y304000D02*
X565457Y309457D01*
X571000D01*
X523000Y304000D02*
X552500D01*
X560000D01*
X518500Y308500D02*
X523000Y304000D01*
X467000Y354000D02*
X509500D01*
X518500Y345000D01*
Y308500D02*
Y345000D01*
X571000Y309457D02*
X578500D01*
X585000D01*
X467495Y419583D02*
Y442417D01*
X490000Y429209D02*
Y434500D01*
X482083Y442417D02*
X490000Y434500D01*
X483347Y456500D02*
Y466500D01*
Y476500D01*
X467495Y442417D02*
X478917D01*
X483347Y446846D01*
Y456500D01*
X478917Y442417D02*
X482083D01*
X483347Y456500D02*
X490000D01*
X495290Y451210D01*
X519550D01*
D35*
X542580Y431320D02*
D03*
X548090D02*
D03*
X553600D02*
D03*
X542580Y425810D02*
D03*
X548090D02*
D03*
X553600D02*
D03*
Y420300D02*
D03*
X548090D02*
D03*
X542580D02*
D03*
X416995Y456583D02*
D03*
X424995Y448583D02*
D03*
Y444583D02*
D03*
X408995Y468583D02*
D03*
X420995Y464583D02*
D03*
X408995D02*
D03*
X416995D02*
D03*
X420995Y460583D02*
D03*
X408995Y444583D02*
D03*
Y456583D02*
D03*
X416995Y468583D02*
D03*
X412995Y444583D02*
D03*
X424995Y468583D02*
D03*
X416995Y460583D02*
D03*
Y448583D02*
D03*
X420995Y444583D02*
D03*
X416995D02*
D03*
X420995Y456583D02*
D03*
Y452583D02*
D03*
X416995D02*
D03*
X408995D02*
D03*
Y448583D02*
D03*
X420995D02*
D03*
X412995Y464583D02*
D03*
Y448583D02*
D03*
X408995Y460583D02*
D03*
X420995Y468583D02*
D03*
X424995Y452583D02*
D03*
Y456583D02*
D03*
Y460583D02*
D03*
X412995Y468583D02*
D03*
Y452583D02*
D03*
Y456583D02*
D03*
Y460583D02*
D03*
X424995Y464583D02*
D03*
D36*
X409736Y331996D02*
D03*
X394736D02*
D03*
X379736D02*
D03*
X486736Y332496D02*
D03*
X471736D02*
D03*
X456736D02*
D03*
D37*
X364736Y331996D02*
D03*
X441736Y332496D02*
D03*
D38*
X660000Y387000D02*
D03*
Y377000D02*
D03*
Y367000D02*
D03*
X660500Y409000D02*
D03*
Y419000D02*
D03*
Y429000D02*
D03*
D39*
X660000Y357000D02*
D03*
X660500Y439000D02*
D03*
D40*
X333000Y469000D02*
D03*
Y317500D02*
D03*
X660000D02*
D03*
Y469000D02*
D03*
D41*
X585000Y322000D02*
D03*
X618000Y335000D02*
D03*
X628000Y376000D02*
D03*
X630000Y389000D02*
D03*
X572000Y338000D02*
D03*
X495000Y411000D02*
D03*
M02*
