M48
;Layer_Color=9474304
;FILE_FORMAT=2:5
INCH,TZ
;TYPE=PLATED
T1F00S00C0.01200
T2F00S00C0.01600
T3F00S00C0.03543
T4F00S00C0.04724
T5F00S00C0.15748
%
T01
X408995Y444583
X412995
X416995
Y448583
Y452583
Y456583
Y460583
Y464583
X420995
Y460583
Y456583
Y452583
Y448583
X424995
Y444583
X420995
X412995Y448583
X408995
Y452583
Y456583
Y460583
Y464583
Y468583
X412995
X416995
X420995
X424995
Y464583
Y460583
Y456583
Y452583
X412995
Y456583
Y460583
Y464583
X542580Y431320
X548090
X553600
Y425810
X548090
X542580
Y420300
X548090
X553600
T02
X495000Y411000
X572000Y338000
X585000Y322000
X618000Y335000
X628000Y376000
X630000Y389000
T03
X660000Y357000
Y367000
Y377000
Y387000
X660500Y409000
Y419000
Y429000
Y439000
T04
X364736Y331996
X379736
X394736
X409736
X441736Y332496
X456736
X471736
X486736
T05
X333000Y317500
X660000
Y469000
X333000
M30
