G04 Layer_Color=16711935*
%FSLAX25Y25*%
%MOIN*%
G70*
G01*
G75*
%ADD63C,0.03600*%
%ADD64C,0.07887*%
%ADD65R,0.07887X0.07887*%
%ADD66C,0.06706*%
%ADD67R,0.06706X0.06706*%
%ADD68C,0.22453*%
%ADD69C,0.04000*%
D63*
X542580Y431320D02*
D03*
X548090D02*
D03*
X553600D02*
D03*
X542580Y425810D02*
D03*
X548090D02*
D03*
X553600D02*
D03*
Y420300D02*
D03*
X548090D02*
D03*
X542580D02*
D03*
X416995Y456583D02*
D03*
X424995Y448583D02*
D03*
Y444583D02*
D03*
X408995Y468583D02*
D03*
X420995Y464583D02*
D03*
X408995D02*
D03*
X416995D02*
D03*
X420995Y460583D02*
D03*
X408995Y444583D02*
D03*
Y456583D02*
D03*
X416995Y468583D02*
D03*
X412995Y444583D02*
D03*
X424995Y468583D02*
D03*
X416995Y460583D02*
D03*
Y448583D02*
D03*
X420995Y444583D02*
D03*
X416995D02*
D03*
X420995Y456583D02*
D03*
Y452583D02*
D03*
X416995D02*
D03*
X408995D02*
D03*
Y448583D02*
D03*
X420995D02*
D03*
X412995Y464583D02*
D03*
Y448583D02*
D03*
X408995Y460583D02*
D03*
X420995Y468583D02*
D03*
X424995Y452583D02*
D03*
Y456583D02*
D03*
Y460583D02*
D03*
X412995Y468583D02*
D03*
Y452583D02*
D03*
Y456583D02*
D03*
Y460583D02*
D03*
X424995Y464583D02*
D03*
D64*
X409736Y331996D02*
D03*
X394736D02*
D03*
X379736D02*
D03*
X486736Y332496D02*
D03*
X471736D02*
D03*
X456736D02*
D03*
D65*
X364736Y331996D02*
D03*
X441736Y332496D02*
D03*
D66*
X660000Y387000D02*
D03*
Y377000D02*
D03*
Y367000D02*
D03*
X660500Y409000D02*
D03*
Y419000D02*
D03*
Y429000D02*
D03*
D67*
X660000Y357000D02*
D03*
X660500Y439000D02*
D03*
D68*
X333000Y469000D02*
D03*
Y317500D02*
D03*
X660000D02*
D03*
Y469000D02*
D03*
D69*
X585000Y322000D02*
D03*
X618000Y335000D02*
D03*
X628000Y376000D02*
D03*
X630000Y389000D02*
D03*
X572000Y338000D02*
D03*
X495000Y411000D02*
D03*
M02*
