G04 Layer_Color=8388736*
%FSLAX25Y25*%
%MOIN*%
G70*
G01*
G75*
%ADD10R,0.03500X0.03500*%
%ADD11R,0.05900X0.03500*%
%ADD12R,0.03500X0.05900*%
%ADD17R,0.07900X0.05900*%
%ADD18R,0.03200X0.06000*%
%ADD23R,0.07000X0.13800*%
%ADD24R,0.13800X0.40200*%
%ADD27R,0.03937X0.09843*%
%ADD48R,0.05524X0.06312*%
%ADD49R,0.05131X0.04737*%
%ADD50R,0.06312X0.05524*%
%ADD51R,0.06509X0.02965*%
%ADD52R,0.17335X0.07099*%
%ADD53R,0.04934X0.13398*%
%ADD54R,0.41942X0.33477*%
%ADD55R,0.09855X0.09855*%
%ADD56R,0.11430X0.05918*%
%ADD57O,0.09461X0.03162*%
%ADD58R,0.07099X0.17335*%
%ADD59R,0.05918X0.06706*%
%ADD60R,0.13792X0.10249*%
%ADD61R,0.04737X0.10249*%
%ADD62R,0.13792X0.10249*%
%ADD63C,0.03600*%
%ADD64C,0.07887*%
%ADD65R,0.07887X0.07887*%
%ADD66C,0.06706*%
%ADD67R,0.06706X0.06706*%
%ADD68C,0.22453*%
%ADD69C,0.04000*%
D10*
X548090Y425810D02*
D03*
Y431320D02*
D03*
X553600D02*
D03*
Y425810D02*
D03*
Y420300D02*
D03*
X548090D02*
D03*
X542580D02*
D03*
Y425810D02*
D03*
Y431320D02*
D03*
D11*
X588450Y456210D02*
D03*
Y451210D02*
D03*
Y446210D02*
D03*
Y441210D02*
D03*
Y436210D02*
D03*
Y431210D02*
D03*
Y426210D02*
D03*
Y421210D02*
D03*
Y416210D02*
D03*
Y411210D02*
D03*
Y406210D02*
D03*
Y401210D02*
D03*
Y396210D02*
D03*
Y391210D02*
D03*
X519550D02*
D03*
Y396210D02*
D03*
Y401210D02*
D03*
Y406210D02*
D03*
Y411210D02*
D03*
Y416210D02*
D03*
Y421210D02*
D03*
Y426210D02*
D03*
Y431210D02*
D03*
Y436210D02*
D03*
Y441210D02*
D03*
Y446210D02*
D03*
Y451210D02*
D03*
Y456210D02*
D03*
D12*
X576500Y386285D02*
D03*
X571500D02*
D03*
X566500D02*
D03*
X561500D02*
D03*
X556500D02*
D03*
X551500D02*
D03*
X546500D02*
D03*
X541500D02*
D03*
X536500D02*
D03*
X531500D02*
D03*
D17*
X557858Y366000D02*
D03*
X590142D02*
D03*
X543142D02*
D03*
X510858D02*
D03*
D18*
X445495Y410200D02*
D03*
Y423800D02*
D03*
D23*
X326205Y394000D02*
D03*
X346795D02*
D03*
D24*
X436495Y381000D02*
D03*
X410495D02*
D03*
D27*
X512094Y315000D02*
D03*
X523906D02*
D03*
X512094Y335000D02*
D03*
X523906D02*
D03*
D48*
X613543Y372000D02*
D03*
X606457D02*
D03*
X471039Y364000D02*
D03*
X463952D02*
D03*
X606457Y431000D02*
D03*
X613543D02*
D03*
X606457Y446000D02*
D03*
X613543D02*
D03*
X613543Y354000D02*
D03*
X606457D02*
D03*
X606457Y381000D02*
D03*
X613543D02*
D03*
X508543Y405000D02*
D03*
X501457D02*
D03*
D49*
X606653Y363000D02*
D03*
X613346D02*
D03*
X486842Y364000D02*
D03*
X480149D02*
D03*
D50*
X571000Y316543D02*
D03*
Y309457D02*
D03*
X599000Y316543D02*
D03*
Y309457D02*
D03*
X585000Y316543D02*
D03*
Y309457D02*
D03*
X613000Y316543D02*
D03*
Y309457D02*
D03*
D51*
X561626Y325000D02*
D03*
X552374D02*
D03*
X561626Y315000D02*
D03*
X552374D02*
D03*
X561626Y335000D02*
D03*
X552374D02*
D03*
D52*
X456008Y389000D02*
D03*
X481992D02*
D03*
D53*
X403609Y419378D02*
D03*
X410302D02*
D03*
X416995D02*
D03*
X423688D02*
D03*
X430381D02*
D03*
D54*
X416995Y456583D02*
D03*
D55*
X346354Y418378D02*
D03*
X328637D02*
D03*
X345358Y370500D02*
D03*
X327642D02*
D03*
D56*
X630000Y321071D02*
D03*
Y309653D02*
D03*
X490000Y417791D02*
D03*
Y429209D02*
D03*
D57*
X607949Y326750D02*
D03*
Y331750D02*
D03*
Y336750D02*
D03*
Y341750D02*
D03*
X589051Y326750D02*
D03*
Y331750D02*
D03*
Y336750D02*
D03*
Y341750D02*
D03*
D58*
X375495Y370433D02*
D03*
Y399567D02*
D03*
D59*
X613346Y390000D02*
D03*
X606653D02*
D03*
X501653Y397000D02*
D03*
X508347D02*
D03*
X476653Y476500D02*
D03*
X483347D02*
D03*
X476653Y466500D02*
D03*
X483347D02*
D03*
X476653Y456500D02*
D03*
X483347D02*
D03*
D60*
X381495Y435319D02*
D03*
Y462681D02*
D03*
D61*
X458440Y419583D02*
D03*
X467495D02*
D03*
X476550D02*
D03*
D62*
X467495Y442417D02*
D03*
D63*
X542580Y431320D02*
D03*
X548090D02*
D03*
X553600D02*
D03*
X542580Y425810D02*
D03*
X548090D02*
D03*
X553600D02*
D03*
Y420300D02*
D03*
X548090D02*
D03*
X542580D02*
D03*
X416995Y456583D02*
D03*
X424995Y448583D02*
D03*
Y444583D02*
D03*
X408995Y468583D02*
D03*
X420995Y464583D02*
D03*
X408995D02*
D03*
X416995D02*
D03*
X420995Y460583D02*
D03*
X408995Y444583D02*
D03*
Y456583D02*
D03*
X416995Y468583D02*
D03*
X412995Y444583D02*
D03*
X424995Y468583D02*
D03*
X416995Y460583D02*
D03*
Y448583D02*
D03*
X420995Y444583D02*
D03*
X416995D02*
D03*
X420995Y456583D02*
D03*
Y452583D02*
D03*
X416995D02*
D03*
X408995D02*
D03*
Y448583D02*
D03*
X420995D02*
D03*
X412995Y464583D02*
D03*
Y448583D02*
D03*
X408995Y460583D02*
D03*
X420995Y468583D02*
D03*
X424995Y452583D02*
D03*
Y456583D02*
D03*
Y460583D02*
D03*
X412995Y468583D02*
D03*
Y452583D02*
D03*
Y456583D02*
D03*
Y460583D02*
D03*
X424995Y464583D02*
D03*
D64*
X409736Y331996D02*
D03*
X394736D02*
D03*
X379736D02*
D03*
X486736Y332496D02*
D03*
X471736D02*
D03*
X456736D02*
D03*
D65*
X364736Y331996D02*
D03*
X441736Y332496D02*
D03*
D66*
X660000Y387000D02*
D03*
Y377000D02*
D03*
Y367000D02*
D03*
X660500Y409000D02*
D03*
Y419000D02*
D03*
Y429000D02*
D03*
D67*
X660000Y357000D02*
D03*
X660500Y439000D02*
D03*
D68*
X333000Y469000D02*
D03*
Y317500D02*
D03*
X660000D02*
D03*
Y469000D02*
D03*
D69*
X585000Y322000D02*
D03*
X618000Y335000D02*
D03*
X628000Y376000D02*
D03*
X630000Y389000D02*
D03*
X572000Y338000D02*
D03*
X495000Y411000D02*
D03*
M02*
