G04 Layer_Color=16711935*
%FSLAX25Y25*%
%MOIN*%
G70*
G01*
G75*
%ADD46C,0.00500*%
%ADD70C,0.00394*%
%ADD71C,0.00000*%
%ADD72C,0.00100*%
D46*
X354500Y300500D02*
X419972D01*
Y336720D01*
X354500D02*
X419972D01*
X354500Y300500D02*
Y336720D01*
X431500Y301000D02*
X496972D01*
Y337221D01*
X431500D02*
X496972D01*
X431500Y301000D02*
Y337221D01*
D70*
X604799Y327951D02*
G03*
X604799Y327951I-1969J0D01*
G01*
X614232Y369244D02*
Y374756D01*
X605768Y369244D02*
Y374756D01*
Y369244D02*
X614232D01*
X605768Y374756D02*
X614232D01*
X568244Y317232D02*
X573756D01*
X568244Y308768D02*
X573756D01*
Y317232D01*
X568244Y308768D02*
Y317232D01*
X396523Y429811D02*
X437468D01*
X396523Y466819D02*
X437468D01*
X396523Y429811D02*
Y466819D01*
X437468Y429811D02*
Y466819D01*
X471728Y361244D02*
Y366756D01*
X463263Y361244D02*
Y366756D01*
Y361244D02*
X471728D01*
X463263Y366756D02*
X471728D01*
X605768Y428244D02*
Y433756D01*
X614232Y428244D02*
Y433756D01*
X605768D02*
X614232D01*
X605768Y428244D02*
X614232D01*
X605768Y443244D02*
Y448756D01*
X614232Y443244D02*
Y448756D01*
X605768D02*
X614232D01*
X605768Y443244D02*
X614232D01*
X635315Y308669D02*
Y322055D01*
X624685Y308669D02*
Y322055D01*
X635315D01*
X624685Y308669D02*
X635315D01*
X596244Y317232D02*
X601756D01*
X596244Y308768D02*
X601756D01*
Y317232D01*
X596244Y308768D02*
Y317232D01*
X582244D02*
X587756D01*
X582244Y308768D02*
X587756D01*
Y317232D01*
X582244Y308768D02*
Y317232D01*
X610244D02*
X615756D01*
X610244Y308768D02*
X615756D01*
Y317232D01*
X610244Y308768D02*
Y317232D01*
X606374Y324408D02*
Y344092D01*
X590626Y324408D02*
Y344092D01*
Y324408D02*
X606374D01*
X590626Y344092D02*
X606374D01*
X614232Y351244D02*
Y356756D01*
X605768Y351244D02*
Y356756D01*
Y351244D02*
X614232D01*
X605768Y356756D02*
X614232D01*
X605669Y387146D02*
X614331D01*
X605669Y392854D02*
X614331D01*
Y387146D02*
Y392854D01*
X605669Y387146D02*
Y392854D01*
X605768Y378244D02*
Y383756D01*
X614232Y378244D02*
Y383756D01*
X605768D02*
X614232D01*
X605768Y378244D02*
X614232D01*
X500669Y399854D02*
X509331D01*
X500669Y394146D02*
X509331D01*
X500669D02*
Y399854D01*
X509331Y394146D02*
Y399854D01*
X509232Y402244D02*
Y407756D01*
X500768Y402244D02*
Y407756D01*
Y402244D02*
X509232D01*
X500768Y407756D02*
X509232D01*
X475669Y479354D02*
X484331D01*
X475669Y473646D02*
X484331D01*
X475669D02*
Y479354D01*
X484331Y473646D02*
Y479354D01*
X475669Y469354D02*
X484331D01*
X475669Y463646D02*
X484331D01*
X475669D02*
Y469354D01*
X484331Y463646D02*
Y469354D01*
X475669Y459354D02*
X484331D01*
X475669Y453646D02*
X484331D01*
X475669D02*
Y459354D01*
X484331Y453646D02*
Y459354D01*
X454306Y423716D02*
X480684D01*
X454306Y438283D02*
X480684D01*
X454306Y423716D02*
Y438283D01*
X480684Y423716D02*
Y438283D01*
X484685Y416807D02*
Y430193D01*
X495315Y416807D02*
Y430193D01*
X484685Y416807D02*
X495315D01*
X484685Y430193D02*
X495315D01*
D71*
X330005Y394000D02*
G03*
X330005Y394000I-300J0D01*
G01*
X335300Y400700D02*
G03*
X337700Y400700I1200J0D01*
G01*
X519219Y309882D02*
G03*
X516819Y309882I-1200J0D01*
G01*
X525095Y315000D02*
G03*
X525095Y315000I-300J0D01*
G01*
X519219Y329882D02*
G03*
X516819Y329882I-1200J0D01*
G01*
X525095Y335000D02*
G03*
X525095Y335000I-300J0D01*
G01*
D72*
X518550Y385300D02*
Y485700D01*
X589450D01*
Y385300D02*
Y485700D01*
X518550Y385300D02*
X589450D01*
X561800Y358700D02*
X586200D01*
Y373300D01*
X561800D02*
X586200D01*
X561800Y358700D02*
Y373300D01*
X328100Y387300D02*
X344900D01*
Y400700D01*
X328100D02*
X344900D01*
X328100Y387300D02*
Y400700D01*
X403595Y360700D02*
Y401300D01*
X443395D01*
Y360700D02*
Y401300D01*
X403595Y360700D02*
X443395D01*
X526400Y309882D02*
Y320118D01*
X509600Y309882D02*
X526400D01*
X509600D02*
Y320118D01*
X526400D01*
Y329882D02*
Y340118D01*
X509600Y329882D02*
X526400D01*
X509600D02*
Y340118D01*
X526400D01*
X514800Y373300D02*
X539200D01*
X514800Y358700D02*
Y373300D01*
Y358700D02*
X539200D01*
Y373300D01*
M02*
