G04 Layer_Color=65535*
%FSLAX25Y25*%
%MOIN*%
G70*
G01*
G75*
%ADD33C,0.01000*%
%ADD42C,0.02000*%
%ADD43C,0.00984*%
%ADD44C,0.00600*%
%ADD45C,0.00787*%
%ADD46C,0.00500*%
%ADD47C,0.00700*%
D33*
X456894Y372661D02*
X485339D01*
X456894Y405339D02*
X485339D01*
X452661Y376894D02*
X456894Y372661D01*
X452661Y401106D02*
X456894Y405339D01*
X485339Y393331D02*
Y405339D01*
Y372661D02*
Y384669D01*
X452661Y393331D02*
Y401106D01*
Y376894D02*
Y384669D01*
X360928Y405276D02*
X371165D01*
X379826D02*
X390062D01*
X355220Y364724D02*
X371165D01*
X379826D02*
X395771D01*
X390062Y405276D02*
X395771Y399567D01*
X355220D02*
X360928Y405276D01*
X395771Y364724D02*
Y399567D01*
X355220Y364724D02*
Y399567D01*
X674000Y352000D02*
Y392000D01*
X636000D02*
X674000D01*
X636000Y352000D02*
Y392000D01*
Y352000D02*
X674000D01*
X636000Y444000D02*
X665500D01*
X636000Y404000D02*
Y444000D01*
Y404000D02*
X665500D01*
Y444000D01*
X354500Y353500D02*
X420000D01*
Y300500D02*
Y353500D01*
X354500Y300500D02*
X420000D01*
X354500D02*
Y353500D01*
X431500Y301000D02*
Y354000D01*
Y301000D02*
X497000D01*
Y354000D01*
X431500D02*
X497000D01*
X514500Y349700D02*
X539500D01*
X514500D02*
Y358200D01*
X539500Y349700D02*
Y358200D01*
X586500Y349700D02*
Y358200D01*
X561500D02*
X586500D01*
X561500Y349700D02*
Y358200D01*
Y349700D02*
X586500D01*
X514500Y358200D02*
X539500D01*
D42*
X559358Y373500D02*
G03*
X559358Y373500I-1500J0D01*
G01*
X544642Y358500D02*
G03*
X544642Y358500I-1500J0D01*
G01*
D43*
X399869Y419378D02*
G03*
X399869Y419378I-492J0D01*
G01*
X608441Y323404D02*
G03*
X608441Y323404I-492J0D01*
G01*
X454798Y419583D02*
G03*
X454798Y419583I-492J0D01*
G01*
D44*
X319305Y394000D02*
G03*
X319305Y394000I-500J0D01*
G01*
X528342Y315000D02*
G03*
X528342Y315000I-500J0D01*
G01*
Y335000D02*
G03*
X528342Y335000I-500J0D01*
G01*
X589950Y459270D02*
Y486200D01*
X579560Y384800D02*
X589950D01*
X518050D02*
Y388150D01*
Y486200D02*
X589950D01*
Y384800D02*
Y388150D01*
X518050Y384800D02*
X528440D01*
X518050Y459270D02*
Y486200D01*
X586700Y370260D02*
Y373800D01*
X561300Y358200D02*
X586700D01*
Y361740D01*
X561300Y373800D02*
X586700D01*
X561300Y370260D02*
Y373800D01*
Y358200D02*
Y361740D01*
X441445Y423100D02*
X442585D01*
X449545Y410900D02*
Y423100D01*
X448405D02*
X449545D01*
X441445Y410900D02*
Y423100D01*
Y410900D02*
X442585D01*
X448405D02*
X449545D01*
X441445Y415000D02*
X449545D01*
X330980Y386800D02*
X342020D01*
X330980Y401200D02*
X342020D01*
X418503Y401800D02*
X428488D01*
X418503Y360200D02*
X428488D01*
X512472Y309095D02*
X523512D01*
X512472Y320905D02*
X523512D01*
X512472Y329095D02*
X523512D01*
X512472Y340905D02*
X523512D01*
X514300Y358200D02*
Y361740D01*
Y373800D02*
X539700D01*
X514300Y370260D02*
Y373800D01*
Y358200D02*
X539700D01*
Y361740D01*
Y370260D02*
Y373800D01*
D45*
X610000Y369638D02*
Y374362D01*
X603307Y361425D02*
Y364575D01*
X568638Y313000D02*
X573362D01*
X553260Y327165D02*
X554835D01*
Y327953D01*
Y322047D02*
Y322835D01*
X553260D02*
X554835D01*
X553260Y322047D02*
X560740D01*
X553260Y327953D02*
X560740D01*
Y322047D02*
Y322835D01*
X553260Y322047D02*
Y322835D01*
X560740Y327165D02*
Y327953D01*
X553260Y327165D02*
Y327953D01*
X548000Y323000D02*
Y327000D01*
X553260Y317165D02*
X554835D01*
Y317953D01*
Y312047D02*
Y312835D01*
X553260D02*
X554835D01*
X553260Y312047D02*
X560740D01*
X553260Y317953D02*
X560740D01*
Y312047D02*
Y312835D01*
X553260Y312047D02*
Y312835D01*
X560740Y317165D02*
Y317953D01*
X553260Y317165D02*
Y317953D01*
X548000Y313000D02*
Y317000D01*
X490188Y362425D02*
Y365575D01*
X396523Y429811D02*
Y438669D01*
Y429811D02*
X437468D01*
Y438669D01*
X352456Y412276D02*
Y424480D01*
X321354Y422709D02*
X323125Y424480D01*
X321354Y414047D02*
X323125Y412276D01*
X321354Y414047D02*
Y422709D01*
X342220Y424480D02*
X352456D01*
X342220Y412276D02*
X352456D01*
X323125D02*
X332771D01*
X323125Y424480D02*
X332771D01*
X467495Y361638D02*
Y366362D01*
X610000Y428638D02*
Y433362D01*
Y443638D02*
Y448362D01*
X553260Y337165D02*
X554835D01*
Y337953D01*
Y332047D02*
Y332835D01*
X553260D02*
X554835D01*
X553260Y332047D02*
X560740D01*
X553260Y337953D02*
X560740D01*
Y332047D02*
Y332835D01*
X553260Y332047D02*
Y332835D01*
X560740Y337165D02*
Y337953D01*
X553260Y337165D02*
Y337953D01*
X548000Y333000D02*
Y337000D01*
X634921Y313787D02*
Y316937D01*
X625079Y313787D02*
Y316937D01*
X596638Y313000D02*
X601362D01*
X582638D02*
X587362D01*
X610638D02*
X615362D01*
X602043Y324408D02*
Y344092D01*
X594957Y324408D02*
Y344092D01*
Y324408D02*
X602043D01*
X594957Y344092D02*
X602043D01*
X610000Y351638D02*
Y356362D01*
X351461Y364398D02*
Y376602D01*
X320358Y374831D02*
X322130Y376602D01*
X320358Y366169D02*
X322130Y364398D01*
X320358Y366169D02*
Y374831D01*
X341224Y376602D02*
X351461D01*
X341224Y364398D02*
X351461D01*
X322130D02*
X331776D01*
X322130Y376602D02*
X331776D01*
X610000Y378638D02*
Y383362D01*
X505000Y402638D02*
Y407362D01*
X655000Y352000D02*
X665000D01*
X655000D02*
Y392000D01*
X665000Y352000D02*
Y392000D01*
X655000D02*
X665000D01*
X655500Y444000D02*
X665500D01*
Y404000D02*
Y444000D01*
X655500Y404000D02*
Y444000D01*
Y404000D02*
X665500D01*
X373424Y429413D02*
Y439650D01*
Y429413D02*
X375196Y427642D01*
X387794D02*
X389586Y429413D01*
X389566Y458350D02*
Y468980D01*
X373424Y458350D02*
Y468980D01*
X389566D01*
X375196Y427642D02*
X387794D01*
X389566Y429413D02*
Y439650D01*
X454306Y425488D02*
X480684D01*
X454306Y436512D02*
X480684D01*
X454306Y425488D02*
Y436512D01*
X480684Y425488D02*
Y436512D01*
X485079Y421925D02*
Y425075D01*
X494921Y421925D02*
Y425075D01*
D46*
X354500Y300500D02*
X419972D01*
X414539Y336720D02*
X419972D01*
X354500D02*
X359933D01*
X419972Y300500D02*
Y336720D01*
X354500Y300500D02*
Y336720D01*
X431500Y301000D02*
X496972D01*
X491539Y337221D02*
X496972D01*
X431500D02*
X436933D01*
X496972Y301000D02*
Y337221D01*
X431500Y301000D02*
Y337221D01*
X512000Y458165D02*
X515332Y454833D01*
X512000D02*
X515332Y458165D01*
X512000Y456499D02*
X515332D01*
X513666Y454833D02*
Y458165D01*
D47*
X534500Y336949D02*
X537299D01*
Y336249D01*
X534500Y333450D01*
Y332750D01*
X537299D01*
X538699D02*
Y335549D01*
X540098Y336949D01*
X541498Y335549D01*
Y332750D01*
Y334849D01*
X538699D01*
X544997Y332750D02*
Y336949D01*
X542897Y334849D01*
X545696D01*
X534500Y326949D02*
X537299D01*
Y326249D01*
X534500Y323450D01*
Y322750D01*
X537299D01*
X538699D02*
Y325549D01*
X540098Y326949D01*
X541498Y325549D01*
Y322750D01*
Y324849D01*
X538699D01*
X542897Y326249D02*
X543597Y326949D01*
X544997D01*
X545696Y326249D01*
Y325549D01*
X544997Y324849D01*
X544297D01*
X544997D01*
X545696Y324149D01*
Y323450D01*
X544997Y322750D01*
X543597D01*
X542897Y323450D01*
X534500Y316949D02*
X537299D01*
Y316249D01*
X534500Y313450D01*
Y312750D01*
X537299D01*
X538699D02*
Y315549D01*
X540098Y316949D01*
X541498Y315549D01*
Y312750D01*
Y314849D01*
X538699D01*
X545696Y312750D02*
X542897D01*
X545696Y315549D01*
Y316249D01*
X544997Y316949D01*
X543597D01*
X542897Y316249D01*
X323500Y431699D02*
X326299D01*
Y430999D01*
X323500Y428200D01*
Y427500D01*
X326299D01*
X327699D02*
Y430299D01*
X329098Y431699D01*
X330498Y430299D01*
Y427500D01*
Y429599D01*
X327699D01*
X331897Y427500D02*
X333297D01*
X332597D01*
Y431699D01*
X331897Y430999D01*
X595000Y351199D02*
Y347700D01*
X595700Y347000D01*
X597099D01*
X597799Y347700D01*
Y351199D01*
X599199Y350499D02*
X599898Y351199D01*
X601298D01*
X601998Y350499D01*
Y349799D01*
X601298Y349099D01*
X601998Y348399D01*
Y347700D01*
X601298Y347000D01*
X599898D01*
X599199Y347700D01*
Y348399D01*
X599898Y349099D01*
X599199Y349799D01*
Y350499D01*
X599898Y349099D02*
X601298D01*
X451000Y444699D02*
Y441200D01*
X451700Y440500D01*
X453099D01*
X453799Y441200D01*
Y444699D01*
X457298Y440500D02*
Y444699D01*
X455199Y442599D01*
X457998D01*
X441500Y470199D02*
Y466700D01*
X442200Y466000D01*
X443599D01*
X444299Y466700D01*
Y470199D01*
X445699Y469499D02*
X446398Y470199D01*
X447798D01*
X448498Y469499D01*
Y468799D01*
X447798Y468099D01*
X447098D01*
X447798D01*
X448498Y467400D01*
Y466700D01*
X447798Y466000D01*
X446398D01*
X445699Y466700D01*
X596000Y465199D02*
Y461700D01*
X596700Y461000D01*
X598099D01*
X598799Y461700D01*
Y465199D01*
X600199Y461000D02*
X601598D01*
X600898D01*
Y465199D01*
X600199Y464499D01*
X564799Y379499D02*
X564099Y380199D01*
X562700D01*
X562000Y379499D01*
Y378799D01*
X562700Y378099D01*
X564099D01*
X564799Y377399D01*
Y376700D01*
X564099Y376000D01*
X562700D01*
X562000Y376700D01*
X568998Y376000D02*
X566199D01*
X568998Y378799D01*
Y379499D01*
X568298Y380199D01*
X566898D01*
X566199Y379499D01*
X618000Y429000D02*
Y433199D01*
X620099D01*
X620799Y432499D01*
Y431099D01*
X620099Y430400D01*
X618000D01*
X619399D02*
X620799Y429000D01*
X624998D02*
X622199D01*
X624998Y431799D01*
Y432499D01*
X624298Y433199D01*
X622898D01*
X622199Y432499D01*
X626397D02*
X627097Y433199D01*
X628497D01*
X629196Y432499D01*
Y431799D01*
X628497Y431099D01*
X627797D01*
X628497D01*
X629196Y430400D01*
Y429700D01*
X628497Y429000D01*
X627097D01*
X626397Y429700D01*
X618000Y444000D02*
Y448199D01*
X620099D01*
X620799Y447499D01*
Y446099D01*
X620099Y445400D01*
X618000D01*
X619399D02*
X620799Y444000D01*
X624998D02*
X622199D01*
X624998Y446799D01*
Y447499D01*
X624298Y448199D01*
X622898D01*
X622199Y447499D01*
X629196Y444000D02*
X626397D01*
X629196Y446799D01*
Y447499D01*
X628497Y448199D01*
X627097D01*
X626397Y447499D01*
X618000Y352000D02*
Y356199D01*
X620099D01*
X620799Y355499D01*
Y354099D01*
X620099Y353399D01*
X618000D01*
X619399D02*
X620799Y352000D01*
X624998D02*
X622199D01*
X624998Y354799D01*
Y355499D01*
X624298Y356199D01*
X622898D01*
X622199Y355499D01*
X626397Y352000D02*
X627797D01*
X627097D01*
Y356199D01*
X626397Y355499D01*
X594000Y307000D02*
X589801D01*
Y309099D01*
X590501Y309799D01*
X591901D01*
X592600Y309099D01*
Y307000D01*
Y308400D02*
X594000Y309799D01*
Y313998D02*
Y311199D01*
X591201Y313998D01*
X590501D01*
X589801Y313298D01*
Y311898D01*
X590501Y311199D01*
Y315397D02*
X589801Y316097D01*
Y317497D01*
X590501Y318196D01*
X593300D01*
X594000Y317497D01*
Y316097D01*
X593300Y315397D01*
X590501D01*
X608000Y307000D02*
X603801D01*
Y309099D01*
X604501Y309799D01*
X605901D01*
X606601Y309099D01*
Y307000D01*
Y308400D02*
X608000Y309799D01*
Y311199D02*
Y312598D01*
Y311898D01*
X603801D01*
X604501Y311199D01*
X607300Y314698D02*
X608000Y315397D01*
Y316797D01*
X607300Y317497D01*
X604501D01*
X603801Y316797D01*
Y315397D01*
X604501Y314698D01*
X605201D01*
X605901Y315397D01*
Y317497D01*
X622000Y307000D02*
X617801D01*
Y309099D01*
X618501Y309799D01*
X619901D01*
X620601Y309099D01*
Y307000D01*
Y308400D02*
X622000Y309799D01*
Y311199D02*
Y312598D01*
Y311898D01*
X617801D01*
X618501Y311199D01*
Y314698D02*
X617801Y315397D01*
Y316797D01*
X618501Y317497D01*
X619201D01*
X619901Y316797D01*
X620601Y317497D01*
X621300D01*
X622000Y316797D01*
Y315397D01*
X621300Y314698D01*
X620601D01*
X619901Y315397D01*
X619201Y314698D01*
X618501D01*
X619901Y315397D02*
Y316797D01*
X580000Y307000D02*
X575801D01*
Y309099D01*
X576501Y309799D01*
X577901D01*
X578601Y309099D01*
Y307000D01*
Y308400D02*
X580000Y309799D01*
Y311199D02*
Y312598D01*
Y311898D01*
X575801D01*
X576501Y311199D01*
X575801Y314698D02*
Y317497D01*
X576501D01*
X579300Y314698D01*
X580000D01*
X449000Y362000D02*
Y366199D01*
X451099D01*
X451799Y365499D01*
Y364099D01*
X451099Y363400D01*
X449000D01*
X450399D02*
X451799Y362000D01*
X453199D02*
X454598D01*
X453898D01*
Y366199D01*
X453199Y365499D01*
X456698D02*
X457397Y366199D01*
X458797D01*
X459497Y365499D01*
Y362700D01*
X458797Y362000D01*
X457397D01*
X456698Y362700D01*
Y365499D01*
X618000Y370000D02*
Y374199D01*
X620099D01*
X620799Y373499D01*
Y372099D01*
X620099Y371399D01*
X618000D01*
X619399D02*
X620799Y370000D01*
X622199Y373499D02*
X622898Y374199D01*
X624298D01*
X624998Y373499D01*
Y372799D01*
X624298Y372099D01*
X624998Y371399D01*
Y370700D01*
X624298Y370000D01*
X622898D01*
X622199Y370700D01*
Y371399D01*
X622898Y372099D01*
X622199Y372799D01*
Y373499D01*
X622898Y372099D02*
X624298D01*
X618347Y379000D02*
Y383199D01*
X620446D01*
X621146Y382499D01*
Y381099D01*
X620446Y380399D01*
X618347D01*
X619746D02*
X621146Y379000D01*
X625344D02*
X622545D01*
X625344Y381799D01*
Y382499D01*
X624644Y383199D01*
X623245D01*
X622545Y382499D01*
X491500Y403000D02*
Y407199D01*
X493599D01*
X494299Y406499D01*
Y405099D01*
X493599Y404399D01*
X491500D01*
X492900D02*
X494299Y403000D01*
X495699D02*
X497098D01*
X496398D01*
Y407199D01*
X495699Y406499D01*
X667301Y359099D02*
Y357700D01*
X668001Y357000D01*
X670800D01*
X671500Y357700D01*
Y359099D01*
X670800Y359799D01*
X668001D01*
X667301Y359099D01*
Y361199D02*
X671500D01*
Y363998D01*
X667301Y368196D02*
Y365397D01*
X671500D01*
Y368196D01*
X669401Y365397D02*
Y366797D01*
X667301Y369596D02*
X671500D01*
Y371695D01*
X670800Y372395D01*
X668001D01*
X667301Y371695D01*
Y369596D01*
Y377993D02*
Y379393D01*
Y378693D01*
X671500D01*
Y377993D01*
Y379393D01*
Y384291D02*
Y381492D01*
X668701Y384291D01*
X668001D01*
X667301Y383591D01*
Y382192D01*
X668001Y381492D01*
Y388490D02*
X667301Y387790D01*
Y386390D01*
X668001Y385691D01*
X670800D01*
X671500Y386390D01*
Y387790D01*
X670800Y388490D01*
X656000Y394000D02*
Y398199D01*
X658099D01*
X658799Y397499D01*
Y396099D01*
X658099Y395399D01*
X656000D01*
X660199Y397499D02*
X660898Y398199D01*
X662298D01*
X662998Y397499D01*
Y396799D01*
X662298Y396099D01*
X662998Y395399D01*
Y394700D01*
X662298Y394000D01*
X660898D01*
X660199Y394700D01*
Y395399D01*
X660898Y396099D01*
X660199Y396799D01*
Y397499D01*
X660898Y396099D02*
X662298D01*
X658000Y446000D02*
Y450199D01*
X660099D01*
X660799Y449499D01*
Y448099D01*
X660099Y447400D01*
X658000D01*
X662199Y446000D02*
X663598D01*
X662898D01*
Y450199D01*
X662199Y449499D01*
X403000Y409499D02*
Y405300D01*
X405799D01*
X407199D02*
X408598D01*
X407898D01*
Y409499D01*
X407199Y408799D01*
X422801Y331299D02*
Y329900D01*
Y330599D01*
X426300D01*
X427000Y329900D01*
Y329200D01*
X426300Y328500D01*
X422801Y332699D02*
Y335498D01*
X423501D01*
X426300Y332699D01*
X427000D01*
X498801Y332299D02*
Y330900D01*
Y331599D01*
X502300D01*
X503000Y330900D01*
Y330200D01*
X502300Y329500D01*
X498801Y336498D02*
X499501Y335098D01*
X500901Y333699D01*
X502300D01*
X503000Y334398D01*
Y335798D01*
X502300Y336498D01*
X501601D01*
X500901Y335798D01*
Y333699D01*
X517299Y307699D02*
X514500D01*
Y305599D01*
X515900D01*
X514500D01*
Y303500D01*
X518699Y306999D02*
X519398Y307699D01*
X520798D01*
X521498Y306999D01*
Y306299D01*
X520798Y305599D01*
X520098D01*
X520798D01*
X521498Y304900D01*
Y304200D01*
X520798Y303500D01*
X519398D01*
X518699Y304200D01*
X517299Y327699D02*
X514500D01*
Y325599D01*
X515900D01*
X514500D01*
Y323500D01*
X521498D02*
X518699D01*
X521498Y326299D01*
Y326999D01*
X520798Y327699D01*
X519398D01*
X518699Y326999D01*
X326799Y406699D02*
X324000D01*
Y404599D01*
X325399D01*
X324000D01*
Y402500D01*
X328199D02*
X329598D01*
X328898D01*
Y406699D01*
X328199Y405999D01*
X441495Y433199D02*
Y429000D01*
X443595D01*
X444294Y429700D01*
Y432499D01*
X443595Y433199D01*
X441495D01*
X448493D02*
X447093Y432499D01*
X445694Y431099D01*
Y429700D01*
X446394Y429000D01*
X447793D01*
X448493Y429700D01*
Y430400D01*
X447793Y431099D01*
X445694D01*
X493000Y366199D02*
Y362000D01*
X495099D01*
X495799Y362700D01*
Y365499D01*
X495099Y366199D01*
X493000D01*
X499998D02*
X497199D01*
Y364099D01*
X498598Y364799D01*
X499298D01*
X499998Y364099D01*
Y362700D01*
X499298Y362000D01*
X497898D01*
X497199Y362700D01*
X373500Y475699D02*
Y471500D01*
X375599D01*
X376299Y472200D01*
Y474999D01*
X375599Y475699D01*
X373500D01*
X379798Y471500D02*
Y475699D01*
X377699Y473599D01*
X380498D01*
X324000Y382699D02*
Y378500D01*
X326099D01*
X326799Y379200D01*
Y381999D01*
X326099Y382699D01*
X324000D01*
X328199Y381999D02*
X328898Y382699D01*
X330298D01*
X330998Y381999D01*
Y381299D01*
X330298Y380599D01*
X329598D01*
X330298D01*
X330998Y379900D01*
Y379200D01*
X330298Y378500D01*
X328898D01*
X328199Y379200D01*
X618000Y365199D02*
Y361000D01*
X620099D01*
X620799Y361700D01*
Y364499D01*
X620099Y365199D01*
X618000D01*
X624998Y361000D02*
X622199D01*
X624998Y363799D01*
Y364499D01*
X624298Y365199D01*
X622898D01*
X622199Y364499D01*
X638501Y313799D02*
X637801Y313099D01*
Y311700D01*
X638501Y311000D01*
X641300D01*
X642000Y311700D01*
Y313099D01*
X641300Y313799D01*
Y315199D02*
X642000Y315898D01*
Y317298D01*
X641300Y317998D01*
X638501D01*
X637801Y317298D01*
Y315898D01*
X638501Y315199D01*
X639201D01*
X639901Y315898D01*
Y317998D01*
X488799Y436999D02*
X488099Y437699D01*
X486700D01*
X486000Y436999D01*
Y434200D01*
X486700Y433500D01*
X488099D01*
X488799Y434200D01*
X490199Y436999D02*
X490898Y437699D01*
X492298D01*
X492998Y436999D01*
Y436299D01*
X492298Y435599D01*
X492998Y434900D01*
Y434200D01*
X492298Y433500D01*
X490898D01*
X490199Y434200D01*
Y434900D01*
X490898Y435599D01*
X490199Y436299D01*
Y436999D01*
X490898Y435599D02*
X492298D01*
X493799Y378499D02*
X493099Y379199D01*
X491700D01*
X491000Y378499D01*
Y375700D01*
X491700Y375000D01*
X493099D01*
X493799Y375700D01*
X495199Y379199D02*
X497998D01*
Y378499D01*
X495199Y375700D01*
Y375000D01*
X391299Y359999D02*
X390599Y360699D01*
X389200D01*
X388500Y359999D01*
Y357200D01*
X389200Y356500D01*
X390599D01*
X391299Y357200D01*
X395498Y360699D02*
X394098Y359999D01*
X392699Y358599D01*
Y357200D01*
X393398Y356500D01*
X394798D01*
X395498Y357200D01*
Y357899D01*
X394798Y358599D01*
X392699D01*
X621146Y390999D02*
X620446Y391699D01*
X619046D01*
X618347Y390999D01*
Y388200D01*
X619046Y387500D01*
X620446D01*
X621146Y388200D01*
X625344Y391699D02*
X622545D01*
Y389599D01*
X623945Y390299D01*
X624644D01*
X625344Y389599D01*
Y388200D01*
X624644Y387500D01*
X623245D01*
X622545Y388200D01*
X492799Y457999D02*
X492099Y458699D01*
X490700D01*
X490000Y457999D01*
Y455200D01*
X490700Y454500D01*
X492099D01*
X492799Y455200D01*
X496298Y454500D02*
Y458699D01*
X494199Y456599D01*
X496998D01*
X492799Y467999D02*
X492099Y468699D01*
X490700D01*
X490000Y467999D01*
Y465200D01*
X490700Y464500D01*
X492099D01*
X492799Y465200D01*
X494199Y467999D02*
X494898Y468699D01*
X496298D01*
X496998Y467999D01*
Y467299D01*
X496298Y466599D01*
X495598D01*
X496298D01*
X496998Y465900D01*
Y465200D01*
X496298Y464500D01*
X494898D01*
X494199Y465200D01*
X492799Y477999D02*
X492099Y478699D01*
X490700D01*
X490000Y477999D01*
Y475200D01*
X490700Y474500D01*
X492099D01*
X492799Y475200D01*
X496998Y474500D02*
X494199D01*
X496998Y477299D01*
Y477999D01*
X496298Y478699D01*
X494898D01*
X494199Y477999D01*
X494299Y398999D02*
X493599Y399699D01*
X492200D01*
X491500Y398999D01*
Y396200D01*
X492200Y395500D01*
X493599D01*
X494299Y396200D01*
X495699Y395500D02*
X497098D01*
X496398D01*
Y399699D01*
X495699Y398999D01*
X517799Y379499D02*
X517099Y380199D01*
X515700D01*
X515000Y379499D01*
Y378799D01*
X515700Y378099D01*
X517099D01*
X517799Y377399D01*
Y376700D01*
X517099Y376000D01*
X515700D01*
X515000Y376700D01*
X519199Y376000D02*
X520598D01*
X519898D01*
Y380199D01*
X519199Y379499D01*
X641999Y407000D02*
Y411199D01*
X644098D01*
X644798Y410499D01*
Y409099D01*
X644098Y408399D01*
X641999D01*
X643398D02*
X644798Y407000D01*
X646198Y411199D02*
X648997Y407000D01*
Y411199D02*
X646198Y407000D01*
X650396Y410499D02*
X651096Y411199D01*
X652495D01*
X653195Y410499D01*
Y407700D01*
X652495Y407000D01*
X651096D01*
X650396Y407700D01*
Y410499D01*
X641999Y421199D02*
X644798D01*
X643398D01*
Y417000D01*
X646198Y421199D02*
X648997Y417000D01*
Y421199D02*
X646198Y417000D01*
X650396Y420499D02*
X651096Y421199D01*
X652495D01*
X653195Y420499D01*
Y417700D01*
X652495Y417000D01*
X651096D01*
X650396Y417700D01*
Y420499D01*
X644798Y430499D02*
X644098Y431199D01*
X642699D01*
X641999Y430499D01*
Y427700D01*
X642699Y427000D01*
X644098D01*
X644798Y427700D01*
Y429099D01*
X643398D01*
X646198Y427000D02*
Y431199D01*
X648997Y427000D01*
Y431199D01*
X650396D02*
Y427000D01*
X652495D01*
X653195Y427700D01*
Y430499D01*
X652495Y431199D01*
X650396D01*
X638500Y440499D02*
X639200Y441199D01*
X640599D01*
X641299Y440499D01*
Y439799D01*
X640599Y439099D01*
X639899D01*
X640599D01*
X641299Y438400D01*
Y437700D01*
X640599Y437000D01*
X639200D01*
X638500Y437700D01*
X642699Y437000D02*
Y437700D01*
X643398D01*
Y437000D01*
X642699D01*
X646198Y440499D02*
X646897Y441199D01*
X648297D01*
X648997Y440499D01*
Y439799D01*
X648297Y439099D01*
X647597D01*
X648297D01*
X648997Y438400D01*
Y437700D01*
X648297Y437000D01*
X646897D01*
X646198Y437700D01*
X650396Y441199D02*
Y438400D01*
X651796Y437000D01*
X653195Y438400D01*
Y441199D01*
X525799Y356199D02*
X523000D01*
Y352000D01*
X525799D01*
X523000Y354099D02*
X524400D01*
X527199Y352000D02*
Y356199D01*
X529998Y352000D01*
Y356199D01*
X566000Y355899D02*
Y351700D01*
X568099D01*
X568799Y352400D01*
Y353099D01*
X568099Y353799D01*
X566000D01*
X568099D01*
X568799Y354499D01*
Y355199D01*
X568099Y355899D01*
X566000D01*
X572298D02*
X570898D01*
X570199Y355199D01*
Y352400D01*
X570898Y351700D01*
X572298D01*
X572998Y352400D01*
Y355199D01*
X572298Y355899D01*
X576497D02*
X575097D01*
X574397Y355199D01*
Y352400D01*
X575097Y351700D01*
X576497D01*
X577196Y352400D01*
Y355199D01*
X576497Y355899D01*
X578596D02*
X581395D01*
X579995D01*
Y351700D01*
X411692Y341500D02*
X408892D01*
X407493Y342899D01*
X408892Y344299D01*
X411692D01*
X409592D01*
Y341500D01*
X392493D02*
X396692D01*
Y343599D01*
X395992Y344299D01*
X395292D01*
X394592Y343599D01*
Y341500D01*
Y343599D01*
X393893Y344299D01*
X393193D01*
X392493Y343599D01*
Y341500D01*
X378193Y343299D02*
X377493Y342599D01*
Y341200D01*
X378193Y340500D01*
X380992D01*
X381692Y341200D01*
Y342599D01*
X380992Y343299D01*
X379592D01*
Y341899D01*
X381692Y344699D02*
X377493D01*
X381692Y347498D01*
X377493D01*
Y348897D02*
X381692D01*
Y350997D01*
X380992Y351696D01*
X378193D01*
X377493Y350997D01*
Y348897D01*
X362493Y340500D02*
X365292D01*
X366692Y341899D01*
X365292Y343299D01*
X362493D01*
X363193Y347498D02*
X362493Y346798D01*
Y345398D01*
X363193Y344699D01*
X365992D01*
X366692Y345398D01*
Y346798D01*
X365992Y347498D01*
X363193Y351696D02*
X362493Y350997D01*
Y349597D01*
X363193Y348897D01*
X365992D01*
X366692Y349597D01*
Y350997D01*
X365992Y351696D01*
X439493Y340500D02*
X442292D01*
X443692Y341899D01*
X442292Y343299D01*
X439493D01*
X440193Y347498D02*
X439493Y346798D01*
Y345398D01*
X440193Y344699D01*
X442992D01*
X443692Y345398D01*
Y346798D01*
X442992Y347498D01*
X440193Y351696D02*
X439493Y350997D01*
Y349597D01*
X440193Y348897D01*
X442992D01*
X443692Y349597D01*
Y350997D01*
X442992Y351696D01*
X455193Y343299D02*
X454493Y342599D01*
Y341200D01*
X455193Y340500D01*
X457992D01*
X458692Y341200D01*
Y342599D01*
X457992Y343299D01*
X456592D01*
Y341899D01*
X458692Y344699D02*
X454493D01*
X458692Y347498D01*
X454493D01*
Y348897D02*
X458692D01*
Y350997D01*
X457992Y351696D01*
X455193D01*
X454493Y350997D01*
Y348897D01*
X469493Y341500D02*
X473692D01*
Y343599D01*
X472992Y344299D01*
X472292D01*
X471592Y343599D01*
Y341500D01*
Y343599D01*
X470892Y344299D01*
X470193D01*
X469493Y343599D01*
Y341500D01*
X488692D02*
X485892D01*
X484493Y342899D01*
X485892Y344299D01*
X488692D01*
X486592D01*
Y341500D01*
X638000Y368499D02*
X638700Y369199D01*
X640099D01*
X640799Y368499D01*
Y367799D01*
X640099Y367099D01*
X639399D01*
X640099D01*
X640799Y366400D01*
Y365700D01*
X640099Y365000D01*
X638700D01*
X638000Y365700D01*
X642199Y365000D02*
Y365700D01*
X642898D01*
Y365000D01*
X642199D01*
X645697Y368499D02*
X646397Y369199D01*
X647797D01*
X648497Y368499D01*
Y367799D01*
X647797Y367099D01*
X647097D01*
X647797D01*
X648497Y366400D01*
Y365700D01*
X647797Y365000D01*
X646397D01*
X645697Y365700D01*
X649896Y369199D02*
Y366400D01*
X651296Y365000D01*
X652695Y366400D01*
Y369199D01*
X644298Y358499D02*
X643598Y359199D01*
X642199D01*
X641499Y358499D01*
Y355700D01*
X642199Y355000D01*
X643598D01*
X644298Y355700D01*
Y357099D01*
X642898D01*
X645697Y355000D02*
Y359199D01*
X648497Y355000D01*
Y359199D01*
X649896D02*
Y355000D01*
X651996D01*
X652695Y355700D01*
Y358499D01*
X651996Y359199D01*
X649896D01*
X644298Y378499D02*
X643598Y379199D01*
X642199D01*
X641499Y378499D01*
Y377799D01*
X642199Y377099D01*
X643598D01*
X644298Y376399D01*
Y375700D01*
X643598Y375000D01*
X642199D01*
X641499Y375700D01*
X648497Y378499D02*
X647797Y379199D01*
X646397D01*
X645697Y378499D01*
Y375700D01*
X646397Y375000D01*
X647797D01*
X648497Y375700D01*
X649896Y379199D02*
Y375000D01*
X652695D01*
X644298Y388499D02*
X643598Y389199D01*
X642199D01*
X641499Y388499D01*
Y387799D01*
X642199Y387099D01*
X643598D01*
X644298Y386400D01*
Y385700D01*
X643598Y385000D01*
X642199D01*
X641499Y385700D01*
X645697Y389199D02*
Y385000D01*
X647797D01*
X648497Y385700D01*
Y388499D01*
X647797Y389199D01*
X645697D01*
X649896Y385000D02*
Y387799D01*
X651296Y389199D01*
X652695Y387799D01*
Y385000D01*
Y387099D01*
X649896D01*
M02*
