G04 Layer_Physical_Order=2*
G04 Layer_Color=16711680*
%FSLAX25Y25*%
%MOIN*%
G70*
G01*
G75*
%ADD33C,0.01000*%
%ADD35C,0.02800*%
%ADD36C,0.07087*%
%ADD37R,0.07087X0.07087*%
%ADD38C,0.05906*%
%ADD39R,0.05906X0.05906*%
%ADD40C,0.21654*%
%ADD41C,0.03200*%
G36*
X676675Y300826D02*
X316325D01*
Y485674D01*
X494000D01*
Y460000D01*
X614000D01*
Y485674D01*
X676675D01*
Y300826D01*
D02*
G37*
%LPC*%
G36*
X660000Y480863D02*
X658144Y480717D01*
X656334Y480283D01*
X654614Y479570D01*
X653027Y478598D01*
X651611Y477389D01*
X650402Y475973D01*
X649430Y474386D01*
X648717Y472666D01*
X648283Y470856D01*
X648137Y469000D01*
X648283Y467144D01*
X648717Y465334D01*
X649430Y463614D01*
X650402Y462027D01*
X651611Y460611D01*
X653027Y459402D01*
X654614Y458430D01*
X656334Y457717D01*
X658144Y457283D01*
X660000Y457137D01*
X661856Y457283D01*
X663666Y457717D01*
X665386Y458430D01*
X666973Y459402D01*
X668389Y460611D01*
X669598Y462027D01*
X670570Y463614D01*
X671283Y465334D01*
X671717Y467144D01*
X671863Y469000D01*
X671717Y470856D01*
X671283Y472666D01*
X670570Y474386D01*
X669598Y475973D01*
X668389Y477389D01*
X666973Y478598D01*
X665386Y479570D01*
X663666Y480283D01*
X661856Y480717D01*
X660000Y480863D01*
D02*
G37*
G36*
X333000D02*
X331144Y480717D01*
X329334Y480283D01*
X327614Y479570D01*
X326027Y478598D01*
X324611Y477389D01*
X323402Y475973D01*
X322430Y474386D01*
X321717Y472666D01*
X321283Y470856D01*
X321137Y469000D01*
X321283Y467144D01*
X321717Y465334D01*
X322430Y463614D01*
X323402Y462027D01*
X324611Y460611D01*
X326027Y459402D01*
X327614Y458430D01*
X329334Y457717D01*
X331144Y457283D01*
X333000Y457137D01*
X334856Y457283D01*
X336666Y457717D01*
X338386Y458430D01*
X339973Y459402D01*
X341389Y460611D01*
X342598Y462027D01*
X343570Y463614D01*
X344283Y465334D01*
X344717Y467144D01*
X344863Y469000D01*
X344717Y470856D01*
X344283Y472666D01*
X343570Y474386D01*
X342598Y475973D01*
X341389Y477389D01*
X339973Y478598D01*
X338386Y479570D01*
X336666Y480283D01*
X334856Y480717D01*
X333000Y480863D01*
D02*
G37*
G36*
X661000Y432921D02*
Y429500D01*
X664421D01*
X664351Y430032D01*
X663953Y430993D01*
X663319Y431819D01*
X662493Y432453D01*
X661532Y432851D01*
X661000Y432921D01*
D02*
G37*
G36*
X660000D02*
X659468Y432851D01*
X658507Y432453D01*
X657681Y431819D01*
X657047Y430993D01*
X656649Y430032D01*
X656579Y429500D01*
X660000D01*
Y432921D01*
D02*
G37*
G36*
X664421Y428500D02*
X661000D01*
Y425079D01*
X661532Y425149D01*
X662493Y425547D01*
X663319Y426181D01*
X663953Y427007D01*
X664351Y427968D01*
X664421Y428500D01*
D02*
G37*
G36*
X660000D02*
X656579D01*
X656649Y427968D01*
X657047Y427007D01*
X657681Y426181D01*
X658507Y425547D01*
X659468Y425149D01*
X660000Y425079D01*
Y428500D01*
D02*
G37*
G36*
X660500Y422987D02*
X659468Y422851D01*
X658507Y422453D01*
X657681Y421819D01*
X657047Y420993D01*
X656649Y420032D01*
X656513Y419000D01*
X656649Y417968D01*
X657047Y417007D01*
X657681Y416181D01*
X658507Y415547D01*
X659468Y415149D01*
X660500Y415013D01*
X661532Y415149D01*
X662493Y415547D01*
X663319Y416181D01*
X663953Y417007D01*
X664351Y417968D01*
X664487Y419000D01*
X664351Y420032D01*
X663953Y420993D01*
X663319Y421819D01*
X662493Y422453D01*
X661532Y422851D01*
X660500Y422987D01*
D02*
G37*
G36*
Y412987D02*
X659468Y412851D01*
X658507Y412453D01*
X657681Y411819D01*
X657047Y410993D01*
X656649Y410032D01*
X656513Y409000D01*
X656649Y407968D01*
X657047Y407007D01*
X657681Y406181D01*
X658507Y405547D01*
X659468Y405149D01*
X660500Y405013D01*
X661532Y405149D01*
X662493Y405547D01*
X663319Y406181D01*
X663953Y407007D01*
X664351Y407968D01*
X664487Y409000D01*
X664351Y410032D01*
X663953Y410993D01*
X663319Y411819D01*
X662493Y412453D01*
X661532Y412851D01*
X660500Y412987D01*
D02*
G37*
G36*
X630500Y391557D02*
Y389500D01*
X632557D01*
X632533Y389679D01*
X632271Y390311D01*
X631854Y390854D01*
X631311Y391271D01*
X630679Y391533D01*
X630500Y391557D01*
D02*
G37*
G36*
X629500D02*
X629321Y391533D01*
X628689Y391271D01*
X628146Y390854D01*
X627729Y390311D01*
X627467Y389679D01*
X627443Y389500D01*
X629500D01*
Y391557D01*
D02*
G37*
G36*
X632557Y388500D02*
X630500D01*
Y386443D01*
X630679Y386467D01*
X631311Y386729D01*
X631854Y387146D01*
X632271Y387689D01*
X632533Y388321D01*
X632557Y388500D01*
D02*
G37*
G36*
X629500D02*
X627443D01*
X627467Y388321D01*
X627729Y387689D01*
X628146Y387146D01*
X628689Y386729D01*
X629321Y386467D01*
X629500Y386443D01*
Y388500D01*
D02*
G37*
G36*
X660000Y390987D02*
X658968Y390851D01*
X658007Y390453D01*
X657181Y389819D01*
X656547Y388993D01*
X656149Y388032D01*
X656013Y387000D01*
X656149Y385968D01*
X656547Y385007D01*
X657181Y384181D01*
X658007Y383547D01*
X658968Y383149D01*
X660000Y383013D01*
X661032Y383149D01*
X661993Y383547D01*
X662819Y384181D01*
X663453Y385007D01*
X663851Y385968D01*
X663987Y387000D01*
X663851Y388032D01*
X663453Y388993D01*
X662819Y389819D01*
X661993Y390453D01*
X661032Y390851D01*
X660000Y390987D01*
D02*
G37*
G36*
Y380987D02*
X658968Y380851D01*
X658007Y380453D01*
X657181Y379819D01*
X656547Y378993D01*
X656149Y378032D01*
X656013Y377000D01*
X656149Y375968D01*
X656547Y375007D01*
X657181Y374181D01*
X658007Y373547D01*
X658968Y373149D01*
X660000Y373013D01*
X661032Y373149D01*
X661993Y373547D01*
X662819Y374181D01*
X663453Y375007D01*
X663851Y375968D01*
X663987Y377000D01*
X663851Y378032D01*
X663453Y378993D01*
X662819Y379819D01*
X661993Y380453D01*
X661032Y380851D01*
X660000Y380987D01*
D02*
G37*
G36*
X664453Y442953D02*
X656547D01*
Y435047D01*
X664453D01*
Y437471D01*
X667367D01*
X668971Y435866D01*
Y370133D01*
X667367Y368529D01*
X663645D01*
X663453Y368993D01*
X662819Y369819D01*
X661993Y370453D01*
X661032Y370851D01*
X660000Y370987D01*
X658968Y370851D01*
X658007Y370453D01*
X657181Y369819D01*
X656547Y368993D01*
X656355Y368529D01*
X649133D01*
X640581Y377081D01*
X640085Y377413D01*
X639500Y377529D01*
X630104D01*
X629854Y377854D01*
X629311Y378271D01*
X628679Y378533D01*
X628000Y378622D01*
X627321Y378533D01*
X626689Y378271D01*
X626146Y377854D01*
X625896Y377529D01*
X522133D01*
X496529Y403133D01*
Y408896D01*
X496854Y409146D01*
X497271Y409689D01*
X497533Y410321D01*
X497622Y411000D01*
X497533Y411679D01*
X497271Y412311D01*
X496854Y412854D01*
X496311Y413271D01*
X495679Y413533D01*
X495000Y413622D01*
X494321Y413533D01*
X493689Y413271D01*
X493146Y412854D01*
X492729Y412311D01*
X492467Y411679D01*
X492378Y411000D01*
X492467Y410321D01*
X492729Y409689D01*
X493146Y409146D01*
X493471Y408896D01*
Y402500D01*
X493587Y401915D01*
X493919Y401419D01*
X520419Y374919D01*
X520915Y374587D01*
X521500Y374471D01*
X625896D01*
X626146Y374146D01*
X626689Y373729D01*
X627321Y373467D01*
X628000Y373378D01*
X628679Y373467D01*
X629311Y373729D01*
X629854Y374146D01*
X630104Y374471D01*
X638867D01*
X647419Y365919D01*
X647915Y365587D01*
X648500Y365471D01*
X656355D01*
X656547Y365007D01*
X657181Y364181D01*
X658007Y363547D01*
X658968Y363149D01*
X660000Y363013D01*
X661032Y363149D01*
X661993Y363547D01*
X662819Y364181D01*
X663453Y365007D01*
X663645Y365471D01*
X668000D01*
X668585Y365587D01*
X669081Y365919D01*
X671581Y368419D01*
X671913Y368915D01*
X671932Y369012D01*
X672029Y369500D01*
Y436500D01*
X671932Y436988D01*
X671913Y437085D01*
X671581Y437581D01*
X669081Y440081D01*
X668585Y440413D01*
X668000Y440529D01*
X664453D01*
Y442953D01*
D02*
G37*
G36*
X663953Y360953D02*
X660500D01*
Y357500D01*
X663953D01*
Y360953D01*
D02*
G37*
G36*
X659500D02*
X656047D01*
Y357500D01*
X659500D01*
Y360953D01*
D02*
G37*
G36*
X663953Y356500D02*
X660500D01*
Y353047D01*
X663953D01*
Y356500D01*
D02*
G37*
G36*
X659500D02*
X656047D01*
Y353047D01*
X659500D01*
Y356500D01*
D02*
G37*
G36*
X572500Y340557D02*
Y338500D01*
X574557D01*
X574533Y338679D01*
X574271Y339311D01*
X573854Y339854D01*
X573311Y340271D01*
X572679Y340533D01*
X572500Y340557D01*
D02*
G37*
G36*
X571500D02*
X571321Y340533D01*
X570689Y340271D01*
X570146Y339854D01*
X569729Y339311D01*
X569467Y338679D01*
X569443Y338500D01*
X571500D01*
Y340557D01*
D02*
G37*
G36*
X574557Y337500D02*
X572500D01*
Y335443D01*
X572679Y335467D01*
X573311Y335729D01*
X573854Y336146D01*
X574271Y336689D01*
X574533Y337321D01*
X574557Y337500D01*
D02*
G37*
G36*
X571500D02*
X569443D01*
X569467Y337321D01*
X569729Y336689D01*
X570146Y336146D01*
X570689Y335729D01*
X571321Y335467D01*
X571500Y335443D01*
Y337500D01*
D02*
G37*
G36*
X457236Y337013D02*
Y332996D01*
X461253D01*
X461163Y333682D01*
X460705Y334787D01*
X459976Y335736D01*
X459027Y336465D01*
X457922Y336922D01*
X457236Y337013D01*
D02*
G37*
G36*
X456236D02*
X455550Y336922D01*
X454445Y336465D01*
X453496Y335736D01*
X452768Y334787D01*
X452310Y333682D01*
X452219Y332996D01*
X456236D01*
Y337013D01*
D02*
G37*
G36*
X380236Y336513D02*
Y332496D01*
X384253D01*
X384163Y333182D01*
X383705Y334287D01*
X382977Y335236D01*
X382028Y335965D01*
X380922Y336422D01*
X380236Y336513D01*
D02*
G37*
G36*
X379236D02*
X378550Y336422D01*
X377445Y335965D01*
X376496Y335236D01*
X375768Y334287D01*
X375310Y333182D01*
X375219Y332496D01*
X379236D01*
Y336513D01*
D02*
G37*
G36*
X461253Y331996D02*
X457236D01*
Y327979D01*
X457922Y328070D01*
X459027Y328527D01*
X459976Y329256D01*
X460705Y330205D01*
X461163Y331310D01*
X461253Y331996D01*
D02*
G37*
G36*
X456236D02*
X452219D01*
X452310Y331310D01*
X452768Y330205D01*
X453496Y329256D01*
X454445Y328527D01*
X455550Y328070D01*
X456236Y327979D01*
Y331996D01*
D02*
G37*
G36*
X446279Y337039D02*
X437193D01*
Y327953D01*
X446279D01*
Y337039D01*
D02*
G37*
G36*
X486736Y337079D02*
X485550Y336922D01*
X484445Y336465D01*
X483496Y335736D01*
X482768Y334787D01*
X482310Y333682D01*
X482154Y332496D01*
X482310Y331310D01*
X482768Y330205D01*
X483496Y329256D01*
X484445Y328527D01*
X485550Y328070D01*
X486736Y327914D01*
X487922Y328070D01*
X489028Y328527D01*
X489977Y329256D01*
X490705Y330205D01*
X491163Y331310D01*
X491319Y332496D01*
X491163Y333682D01*
X490705Y334787D01*
X489977Y335736D01*
X489028Y336465D01*
X487922Y336922D01*
X486736Y337079D01*
D02*
G37*
G36*
X471736D02*
X470550Y336922D01*
X469445Y336465D01*
X468496Y335736D01*
X467768Y334787D01*
X467310Y333682D01*
X467154Y332496D01*
X467310Y331310D01*
X467768Y330205D01*
X468496Y329256D01*
X469445Y328527D01*
X470550Y328070D01*
X471736Y327914D01*
X472922Y328070D01*
X474027Y328527D01*
X474976Y329256D01*
X475705Y330205D01*
X476163Y331310D01*
X476319Y332496D01*
X476163Y333682D01*
X475705Y334787D01*
X474976Y335736D01*
X474027Y336465D01*
X472922Y336922D01*
X471736Y337079D01*
D02*
G37*
G36*
X384253Y331496D02*
X380236D01*
Y327479D01*
X380922Y327570D01*
X382028Y328028D01*
X382977Y328756D01*
X383705Y329705D01*
X384163Y330810D01*
X384253Y331496D01*
D02*
G37*
G36*
X379236D02*
X375219D01*
X375310Y330810D01*
X375768Y329705D01*
X376496Y328756D01*
X377445Y328028D01*
X378550Y327570D01*
X379236Y327479D01*
Y331496D01*
D02*
G37*
G36*
X369280Y336539D02*
X360193D01*
Y327453D01*
X369280D01*
Y336539D01*
D02*
G37*
G36*
X409736Y336579D02*
X408550Y336422D01*
X407445Y335965D01*
X406496Y335236D01*
X405768Y334287D01*
X405310Y333182D01*
X405154Y331996D01*
X405310Y330810D01*
X405768Y329705D01*
X406496Y328756D01*
X407445Y328028D01*
X408550Y327570D01*
X409736Y327414D01*
X410922Y327570D01*
X412028Y328028D01*
X412977Y328756D01*
X413705Y329705D01*
X414163Y330810D01*
X414319Y331996D01*
X414163Y333182D01*
X413705Y334287D01*
X412977Y335236D01*
X412028Y335965D01*
X410922Y336422D01*
X409736Y336579D01*
D02*
G37*
G36*
X394736D02*
X393550Y336422D01*
X392445Y335965D01*
X391496Y335236D01*
X390768Y334287D01*
X390310Y333182D01*
X390154Y331996D01*
X390310Y330810D01*
X390768Y329705D01*
X391496Y328756D01*
X392445Y328028D01*
X393550Y327570D01*
X394736Y327414D01*
X395922Y327570D01*
X397027Y328028D01*
X397976Y328756D01*
X398705Y329705D01*
X399163Y330810D01*
X399319Y331996D01*
X399163Y333182D01*
X398705Y334287D01*
X397976Y335236D01*
X397027Y335965D01*
X395922Y336422D01*
X394736Y336579D01*
D02*
G37*
G36*
X618000Y337622D02*
X617321Y337533D01*
X616689Y337271D01*
X616146Y336854D01*
X615729Y336311D01*
X615467Y335679D01*
X615378Y335000D01*
X615467Y334321D01*
X615729Y333689D01*
X616146Y333146D01*
X616471Y332896D01*
Y326133D01*
X613867Y323529D01*
X587104D01*
X586854Y323854D01*
X586311Y324271D01*
X585679Y324533D01*
X585000Y324622D01*
X584321Y324533D01*
X583689Y324271D01*
X583146Y323854D01*
X582729Y323311D01*
X582467Y322679D01*
X582378Y322000D01*
X582467Y321321D01*
X582729Y320689D01*
X583146Y320146D01*
X583689Y319729D01*
X584321Y319467D01*
X585000Y319378D01*
X585679Y319467D01*
X586311Y319729D01*
X586854Y320146D01*
X587104Y320471D01*
X614500D01*
X615085Y320587D01*
X615581Y320919D01*
X619081Y324419D01*
X619413Y324915D01*
X619529Y325500D01*
Y332896D01*
X619854Y333146D01*
X620271Y333689D01*
X620533Y334321D01*
X620622Y335000D01*
X620533Y335679D01*
X620271Y336311D01*
X619854Y336854D01*
X619311Y337271D01*
X618679Y337533D01*
X618000Y337622D01*
D02*
G37*
G36*
X660000Y329363D02*
X658144Y329217D01*
X656334Y328783D01*
X654614Y328070D01*
X653027Y327098D01*
X651611Y325889D01*
X650402Y324473D01*
X649430Y322886D01*
X648717Y321166D01*
X648283Y319356D01*
X648137Y317500D01*
X648283Y315644D01*
X648717Y313834D01*
X649430Y312114D01*
X650402Y310527D01*
X651611Y309111D01*
X653027Y307902D01*
X654614Y306930D01*
X656334Y306217D01*
X658144Y305783D01*
X660000Y305637D01*
X661856Y305783D01*
X663666Y306217D01*
X665386Y306930D01*
X666973Y307902D01*
X668389Y309111D01*
X669598Y310527D01*
X670570Y312114D01*
X671283Y313834D01*
X671717Y315644D01*
X671863Y317500D01*
X671717Y319356D01*
X671283Y321166D01*
X670570Y322886D01*
X669598Y324473D01*
X668389Y325889D01*
X666973Y327098D01*
X665386Y328070D01*
X663666Y328783D01*
X661856Y329217D01*
X660000Y329363D01*
D02*
G37*
G36*
X333000D02*
X331144Y329217D01*
X329334Y328783D01*
X327614Y328070D01*
X326027Y327098D01*
X324611Y325889D01*
X323402Y324473D01*
X322430Y322886D01*
X321717Y321166D01*
X321283Y319356D01*
X321137Y317500D01*
X321283Y315644D01*
X321717Y313834D01*
X322430Y312114D01*
X323402Y310527D01*
X324611Y309111D01*
X326027Y307902D01*
X327614Y306930D01*
X329334Y306217D01*
X331144Y305783D01*
X333000Y305637D01*
X334856Y305783D01*
X336666Y306217D01*
X338386Y306930D01*
X339973Y307902D01*
X341389Y309111D01*
X342598Y310527D01*
X343570Y312114D01*
X344283Y313834D01*
X344717Y315644D01*
X344863Y317500D01*
X344717Y319356D01*
X344283Y321166D01*
X343570Y322886D01*
X342598Y324473D01*
X341389Y325889D01*
X339973Y327098D01*
X338386Y328070D01*
X336666Y328783D01*
X334856Y329217D01*
X333000Y329363D01*
D02*
G37*
%LPD*%
D33*
X585000Y322000D02*
X614500D01*
X618000Y325500D01*
Y335000D01*
X660500Y439000D02*
X668000D01*
X670500Y436500D01*
X660000Y367000D02*
X668000D01*
X670500Y369500D01*
Y436500D01*
X628000Y376000D02*
X639500D01*
X648500Y367000D01*
X660000D01*
X521500Y376000D02*
X628000D01*
X495000Y402500D02*
X521500Y376000D01*
X495000Y402500D02*
Y411000D01*
D35*
X542580Y431320D02*
D03*
X548090D02*
D03*
X553600D02*
D03*
X542580Y425810D02*
D03*
X548090D02*
D03*
X553600D02*
D03*
Y420300D02*
D03*
X548090D02*
D03*
X542580D02*
D03*
X416995Y456583D02*
D03*
X424995Y448583D02*
D03*
Y444583D02*
D03*
X408995Y468583D02*
D03*
X420995Y464583D02*
D03*
X408995D02*
D03*
X416995D02*
D03*
X420995Y460583D02*
D03*
X408995Y444583D02*
D03*
Y456583D02*
D03*
X416995Y468583D02*
D03*
X412995Y444583D02*
D03*
X424995Y468583D02*
D03*
X416995Y460583D02*
D03*
Y448583D02*
D03*
X420995Y444583D02*
D03*
X416995D02*
D03*
X420995Y456583D02*
D03*
Y452583D02*
D03*
X416995D02*
D03*
X408995D02*
D03*
Y448583D02*
D03*
X420995D02*
D03*
X412995Y464583D02*
D03*
Y448583D02*
D03*
X408995Y460583D02*
D03*
X420995Y468583D02*
D03*
X424995Y452583D02*
D03*
Y456583D02*
D03*
Y460583D02*
D03*
X412995Y468583D02*
D03*
Y452583D02*
D03*
Y456583D02*
D03*
Y460583D02*
D03*
X424995Y464583D02*
D03*
D36*
X409736Y331996D02*
D03*
X394736D02*
D03*
X379736D02*
D03*
X486736Y332496D02*
D03*
X471736D02*
D03*
X456736D02*
D03*
D37*
X364736Y331996D02*
D03*
X441736Y332496D02*
D03*
D38*
X660000Y387000D02*
D03*
Y377000D02*
D03*
Y367000D02*
D03*
X660500Y409000D02*
D03*
Y419000D02*
D03*
Y429000D02*
D03*
D39*
X660000Y357000D02*
D03*
X660500Y439000D02*
D03*
D40*
X333000Y469000D02*
D03*
Y317500D02*
D03*
X660000D02*
D03*
Y469000D02*
D03*
D41*
X585000Y322000D02*
D03*
X618000Y335000D02*
D03*
X628000Y376000D02*
D03*
X630000Y389000D02*
D03*
X572000Y338000D02*
D03*
X495000Y411000D02*
D03*
M02*
